<svg width="1000" height="667" viewBox="0 0 1000 667" fill="none" xmlns="http://www.w3.org/2000/svg">
<path fill-rule="evenodd" clip-rule="evenodd" d="M833.333 666.667H166.667V2.95639e-05H833.333V666.667Z" fill="white"/>
<path fill-rule="evenodd" clip-rule="evenodd" d="M1000 666.667H0V6.00815e-05H1000V666.667Z" fill="white"/>
<path fill-rule="evenodd" clip-rule="evenodd" d="M541.388 104.56C541.388 103.887 540.844 103.34 540.169 103.34C539.495 103.34 538.951 103.887 538.951 104.56V107.427H536.084C535.409 107.427 534.864 107.972 534.864 108.645C534.864 109.319 535.409 109.865 536.084 109.865H538.951V112.733C538.951 113.407 539.495 113.953 540.169 113.953C540.844 113.953 541.388 113.407 541.388 112.733V109.865H544.255C544.929 109.865 545.476 109.319 545.476 108.645C545.476 107.972 544.929 107.427 544.255 107.427H541.388V104.56Z" fill="#A3B1DE"/>
<path fill-rule="evenodd" clip-rule="evenodd" d="M869.052 84.884C860.781 84.884 854.076 78.18 854.076 69.9093C854.076 61.64 860.781 54.936 869.052 54.936C877.323 54.936 884.027 61.64 884.027 69.9093C884.027 78.18 877.323 84.884 869.052 84.884ZM233.212 443.911H153.205C110.145 443.911 74.9146 479.14 74.9146 522.201C74.9146 565.26 110.145 600.491 153.205 600.491H381.767H421.132H829.716C899.443 600.491 956.489 543.443 956.489 473.719V473.716C956.489 403.992 899.443 346.944 829.716 346.943C800.235 346.941 776.115 322.82 776.115 293.339C776.115 263.857 800.235 239.737 829.716 239.737H894.229C924.88 239.737 949.956 214.659 949.956 184.007C949.956 153.356 924.88 128.277 894.229 128.277H812.651C800.719 128.277 790.956 118.513 790.956 106.58C790.956 94.648 800.719 84.884 812.651 84.884H827.031C835.268 84.884 842.005 78.1453 842.005 69.9093C842.005 61.6747 835.265 54.936 827.031 54.936H773.136C773.136 54.936 752.541 54.936 732.669 54.936C712.797 54.936 710.584 78.4134 660.385 78.4134C582.787 78.4134 621.585 78.4134 543.987 78.4134C533.24 78.4134 524.448 87.2054 524.448 97.9521C524.448 108.697 533.24 117.491 543.987 117.491H562.751C578.32 117.491 591.063 130.232 591.063 145.801V145.804C591.063 161.372 578.32 174.113 562.751 174.113H506.276C430.02 174.113 419.249 194.041 405.892 233.679C392.536 273.313 323.173 276.511 323.173 276.511H228.329C204.864 276.511 185.665 295.708 185.665 319.173C185.665 342.639 204.864 361.839 228.329 361.839H233.212C255.781 361.839 274.248 380.304 274.248 402.873C274.248 425.445 255.781 443.911 233.212 443.911" fill="#E5EAF8"/>
<path fill-rule="evenodd" clip-rule="evenodd" d="M764.685 314.661C772.792 302.905 789.784 283.349 822.268 263.887C873.651 233.099 912.581 192.297 895.472 168.153C878.683 144.461 803.429 190.22 740.935 304.6C750.125 309.407 757.976 312.651 764.685 314.661Z" fill="#B8C5E9"/>
<path fill-rule="evenodd" clip-rule="evenodd" d="M754.648 304.207C756.071 304.137 759.839 304.139 764.784 305.593C765.128 305.696 765.492 305.5 765.593 305.153C765.695 304.809 765.497 304.447 765.153 304.344C760.825 303.068 757.32 302.871 755.424 302.885C756.533 301.001 757.645 299.141 758.755 297.312C761.024 297.261 768.339 297.116 771.085 297.267C771.445 297.288 771.755 297.011 771.773 296.651C771.795 296.291 771.519 295.983 771.159 295.963C768.636 295.824 762.432 295.927 759.557 295.985C761.64 292.572 763.727 289.256 765.809 286.028C768.005 286.067 774.812 286.268 782.341 287.28C782.697 287.327 783.028 287.079 783.076 286.72C783.125 286.363 782.875 286.033 782.519 285.984C775.691 285.068 769.44 284.811 766.636 284.74C768.74 281.495 770.847 278.351 772.945 275.292C775.956 275.344 785.743 275.619 796.555 277.073C796.915 277.121 797.243 276.869 797.289 276.513C797.339 276.156 797.088 275.827 796.732 275.777C786.724 274.431 777.607 274.088 773.836 274.003C776.601 270.003 779.357 266.165 782.099 262.475C785.245 262.341 798.289 262.005 808.084 265.148C808.427 265.26 808.797 265.072 808.907 264.728C809.019 264.384 808.831 264.016 808.487 263.905C799.36 260.977 787.519 261.004 783.088 261.137C786.464 256.632 789.815 252.363 793.133 248.308C797.424 248.551 814.693 249.861 822.773 255.581C823.068 255.788 823.473 255.717 823.683 255.42C823.888 255.127 823.817 254.72 823.524 254.513C815.685 248.964 799.724 247.436 794.164 247.064C797.693 242.793 801.18 238.767 804.617 234.977C807.751 235.688 820.855 238.872 833.175 245.06C833.497 245.223 833.888 245.092 834.052 244.772C834.213 244.451 834.084 244.059 833.763 243.897C822.091 238.033 809.737 234.84 805.62 233.869C807.659 231.644 809.677 229.5 811.677 227.435C814.677 228.049 827.443 230.968 844.339 239.144C844.664 239.303 845.055 239.165 845.211 238.843C845.369 238.517 845.232 238.128 844.909 237.971C829.143 230.34 816.904 227.247 812.757 226.333C817.508 221.479 822.139 217.063 826.612 213.064C830.404 214.317 849.607 220.819 859.705 227.241C860.008 227.433 860.412 227.345 860.604 227.04C860.8 226.737 860.708 226.333 860.407 226.141C850.705 219.972 832.836 213.771 827.745 212.067C830.357 209.76 832.917 207.589 835.415 205.555C838.661 206.656 853.547 211.892 867.125 219.764C867.435 219.944 867.836 219.84 868.016 219.528C868.195 219.216 868.091 218.817 867.779 218.636C854.984 211.22 841.052 206.128 836.612 204.585C842.461 199.883 847.967 195.901 853.044 192.545C856.255 193.303 870.757 196.933 881.645 203.249C881.956 203.431 882.355 203.324 882.536 203.013C882.716 202.701 882.612 202.304 882.303 202.121C872.289 196.316 859.309 192.753 854.544 191.567C856.645 190.207 858.664 188.957 860.604 187.805C863.197 188.069 872.839 189.312 885.303 194.092C885.64 194.221 886.019 194.055 886.148 193.719C886.279 193.383 886.109 193.004 885.773 192.873C875.133 188.793 866.489 187.256 862.464 186.715C878.099 177.687 887.812 175.391 887.893 175.369C888.417 175.239 888.735 174.705 888.601 174.183C888.472 173.657 887.94 173.34 887.415 173.472C887.36 173.484 883.088 174.495 875.672 177.776C877.703 175.215 880.584 171.677 881.347 171.209C881.653 171.023 881.751 170.621 881.563 170.313C881.375 170.008 880.973 169.911 880.667 170.097C879.487 170.819 874.716 176.865 873.081 178.96C870.073 180.371 866.653 182.112 862.861 184.256L869.307 171.445C869.469 171.125 869.339 170.732 869.019 170.571C868.697 170.409 868.305 170.537 868.143 170.859L860.807 185.436C858.208 186.956 855.451 188.659 852.56 190.557L859.508 175.371C859.659 175.044 859.516 174.657 859.191 174.507C858.861 174.356 858.473 174.5 858.323 174.825L850.497 191.929C846.164 194.851 841.544 198.197 836.68 202.057L842.703 186.32C842.831 185.983 842.664 185.605 842.325 185.475C841.989 185.347 841.615 185.513 841.481 185.851L834.659 203.684C832.44 205.484 830.177 207.379 827.867 209.391L832.972 195.209C833.096 194.869 832.919 194.496 832.584 194.372C832.243 194.251 831.867 194.424 831.745 194.764L825.833 211.176C821.557 214.977 817.139 219.152 812.612 223.725L816.459 209.877C816.555 209.531 816.349 209.171 816.003 209.075C815.656 208.977 815.297 209.181 815.2 209.528L810.724 225.643C808.929 227.488 807.115 229.404 805.292 231.376L807.448 220.803C807.519 220.449 807.292 220.105 806.937 220.032C806.585 219.961 806.243 220.189 806.169 220.54L803.584 233.235C800.188 236.961 796.745 240.917 793.265 245.104L795.273 233.316C795.336 232.963 795.096 232.625 794.743 232.565C794.385 232.505 794.049 232.744 793.989 233.099L791.599 247.112C788.552 250.832 785.479 254.747 782.383 258.843L783.693 248.372C783.74 248.013 783.487 247.687 783.128 247.64C782.768 247.596 782.443 247.851 782.396 248.207L780.805 260.949C778.104 264.573 775.393 268.343 772.669 272.263L772.735 262.812C772.737 262.452 772.448 262.157 772.088 262.153C771.729 262.149 771.432 262.44 771.429 262.8L771.349 274.167C769.38 277.031 767.409 279.981 765.432 283.009L764.419 274.953C764.372 274.596 764.047 274.343 763.691 274.388C763.333 274.432 763.081 274.757 763.125 275.116L764.331 284.709C762.516 287.523 760.695 290.401 758.875 293.353L757.927 288.147C757.861 287.792 757.521 287.556 757.167 287.621C756.812 287.687 756.579 288.027 756.643 288.381L757.849 295.023C756.495 297.245 755.139 299.513 753.781 301.813L751.623 297.541C751.461 297.22 751.068 297.092 750.748 297.255C750.427 297.417 750.297 297.808 750.459 298.131L752.997 303.151C751.891 305.039 750.787 306.952 749.683 308.895C750.287 309.171 750.885 309.441 751.476 309.701C752.533 307.847 753.591 306.016 754.648 304.207" fill="white"/>
<path fill-rule="evenodd" clip-rule="evenodd" d="M755.369 321.317C764.052 315.829 779.369 308.472 802.508 305.175C841.773 299.579 876.817 283.48 874.164 262.019C871.609 241.34 815.951 249.304 746.68 305.408L755.333 321.256L755.369 321.317Z" fill="#A3B1DE"/>
<path fill-rule="evenodd" clip-rule="evenodd" d="M863.568 265.219C864.309 265.215 864.912 264.607 864.907 263.864C864.901 263.12 864.292 262.521 863.549 262.527C863.5 262.528 859.128 262.513 851.651 263.525L858.057 259.2C858.469 258.923 858.576 258.365 858.3 257.956C858.024 257.545 857.464 257.437 857.055 257.715L847.536 264.141C844.055 264.713 840.091 265.483 835.721 266.529L842.451 260.104C842.809 259.76 842.823 259.193 842.479 258.833C842.139 258.473 841.571 258.461 841.211 258.804L832.193 267.416C827.653 268.6 822.743 270.069 817.533 271.899L823.167 266.104C823.511 265.749 823.505 265.183 823.148 264.836C822.795 264.491 822.227 264.497 821.883 264.852L813.659 273.312C808.213 275.357 802.484 277.787 796.555 280.68L801.315 274.563C801.62 274.175 801.552 273.609 801.161 273.305C800.771 273.003 800.208 273.071 799.904 273.461L792.831 282.552C787.273 285.412 781.563 288.673 775.76 292.404L777.713 288.245C777.924 287.796 777.729 287.261 777.281 287.051C776.833 286.841 776.3 287.033 776.088 287.483L772.899 294.279C768.497 297.208 764.057 300.404 759.599 303.901L761.385 299.669C761.579 299.211 761.364 298.685 760.909 298.492C760.453 298.3 759.924 298.515 759.732 298.971L756.659 306.249C754.489 308.013 752.317 309.848 750.145 311.756L751.469 314.183C753.64 312.261 755.812 310.419 757.979 308.647C760.2 308.789 765.519 309.243 767.755 310.416C768.193 310.647 768.735 310.479 768.969 310.043C769.2 309.604 769.031 309.06 768.593 308.828C766.617 307.792 762.729 307.264 760.016 307.012C761.732 305.645 763.445 304.32 765.156 303.041C767.336 303.405 772.688 304.455 776.252 306.473C776.685 306.717 777.232 306.565 777.476 306.135C777.719 305.703 777.568 305.155 777.136 304.912C774.079 303.179 769.847 302.125 767.123 301.58C770.656 299 774.169 296.607 777.648 294.38C780.639 295.615 790.099 299.639 793.812 302.692C794.193 303.005 794.757 302.951 795.073 302.568C795.388 302.188 795.333 301.621 794.953 301.305C791.469 298.441 783.355 294.84 779.5 293.211C783.232 290.881 786.921 288.741 790.549 286.783C793.536 287.929 803.255 291.872 809.664 296.945C810.052 297.252 810.617 297.187 810.924 296.797C811.232 296.409 811.164 295.844 810.776 295.536C805.003 290.969 796.661 287.305 792.623 285.676C794.419 284.731 796.2 283.832 797.964 282.973C801.063 283.957 811.541 287.597 821.251 294.631C821.651 294.92 822.211 294.833 822.503 294.432C822.795 294.033 822.708 293.472 822.307 293.18C813.809 287.023 804.721 283.407 800.289 281.861C806.688 278.852 812.823 276.384 818.588 274.364C822.016 276.487 835.295 284.833 841.101 290.353C841.459 290.695 842.028 290.68 842.369 290.32C842.711 289.963 842.695 289.395 842.336 289.052C836.961 283.944 825.476 276.557 820.781 273.612C825.096 272.159 829.191 270.961 833.008 269.968C836.088 272.323 847.469 281.032 850.107 283.308C850.479 283.633 851.047 283.593 851.369 283.22C851.695 282.847 851.653 282.28 851.281 281.956C848.861 279.869 839.336 272.552 835.227 269.407C840.224 268.176 844.708 267.305 848.555 266.692C851.323 269.096 857.981 274.905 859.539 276.463C859.888 276.812 860.459 276.812 860.807 276.463C861.159 276.111 861.159 275.543 860.807 275.192C859.419 273.807 854.047 269.099 850.883 266.341C858.833 265.205 863.516 265.219 863.568 265.219" fill="#B8C5E9"/>
<path fill-rule="evenodd" clip-rule="evenodd" d="M732.339 138.148C732.344 138.224 732.344 138.3 732.336 138.376C732.333 138.407 731.421 148.063 732.56 157.639C751.476 146.849 765.683 140.689 771.396 138.36C765.193 137.879 758.953 137.607 752.697 137.551C745.94 137.491 739.143 137.687 732.339 138.148V138.148ZM691.487 144.435C691.519 144.557 691.533 144.687 691.531 144.817C691.528 144.875 691.027 163.808 695.252 181.517C707.697 172.645 719.421 165.252 729.836 159.209C728.549 149.824 729.284 140.045 729.424 138.363C716.576 139.387 703.849 141.381 691.487 144.435ZM644.951 162.281C645.031 162.424 645.088 162.584 645.115 162.756C645.133 162.861 650.893 197.839 656.885 212.191C669.099 201.257 681.193 191.672 692.711 183.343C688.472 166.441 688.573 148.119 688.617 145.165C682.076 146.875 675.643 148.887 669.357 151.211C660.927 154.329 652.763 158.009 644.951 162.281V162.281ZM610.664 187.331C610.917 187.585 611.079 187.936 611.084 188.324C611.085 188.396 611.355 212.341 625.651 243.183C635.208 232.656 644.935 223.027 654.607 214.247C648.752 201.061 643.096 168.229 642.339 163.74C634.292 168.325 626.636 173.555 619.473 179.468C616.448 181.968 613.508 184.585 610.664 187.331V187.331ZM589.047 213.549C589.44 213.796 589.708 214.227 589.729 214.725C590.505 234.972 599.232 263.005 602.06 271.621C609.044 262.379 616.24 253.687 623.541 245.523C610.489 217.867 608.524 195.339 608.229 189.732C601.169 196.859 594.735 204.784 589.047 213.549V213.549ZM572.88 246.323C573.415 246.507 573.812 246.992 573.857 247.591C575.424 270.456 580.763 291.588 582.896 299.333C588.38 290.639 594.081 282.349 599.94 274.455C598.229 269.401 588.312 239.291 586.927 216.913C584.459 220.943 582.143 225.144 579.995 229.517C577.372 234.859 574.995 240.456 572.88 246.323V246.323ZM563.427 285.568C564.081 285.649 564.615 286.168 564.693 286.849C564.697 286.916 567.008 307.88 570.691 320.071C573.964 314.097 577.349 308.295 580.825 302.659C579.653 298.665 573.347 276.305 571.219 251.152C567.743 261.772 565.107 273.232 563.427 285.568V285.568ZM561.896 337.088C564.131 332.493 566.429 327.989 568.789 323.58C565.82 315.336 563.615 301.057 562.539 293.049C562.44 294.031 562.344 295.016 562.255 296.007C561.643 302.871 561.315 309.997 561.287 317.387C561.263 323.729 561.461 330.295 561.896 337.088V337.088ZM629.585 343.132C607.547 339.692 577.393 328.036 571.049 325.524C568.492 330.324 566.005 335.235 563.596 340.255C588.344 345.803 610.235 346.356 629.585 343.132V343.132ZM666.719 331.193C656.284 328.447 600.581 313.591 582.929 304.781C579.323 310.653 575.817 316.711 572.429 322.953C579.864 325.888 613.175 338.671 634.691 340.869C635.305 340.931 635.789 341.363 635.948 341.92C647.055 339.528 657.292 335.869 666.719 331.193ZM700.467 307.505C691.781 304.803 615.049 280.905 602.081 276.439C596.016 284.631 590.123 293.247 584.467 302.304C603.833 311.868 668.945 328.769 669.14 328.819C669.528 328.92 669.841 329.169 670.028 329.491C681.328 323.481 691.435 316.003 700.467 307.505V307.505ZM724.721 279.068L625.697 247.457C618.284 255.748 610.984 264.585 603.907 273.995C619.909 279.407 701.893 304.913 702.139 304.991C702.367 305.061 702.565 305.184 702.724 305.34C710.94 297.299 718.237 288.417 724.721 279.068V279.068ZM744.197 245.113C733.536 239.653 664.511 218.617 656.705 216.245C647.065 224.992 637.367 234.591 627.833 245.085L726.068 276.444C726.188 276.483 726.303 276.536 726.407 276.603C730.633 270.323 734.5 263.853 738.036 257.296C740.213 253.259 742.265 249.189 744.197 245.113ZM760.557 202.883L694.604 185.536C683.232 193.752 671.289 203.203 659.221 213.979C672.303 217.967 734.833 237.135 745.427 242.489C751.664 228.991 756.631 215.481 760.557 202.883ZM769.309 169.511L769.276 169.5C759.857 166.425 735.292 162.141 731.631 161.511C721.412 167.427 709.901 174.664 697.672 183.343L761.409 200.105C764.807 188.893 767.383 178.472 769.309 169.511ZM774.336 140.309C770.771 141.7 756.133 147.653 735.585 159.249C743.596 160.677 761.76 164.048 769.915 166.653C772.617 153.608 773.888 144.059 774.336 140.309V140.309ZM558.948 340.172C558.377 332.349 558.115 324.755 558.143 317.387C558.172 309.904 558.503 302.688 559.123 295.736C561.44 269.733 567.757 247.3 577.172 228.137C587.36 207.4 601.172 190.495 617.476 177.039C632.584 164.571 649.815 155.079 668.271 148.252C688.071 140.931 709.284 136.673 730.803 135.097C738.063 134.565 745.385 134.341 752.724 134.407C760.151 134.472 767.565 134.843 774.921 135.497V135.492C775.755 135.565 776.481 135.971 776.984 136.569C777.481 137.163 777.755 137.945 777.683 138.777L777.653 138.988C777.355 141.855 770.74 203.284 740.809 258.788C710.536 314.932 656.511 365.04 561.292 342.972C560.612 342.813 560.039 342.436 559.628 341.933C559.227 341.444 558.984 340.828 558.951 340.172H558.948" fill="#A3B1DE"/>
<path fill-rule="evenodd" clip-rule="evenodd" d="M329.069 523.985C329.069 523.985 300.171 509.081 305.469 472.487C310.765 435.892 288.388 424.32 282.709 413.433C277.031 402.548 289.76 384.991 288.313 369.619C286.867 354.245 269.137 350.133 277.444 329.045C285.752 307.961 278.725 299.952 267.787 277.363C256.848 254.775 273.056 220.255 280.759 220.447C288.463 220.637 279.071 228.711 285.841 243.727C292.612 258.74 321.171 263.312 330.108 275.867C339.044 288.421 323.337 305.056 333.533 322.004C343.729 338.951 374.113 333.695 382.148 350.14C390.181 366.587 371.028 386.296 376.599 403.537C382.169 420.78 402.688 430.551 411.324 444.404C419.96 458.253 436.135 484.789 409.647 516.472C383.16 548.152 329.069 523.985 329.069 523.985" fill="#A3B1DE"/>
<path fill-rule="evenodd" clip-rule="evenodd" d="M277.589 251.777C277.217 250.808 277.699 249.721 278.667 249.349C279.637 248.975 280.724 249.457 281.097 250.425L400.64 560.971L396.141 559.747L277.589 251.777" fill="#B8C5E9"/>
<path fill-rule="evenodd" clip-rule="evenodd" d="M305.112 486.871C304.96 485.427 304.865 483.937 304.835 482.401L383.353 526.528L376.407 508.481C376.372 508.407 376.341 508.328 376.317 508.251L372.756 498.997L306.271 461.635C306.265 460.115 306.209 458.643 306.105 457.227L370.636 493.492L364.353 477.169L302.932 442.652C302.141 440.577 301.245 438.647 300.276 436.844L362.233 471.661L359.113 463.559C359.077 463.476 359.044 463.396 359.019 463.311L345.375 427.865L283.893 393.315C284.256 392.097 284.633 390.867 285.007 389.627L343.256 422.361L336.444 404.665L288.005 377.445C288.211 376.076 288.351 374.708 288.404 373.355L334.324 399.159L329.2 385.849C329.172 385.788 329.148 385.723 329.127 385.66L314.24 346.985L278.293 326.785C278.745 325.524 279.137 324.308 279.473 323.133L312.12 341.48L299.123 307.713C299.093 307.649 299.068 307.584 299.047 307.517L277.589 251.777C277.217 250.808 277.699 249.721 278.667 249.349C279.637 248.975 280.724 249.457 281.097 250.425L300.595 301.076L311.737 263.012C312.889 263.591 314.029 264.171 315.152 264.756L302.823 306.864L317.473 344.923C317.496 344.972 317.515 345.025 317.531 345.076L331.081 380.271L352.473 334.408C353.677 334.795 354.892 335.161 356.109 335.52L332.96 385.153L338.123 398.568L366.309 338.612C367.523 339.027 368.705 339.467 369.849 339.94L340.403 402.576L340.851 402.827C341.757 403.335 342.081 404.48 341.573 405.387C341.427 405.649 341.225 405.864 340.993 406.023L348.604 425.793C348.628 425.852 348.651 425.907 348.669 425.965L360.991 457.969L381.869 413.56C382.692 414.683 383.567 415.776 384.487 416.847L362.864 462.84L366.033 471.071L389.187 421.82C390.131 422.744 391.093 423.653 392.067 424.555L367.908 475.94L375.989 496.929C376.012 496.984 376.031 497.036 376.051 497.092L378.287 502.903L407.948 439.811C408.875 440.913 409.74 442.035 410.527 443.183L380.161 507.773L388.707 529.968C388.728 530.019 388.748 530.071 388.765 530.125L388.792 530.191C387.312 530.652 385.813 531.048 384.305 531.377L305.112 486.871" fill="#B8C5E9"/>
<path fill-rule="evenodd" clip-rule="evenodd" d="M315.629 600.707C307.677 594.52 299.505 591.716 295.18 587.714C286.568 579.745 292.372 559.857 286.124 546.491C279.875 533.125 262.6 535.132 263.289 513.487C263.979 491.843 255.077 486.9 237.968 470.096C220.859 453.295 224.333 417.024 231.324 414.715C238.315 412.408 232.464 422.695 243.388 434.027C254.311 445.353 281.476 440.277 293.556 448.696C305.637 457.115 296.857 477.136 311.485 489.101C326.112 501.069 351.756 486.561 364.276 498.772C376.796 510.983 365.905 534.877 376.467 548.597C387.027 562.317 408.632 564.507 420.859 574.188C427.733 579.632 438.041 587.917 443.325 600.707H315.629" fill="#C4CDEC"/>
<path fill-rule="evenodd" clip-rule="evenodd" d="M413.497 600.707L416.343 571.144C417.532 571.837 418.671 572.569 419.748 573.349L417.113 600.707H413.497ZM389.852 600.707L393.675 560.995C394.821 561.522 395.98 562.031 397.145 562.528L393.471 600.707H389.852V600.707ZM380.121 600.707L384.433 555.919C385.533 556.664 386.675 557.367 387.845 558.032L383.737 600.707H380.121V600.707ZM373.576 600.707L356.203 580.533L289.772 569.232C289.707 568.021 289.649 566.793 289.587 565.556L352.525 576.26L340.701 562.534L288.365 553.632C288.109 552.332 287.795 551.057 287.407 549.822L337.024 558.264L328.131 547.937C328.085 547.889 328.044 547.84 328.004 547.788L302.165 517.788L263.325 511.18C263.325 509.899 263.287 508.68 263.212 507.515L298.487 513.513L275.927 487.319C275.88 487.269 275.836 487.219 275.796 487.165L238.555 443.923C237.907 443.172 237.992 442.037 238.743 441.391C239.493 440.743 240.628 440.827 241.275 441.58L275.115 480.872L272.891 443.041C274.113 443.192 275.328 443.347 276.524 443.513L278.984 485.364L304.411 514.889C304.447 514.927 304.48 514.968 304.512 515.008L328.028 542.314L332.516 494.167C333.723 494.128 334.933 494.067 336.144 493.997L331.288 546.101L340.251 556.505L346.316 493.497C347.541 493.481 348.747 493.495 349.928 493.552L343.591 559.379L344.076 559.464C345.055 559.627 345.715 560.552 345.551 561.532C345.503 561.816 345.389 562.073 345.232 562.292L358.443 577.629C358.481 577.672 358.52 577.716 358.556 577.763L378.316 600.707H373.576" fill="#E5EAF8"/>
<path fill-rule="evenodd" clip-rule="evenodd" d="M74.024 611.731H66.7636C63.7312 611.731 61.2521 609.251 61.2521 606.22C61.2521 603.188 63.7312 600.707 66.7636 600.707H74.024C77.0563 600.707 79.536 603.188 79.536 606.22C79.536 609.251 77.0563 611.731 74.024 611.731Z" fill="#131314"/>
<path fill-rule="evenodd" clip-rule="evenodd" d="M91.7245 611.731H890.74C893.773 611.731 896.252 609.251 896.252 606.22C896.252 603.188 893.773 600.707 890.74 600.707H91.7245C88.6921 600.707 86.2136 603.188 86.2136 606.22C86.2136 609.251 88.6921 611.731 91.7245 611.731Z" fill="#131314"/>
<path fill-rule="evenodd" clip-rule="evenodd" d="M152.308 382.1C151.08 382.455 149.912 382.955 148.831 383.581C147.721 384.223 146.696 384.997 145.779 385.88C145.6 386.052 145.335 386.079 145.129 385.96L141.005 383.579L140.984 383.564C140.748 383.437 140.479 383.413 140.232 383.479C139.979 383.548 139.751 383.709 139.611 383.952L139.593 383.981L136.693 389.005C136.553 389.249 136.524 389.528 136.593 389.781C136.661 390.035 136.825 390.263 137.067 390.403L137.096 390.42L141.185 392.783C141.4 392.905 141.499 393.152 141.443 393.383C141.292 393.991 141.177 394.619 141.099 395.259C141.023 395.883 140.984 396.52 140.984 397.171C140.984 397.819 141.023 398.457 141.099 399.081C141.177 399.721 141.292 400.349 141.444 400.955C141.505 401.208 141.38 401.464 141.156 401.575L137.067 403.933V403.935C136.825 404.076 136.661 404.304 136.593 404.556C136.524 404.811 136.553 405.091 136.693 405.332L139.611 410.385C139.751 410.631 139.979 410.792 140.232 410.861C140.485 410.928 140.764 410.9 141.005 410.759L141.037 410.745L145.132 408.38C145.345 408.256 145.609 408.296 145.779 408.459C146.696 409.343 147.72 410.116 148.831 410.757C149.92 411.387 151.093 411.891 152.332 412.245C152.571 412.315 152.727 412.532 152.727 412.772V417.528C152.727 417.805 152.843 418.064 153.028 418.249C153.213 418.432 153.468 418.547 153.748 418.547H159.584C159.865 418.547 160.12 418.432 160.305 418.249C160.491 418.064 160.605 417.805 160.605 417.528V412.769C160.605 412.512 160.785 412.297 161.025 412.239C162.255 411.884 163.42 411.384 164.501 410.757C165.613 410.116 166.637 409.343 167.555 408.459C167.741 408.28 168.023 408.26 168.231 408.397L172.327 410.761C172.568 410.9 172.847 410.928 173.103 410.861C173.355 410.792 173.583 410.631 173.723 410.385L173.74 410.357L176.641 405.332H176.64C176.78 405.087 176.808 404.811 176.74 404.556C176.672 404.304 176.508 404.076 176.268 403.935L172.148 401.557C171.933 401.435 171.835 401.187 171.891 400.957C172.041 400.349 172.157 399.721 172.235 399.081C172.311 398.457 172.349 397.819 172.349 397.171C172.349 396.52 172.311 395.881 172.235 395.256C172.157 394.617 172.041 393.991 171.891 393.383C171.828 393.131 171.953 392.876 172.179 392.765L176.268 390.403C176.508 390.263 176.672 390.035 176.74 389.781C176.808 389.528 176.78 389.249 176.64 389.008L176.625 388.979L173.724 383.952H173.723C173.583 383.709 173.355 383.548 173.103 383.479C172.848 383.412 172.569 383.437 172.327 383.577V383.579L168.204 385.96C167.984 386.085 167.712 386.044 167.541 385.868C166.628 384.989 165.608 384.219 164.501 383.581C163.413 382.949 162.24 382.449 161.001 382.093C160.763 382.024 160.605 381.805 160.605 381.568V376.812C160.605 376.531 160.491 376.276 160.305 376.091C160.12 375.907 159.865 375.793 159.584 375.793H153.748C153.468 375.793 153.213 375.907 153.028 376.091C152.843 376.276 152.727 376.531 152.727 376.812V381.568C152.727 381.827 152.549 382.043 152.308 382.1V382.1ZM150.392 390.895C151.997 389.289 154.216 388.297 156.667 388.297C159.116 388.297 161.336 389.289 162.941 390.895C164.547 392.499 165.54 394.719 165.54 397.171C165.54 399.621 164.547 401.839 162.941 403.443C161.336 405.048 159.116 406.043 156.667 406.043C154.216 406.043 151.997 405.048 150.392 403.443C148.787 401.839 147.793 399.621 147.793 397.171C147.793 394.719 148.787 392.499 150.392 390.895Z" fill="#C4CDEC"/>
<path fill-rule="evenodd" clip-rule="evenodd" d="M88.7751 285.924C87.4276 286.497 86.1208 287.152 84.864 287.88C83.5828 288.62 82.3516 289.436 81.1803 290.319C80.0073 291.203 78.8844 292.163 77.8208 293.188C77.7812 293.227 77.7312 293.251 77.6751 293.255C77.6197 293.261 77.5615 293.251 77.5156 293.224C74.4011 291.427 71.2823 289.637 68.1745 287.831C67.8031 287.629 67.4068 287.508 67.0052 287.463C66.5907 287.416 66.174 287.448 65.776 287.553C65.3677 287.664 64.9765 287.855 64.6333 288.116C64.3027 288.368 64.0136 288.689 63.7948 289.071C61.5385 292.724 59.3964 296.685 57.2375 300.421C57.0183 300.803 56.8844 301.213 56.8312 301.631C56.7765 302.063 56.8068 302.495 56.9167 302.901C57.0255 303.309 57.2156 303.7 57.4792 304.044C57.7317 304.375 58.0521 304.663 58.4328 304.883C61.4099 306.721 64.6412 308.468 67.688 310.227C67.7364 310.253 67.7724 310.297 67.7927 310.347C67.8151 310.399 67.8208 310.457 67.8079 310.509L67.5953 311.373L67.6068 311.377C67.5136 311.797 67.4287 312.224 67.3473 312.657C67.2125 313.397 67.1011 314.127 67.0136 314.84C66.9276 315.549 66.8615 316.28 66.8156 317.033C66.7703 317.789 66.7473 318.528 66.7473 319.249C66.7473 319.971 66.7703 320.708 66.8156 321.463C66.8615 322.216 66.9276 322.949 67.0136 323.659C67.1011 324.372 67.2136 325.1 67.3484 325.841C67.4844 326.577 67.6396 327.293 67.8099 327.988C67.8245 328.045 67.8177 328.104 67.7921 328.156C67.7672 328.212 67.7265 328.256 67.6787 328.28C64.2781 330.097 60.8245 332.235 57.4615 334.177L57.5817 334.327L57.4792 334.455C57.2156 334.8 57.0255 335.189 56.9167 335.599C56.8068 336.005 56.7765 336.439 56.8312 336.868C56.8844 337.285 57.0183 337.696 57.2391 338.076L64.2855 350.279L64.4151 350.201C64.4849 350.265 64.5573 350.327 64.6333 350.383C64.9765 350.644 65.3677 350.836 65.776 350.945C66.1823 351.053 66.6145 351.084 67.0437 351.028C67.4489 350.977 67.8489 350.851 68.2193 350.641C71.3021 349.007 74.4751 347.029 77.5188 345.273C77.5645 345.249 77.6193 345.241 77.6735 345.245C77.7312 345.252 77.786 345.277 77.826 345.316C78.8875 346.34 80.0099 347.299 81.1823 348.183C82.3521 349.063 83.5828 349.879 84.8636 350.619C86.1281 351.352 87.4448 352.009 88.8011 352.584C90.1484 353.157 91.5344 353.651 92.9484 354.056C93.0052 354.073 93.0527 354.105 93.0839 354.147C93.1193 354.195 93.1396 354.249 93.136 354.305V364.991C93.136 365.427 93.2245 365.849 93.386 366.235C93.5527 366.637 93.7964 366.995 94.0984 367.293C94.3973 367.595 94.7573 367.837 95.1531 368.001C95.5396 368.164 95.9593 368.251 96.3973 368.251H109.513C109.948 368.251 110.369 368.164 110.755 368.001C111.152 367.837 111.511 367.593 111.815 367.293C112.113 366.995 112.356 366.637 112.523 366.235C112.683 365.849 112.772 365.427 112.772 364.991V354.303C112.772 354.24 112.792 354.184 112.823 354.141C112.857 354.099 112.909 354.067 112.97 354.055L113.011 354.037C114.435 353.628 115.81 353.139 117.132 352.576C118.479 352 119.786 351.347 121.045 350.619C122.327 349.879 123.557 349.063 124.727 348.181C125.901 347.297 127.023 346.336 128.087 345.312C128.131 345.268 128.185 345.245 128.238 345.241C128.295 345.236 128.355 345.249 128.404 345.283L137.66 350.625C138.04 350.844 138.449 350.977 138.861 351.028C139.292 351.085 139.724 351.053 140.132 350.945C140.541 350.836 140.931 350.645 141.276 350.383C141.599 350.137 141.88 349.824 142.099 349.456C144.529 345.547 146.827 341.263 149.147 337.249L149.023 337.175C149.045 337.072 149.063 336.969 149.076 336.865C149.131 336.436 149.101 336.004 148.993 335.597C148.883 335.188 148.693 334.799 148.428 334.455C148.176 334.123 147.857 333.835 147.477 333.616L138.22 328.272C138.173 328.245 138.137 328.201 138.115 328.151C138.092 328.1 138.087 328.041 138.101 327.985L138.341 327.007L138.328 327.004C138.411 326.624 138.488 326.235 138.56 325.844C138.695 325.104 138.808 324.373 138.895 323.659C138.981 322.949 139.048 322.216 139.093 321.463C139.139 320.708 139.163 319.971 139.163 319.249C139.163 318.528 139.139 317.791 139.093 317.036C139.048 316.283 138.981 315.549 138.895 314.835C138.809 314.128 138.697 313.4 138.56 312.652C138.424 311.917 138.271 311.203 138.099 310.512C138.085 310.455 138.092 310.396 138.117 310.34C138.141 310.288 138.183 310.244 138.235 310.219L147.48 304.88C147.861 304.66 148.181 304.373 148.431 304.041C148.693 303.696 148.884 303.305 148.993 302.901C149.101 302.496 149.131 302.064 149.076 301.635C149.025 301.228 148.895 300.828 148.687 300.455C146.483 296.372 143.956 292.257 141.625 288.22L141.493 288.299C141.423 288.235 141.351 288.175 141.276 288.116C140.931 287.855 140.541 287.664 140.132 287.553C139.725 287.445 139.293 287.416 138.864 287.469C138.445 287.523 138.036 287.653 137.661 287.869L136.976 288.263L136.979 288.269L128.393 293.224C128.342 293.255 128.283 293.264 128.229 293.256C128.174 293.251 128.12 293.224 128.082 293.185L128.059 293.161C127.008 292.149 125.888 291.196 124.707 290.305C123.533 289.423 122.31 288.611 121.044 287.88C119.779 287.147 118.464 286.491 117.107 285.915C115.759 285.343 114.375 284.849 112.96 284.444C112.904 284.428 112.857 284.395 112.826 284.353C112.789 284.305 112.768 284.251 112.772 284.195V273.508C112.772 273.072 112.683 272.649 112.523 272.263C112.356 271.863 112.113 271.503 111.811 271.205C111.51 270.907 111.152 270.664 110.755 270.497C110.369 270.337 109.948 270.248 109.513 270.248H96.3973C95.9593 270.248 95.5396 270.337 95.1531 270.497C94.7573 270.664 94.3973 270.907 94.0943 271.205C93.5031 271.797 93.136 272.612 93.136 273.508V284.195C93.136 284.257 93.1151 284.313 93.0833 284.36C93.0489 284.4 92.9984 284.432 92.9396 284.447L92.8973 284.461C91.4735 284.872 90.0969 285.361 88.7751 285.924V285.924ZM93.3855 286.329C92.076 286.707 90.7907 287.168 89.5323 287.703C88.2557 288.247 87.0193 288.863 85.8328 289.551C84.6251 290.249 83.4609 291.021 82.3459 291.861C81.2251 292.707 80.1615 293.615 79.1615 294.58C78.8063 294.92 78.364 295.121 77.9093 295.176C77.4459 295.233 76.9645 295.139 76.5469 294.896C73.4771 293.124 70.2484 291.368 67.2417 289.523C67.0959 289.447 66.9421 289.4 66.7896 289.383C66.6156 289.363 66.4421 289.377 66.276 289.423C66.1063 289.469 65.9448 289.545 65.8052 289.652C65.6735 289.753 65.5563 289.884 65.4667 290.037C63.2287 293.424 60.9817 297.8 58.9099 301.391C58.8203 301.544 58.7672 301.708 58.7453 301.873C58.724 302.044 58.738 302.227 58.786 302.401C58.8312 302.572 58.9084 302.732 59.0136 302.871C59.1167 303.005 59.2464 303.121 59.4005 303.211C62.1631 305.036 65.7197 306.864 68.6489 308.555C69.0781 308.803 69.3912 309.171 69.5708 309.591C69.6333 309.737 69.6797 309.889 69.7088 310.047L69.8989 310.109L69.6855 310.972C69.5183 311.651 69.3708 312.329 69.2469 313.004C69.126 313.661 69.0213 314.351 68.9349 315.068C68.8505 315.767 68.7855 316.461 68.7448 317.147C68.7036 317.817 68.6839 318.52 68.6839 319.249C68.6839 319.979 68.7036 320.681 68.7448 321.349C68.7855 322.036 68.8505 322.731 68.9349 323.431C69.0213 324.148 69.126 324.836 69.2469 325.493C69.3719 326.169 69.5188 326.848 69.686 327.528C69.8104 328.029 69.75 328.533 69.5473 328.971C69.3473 329.404 69.0031 329.768 68.5579 329.996L60.3688 334.725L60.3708 334.729L59.4005 335.289C59.2453 335.377 59.1167 335.495 59.0136 335.628C58.9088 335.765 58.8312 335.927 58.786 336.097C58.738 336.273 58.724 336.455 58.7453 336.628C58.7672 336.791 58.8203 336.956 58.9099 337.108L64.9729 347.615L64.976 347.613L65.4667 348.461C65.5563 348.615 65.6735 348.747 65.8052 348.847C65.9448 348.953 66.1063 349.031 66.276 349.077C66.45 349.123 66.6303 349.137 66.8016 349.115C66.9645 349.095 67.1281 349.04 67.2812 348.952C70.2156 347.109 73.5255 345.349 76.5516 343.603C76.9844 343.357 77.4563 343.272 77.9047 343.325C78.3703 343.38 78.8115 343.584 79.1568 343.916L79.1615 343.92C80.162 344.885 81.2265 345.795 82.3484 346.639C83.4615 347.477 84.6255 348.251 85.8317 348.948C87.0271 349.639 88.2724 350.26 89.5573 350.807C90.8197 351.343 92.1303 351.808 93.4792 352.195C93.9541 352.331 94.3484 352.615 94.626 352.981C94.9079 353.355 95.0683 353.817 95.0693 354.305L95.0724 364.991C95.0724 365.171 95.1073 365.343 95.1719 365.493C95.2375 365.652 95.338 365.8 95.4636 365.924C95.5849 366.049 95.7328 366.148 95.8948 366.217C96.0473 366.28 96.2167 366.316 96.3973 366.316H109.513C109.691 366.316 109.86 366.28 110.014 366.217C110.177 366.148 110.325 366.049 110.447 365.927C110.57 365.8 110.671 365.652 110.737 365.493C110.801 365.343 110.836 365.171 110.836 364.991V354.303C110.836 353.795 111.014 353.323 111.311 352.948C111.613 352.565 112.039 352.283 112.523 352.169C113.831 351.792 115.117 351.332 116.375 350.796C117.652 350.252 118.888 349.635 120.077 348.948C121.283 348.251 122.448 347.477 123.561 346.639C124.682 345.795 125.746 344.885 126.747 343.919C127.119 343.564 127.586 343.361 128.065 343.319C128.552 343.275 129.051 343.392 129.471 343.672L138.62 348.953C138.772 349.04 138.937 349.095 139.105 349.116C139.277 349.139 139.457 349.123 139.633 349.077C139.803 349.031 139.963 348.953 140.103 348.847C140.236 348.747 140.352 348.616 140.443 348.461C142.615 344.671 144.823 340.896 146.999 337.107C147.087 336.955 147.141 336.791 147.163 336.624C147.184 336.452 147.169 336.272 147.124 336.097C147.077 335.925 147 335.764 146.895 335.627C146.796 335.489 146.667 335.375 146.517 335.289L137.26 329.944C136.831 329.699 136.517 329.329 136.337 328.909C136.288 328.796 136.251 328.679 136.221 328.557L135.98 328.508L136.223 327.528C136.391 326.849 136.537 326.169 136.661 325.495C136.781 324.837 136.887 324.148 136.973 323.431C137.059 322.731 137.124 322.036 137.164 321.349C137.204 320.68 137.225 319.979 137.225 319.249C137.225 318.52 137.204 317.819 137.164 317.149C137.124 316.465 137.06 315.768 136.975 315.071C136.885 314.344 136.781 313.653 136.661 313.001C136.537 312.327 136.391 311.648 136.223 310.972C136.099 310.468 136.16 309.96 136.361 309.527C136.565 309.093 136.908 308.729 137.347 308.504L146.512 303.211C146.664 303.127 146.792 303.009 146.895 302.872C147 302.739 147.077 302.577 147.124 302.401C147.169 302.227 147.184 302.048 147.163 301.876C147.141 301.709 147.087 301.545 146.999 301.392C144.76 298.064 142.519 293.617 140.443 290.037C140.352 289.884 140.236 289.753 140.103 289.652C139.965 289.547 139.803 289.469 139.633 289.423C139.457 289.376 139.277 289.361 139.107 289.383C138.944 289.404 138.779 289.459 138.621 289.549L129.36 294.895C128.924 295.149 128.435 295.235 127.972 295.172C127.506 295.108 127.064 294.895 126.719 294.553C125.714 293.584 124.654 292.681 123.549 291.849C122.449 291.021 121.289 290.252 120.076 289.551C118.88 288.861 117.636 288.239 116.351 287.693C115.088 287.156 113.779 286.692 112.43 286.305C111.955 286.168 111.56 285.885 111.282 285.517C111.001 285.144 110.84 284.681 110.84 284.195L110.836 273.508C110.836 273.328 110.801 273.157 110.737 273.007C110.671 272.848 110.57 272.7 110.445 272.576C110.325 272.451 110.177 272.352 110.014 272.283C109.86 272.22 109.691 272.185 109.513 272.185H96.3973C96.2167 272.185 96.0473 272.22 95.8948 272.283C95.7328 272.351 95.5849 272.451 95.4609 272.573C95.2219 272.816 95.0724 273.147 95.0724 273.508V284.195C95.0724 284.707 94.8953 285.179 94.6011 285.552C94.2948 285.935 93.8697 286.216 93.3855 286.329V286.329ZM95.6959 301.713C93.3823 302.672 91.2943 304.084 89.5407 305.836C87.7875 307.588 86.3771 309.677 85.4183 311.992C84.4932 314.223 83.9839 316.675 83.9839 319.249C83.9839 321.824 84.4932 324.276 85.4183 326.508C86.3776 328.821 87.7875 330.911 89.5407 332.663C91.2927 334.416 93.3823 335.825 95.6969 336.785C97.9276 337.709 100.38 338.22 102.954 338.22C105.527 338.22 107.978 337.709 110.208 336.785C112.526 335.827 114.615 334.416 116.368 332.663C118.12 330.911 119.532 328.821 120.49 326.508C121.414 324.276 121.925 321.824 121.925 319.249C121.925 316.675 121.414 314.223 120.49 311.992C119.532 309.677 118.122 307.588 116.368 305.836C114.615 304.084 112.526 302.672 110.211 301.713C107.981 300.789 105.531 300.279 102.954 300.279C100.38 300.279 97.9276 300.789 95.6959 301.713ZM88.1703 304.467C90.0943 302.543 92.3979 300.989 94.9625 299.928C97.4292 298.907 100.128 298.343 102.954 298.343C105.78 298.343 108.479 298.907 110.945 299.928C113.51 300.989 115.815 302.543 117.738 304.467C119.661 306.389 121.214 308.695 122.276 311.259C123.297 313.724 123.86 316.423 123.86 319.249C123.86 322.076 123.297 324.775 122.276 327.243C121.214 329.805 119.661 332.109 117.738 334.032C115.816 335.956 113.512 337.507 110.948 338.569C108.484 339.592 105.782 340.156 102.954 340.156C100.128 340.156 97.4287 339.592 94.9631 338.571C92.3984 337.509 90.0937 335.956 88.1703 334.032C86.2479 332.109 84.6948 329.805 83.6328 327.243C82.6115 324.776 82.0473 322.076 82.0473 319.249C82.0473 316.423 82.6115 313.724 83.6328 311.259C84.6948 308.695 86.2479 306.389 88.1703 304.467" fill="#C4CDEC"/>
<path fill-rule="evenodd" clip-rule="evenodd" d="M463.033 130.592C461.804 130.947 460.639 131.447 459.556 132.073C458.445 132.715 457.421 133.488 456.504 134.372C456.325 134.545 456.06 134.571 455.855 134.452L451.731 132.072L451.709 132.057C451.472 131.931 451.204 131.907 450.957 131.972C450.703 132.039 450.476 132.203 450.336 132.447L450.319 132.473L447.417 137.499C447.277 137.741 447.251 138.021 447.317 138.275C447.385 138.528 447.549 138.756 447.792 138.896L447.82 138.915L451.911 141.275C452.124 141.399 452.223 141.645 452.167 141.875V141.876C452.017 142.483 451.901 143.109 451.824 143.751C451.748 144.375 451.708 145.013 451.708 145.663C451.708 146.311 451.748 146.951 451.824 147.573C451.901 148.213 452.017 148.84 452.168 149.449C452.231 149.701 452.104 149.956 451.881 150.068L447.792 152.428C447.549 152.569 447.385 152.797 447.317 153.049C447.251 153.304 447.277 153.584 447.417 153.825L450.335 158.879H450.336C450.476 159.121 450.703 159.285 450.957 159.355C451.211 159.42 451.489 159.393 451.731 159.253L451.763 159.237L455.857 156.872C456.071 156.751 456.333 156.788 456.504 156.952C457.421 157.836 458.444 158.609 459.556 159.251C460.644 159.881 461.819 160.383 463.056 160.74C463.296 160.807 463.452 161.027 463.453 161.263V166.02C463.453 166.3 463.568 166.555 463.752 166.74C463.939 166.924 464.193 167.04 464.473 167.04H470.311C470.591 167.04 470.844 166.924 471.029 166.74C471.217 166.555 471.331 166.3 471.331 166.02V161.263C471.331 161.007 471.509 160.789 471.749 160.733C472.98 160.377 474.145 159.876 475.227 159.251C476.336 158.609 477.361 157.836 478.279 156.952C478.465 156.772 478.747 156.752 478.955 156.889L483.051 159.253C483.292 159.393 483.572 159.42 483.827 159.355C484.08 159.285 484.307 159.121 484.447 158.879L484.464 158.851L487.368 153.824L487.365 153.823C487.505 153.583 487.533 153.304 487.467 153.049C487.397 152.796 487.233 152.568 486.993 152.428L482.873 150.051C482.66 149.927 482.56 149.679 482.616 149.449H482.615C482.767 148.84 482.883 148.215 482.957 147.575C483.036 146.951 483.075 146.312 483.075 145.663C483.075 145.013 483.036 144.373 482.957 143.751C482.883 143.109 482.767 142.483 482.615 141.876C482.552 141.623 482.679 141.367 482.903 141.257L486.993 138.896C487.233 138.757 487.397 138.529 487.467 138.275C487.533 138.023 487.505 137.743 487.365 137.5L487.349 137.471L484.448 132.445L484.447 132.447C484.307 132.203 484.08 132.039 483.827 131.972C483.572 131.905 483.295 131.932 483.053 132.071V132.072L478.928 134.452C478.711 134.58 478.437 134.535 478.268 134.361C477.353 133.481 476.333 132.712 475.227 132.073C474.139 131.444 472.963 130.94 471.725 130.585C471.488 130.516 471.332 130.3 471.331 130.063V125.305C471.331 125.025 471.217 124.771 471.029 124.585C470.844 124.4 470.591 124.285 470.311 124.285H464.473C464.193 124.285 463.939 124.4 463.752 124.585C463.568 124.771 463.453 125.025 463.453 125.305V130.063C463.453 130.32 463.275 130.536 463.033 130.592V130.592ZM461.116 139.388C462.723 137.781 464.941 136.789 467.391 136.789C469.841 136.789 472.059 137.781 473.667 139.388C475.273 140.993 476.265 143.212 476.265 145.663C476.265 148.113 475.273 150.332 473.667 151.937C472.059 153.543 469.841 154.536 467.391 154.536C464.941 154.536 462.723 153.543 461.116 151.937C459.511 150.332 458.517 148.113 458.517 145.663C458.517 143.212 459.511 140.993 461.116 139.388Z" fill="#C4CDEC"/>
<path fill-rule="evenodd" clip-rule="evenodd" d="M895.584 299.476C894.355 299.831 893.188 300.332 892.107 300.957C890.997 301.599 889.972 302.373 889.055 303.257C888.875 303.429 888.609 303.455 888.404 303.336L884.281 300.956L884.26 300.943C884.024 300.813 883.755 300.791 883.508 300.857C883.252 300.924 883.027 301.088 882.885 301.331L882.867 301.359L879.969 306.383C879.828 306.625 879.8 306.905 879.867 307.159C879.937 307.415 880.101 307.64 880.344 307.78L880.369 307.799L884.461 310.159C884.675 310.283 884.773 310.531 884.719 310.76C884.568 311.368 884.451 311.995 884.372 312.636C884.3 313.259 884.26 313.897 884.26 314.547C884.26 315.195 884.3 315.833 884.372 316.459C884.451 317.099 884.568 317.724 884.719 318.333C884.779 318.585 884.656 318.84 884.429 318.952L880.344 321.311V321.312C880.101 321.453 879.937 321.681 879.867 321.933C879.8 322.188 879.828 322.468 879.969 322.711L882.885 327.763C883.027 328.005 883.252 328.169 883.508 328.237C883.76 328.305 884.039 328.277 884.281 328.139L884.312 328.121L888.407 325.756C888.623 325.635 888.885 325.673 889.055 325.836C889.972 326.72 890.995 327.493 892.107 328.137C893.195 328.765 894.367 329.267 895.607 329.623C895.847 329.692 896.003 329.912 896.003 330.148V334.904C896.003 335.184 896.12 335.439 896.305 335.624C896.489 335.809 896.745 335.924 897.024 335.924H902.861C903.14 335.924 903.393 335.809 903.581 335.624C903.765 335.439 903.883 335.184 903.883 334.904V330.148C903.883 329.891 904.06 329.673 904.3 329.616C905.528 329.261 906.697 328.761 907.779 328.137C908.888 327.493 909.912 326.72 910.831 325.836C911.016 325.656 911.3 325.636 911.508 325.773L915.601 328.139C915.844 328.279 916.123 328.305 916.377 328.237C916.631 328.169 916.857 328.005 916.997 327.763L917.016 327.735L919.917 322.708V322.707C920.055 322.467 920.085 322.188 920.016 321.933C919.948 321.68 919.784 321.452 919.544 321.312L915.424 318.935C915.208 318.811 915.109 318.563 915.167 318.333C915.317 317.724 915.432 317.099 915.511 316.46C915.585 315.835 915.625 315.196 915.625 314.547C915.625 313.897 915.585 313.259 915.511 312.635C915.432 311.995 915.317 311.368 915.167 310.76C915.104 310.507 915.229 310.252 915.453 310.141L919.544 307.78C919.784 307.641 919.948 307.415 920.016 307.159C920.085 306.907 920.055 306.628 919.917 306.385L919.899 306.355L917 301.329V301.331C916.857 301.088 916.631 300.924 916.377 300.857C916.123 300.788 915.844 300.815 915.601 300.955V300.956L911.479 303.336C911.26 303.464 910.987 303.419 910.817 303.247C909.904 302.365 908.885 301.596 907.779 300.957C906.688 300.328 905.516 299.824 904.276 299.471C904.039 299.401 903.883 299.184 903.883 298.945V294.189C903.883 293.909 903.765 293.655 903.581 293.469C903.393 293.284 903.14 293.169 902.861 293.169H897.024C896.745 293.169 896.489 293.284 896.305 293.469C896.12 293.655 896.003 293.909 896.003 294.189V298.945C896.003 299.204 895.825 299.419 895.584 299.476V299.476ZM893.667 308.272C895.273 306.667 897.492 305.673 899.943 305.673C902.393 305.673 904.609 306.667 906.216 308.272C907.82 309.877 908.815 312.096 908.815 314.547C908.815 316.997 907.82 319.216 906.216 320.821C904.609 322.427 902.393 323.42 899.943 323.42C897.492 323.42 895.273 322.427 893.667 320.821C892.063 319.216 891.071 316.997 891.071 314.547C891.071 312.096 892.063 309.877 893.667 308.272Z" fill="#C4CDEC"/>
<path fill-rule="evenodd" clip-rule="evenodd" d="M927.096 360.603C927.096 359.764 926.415 359.083 925.576 359.083C924.735 359.083 924.055 359.764 924.055 360.603V364.184H920.473C919.633 364.184 918.953 364.864 918.953 365.704C918.953 366.545 919.633 367.228 920.473 367.228H924.055V370.805C924.055 371.647 924.735 372.328 925.576 372.328C926.415 372.328 927.096 371.647 927.096 370.805V367.228H930.675C931.516 367.228 932.197 366.545 932.197 365.704C932.197 364.864 931.516 364.184 930.675 364.184H927.096V360.603Z" fill="#A3B1DE"/>
<path fill-rule="evenodd" clip-rule="evenodd" d="M598.481 341.967H507.792C504.503 341.967 501.807 344.659 501.807 347.952C501.807 351.244 504.503 353.937 507.792 353.937H598.481C601.776 353.937 604.469 351.244 604.469 347.952C604.469 344.659 601.776 341.967 598.481 341.967Z" fill="#131314"/>
<path fill-rule="evenodd" clip-rule="evenodd" d="M595.445 299.303C581.456 299.303 567.467 299.303 553.476 299.303C553.131 299.303 552.807 299.584 552.76 299.929L545.237 353.309C545.191 353.653 545.432 353.937 545.779 353.937C578.268 353.937 570.653 353.937 603.145 353.937C603.492 353.937 603.732 353.653 603.685 353.309L596.161 299.929C596.112 299.584 595.792 299.303 595.445 299.303Z" fill="#363A5C"/>
<path fill-rule="evenodd" clip-rule="evenodd" d="M620.617 341.967H529.929C526.636 341.967 523.943 344.659 523.943 347.952C523.943 351.244 526.636 353.937 529.929 353.937H620.617C623.909 353.937 626.604 351.244 626.604 347.952C626.604 344.659 623.909 341.967 620.617 341.967Z" fill="#363A5C"/>
<path fill-rule="evenodd" clip-rule="evenodd" d="M666.263 181.697H465.209C463.504 181.697 462.109 183.092 462.109 184.797V319.251C462.109 320.956 463.504 322.351 465.209 322.351H666.263C667.969 322.351 669.361 320.956 669.361 319.251V184.797C669.361 183.092 667.969 181.697 666.263 181.697Z" fill="#131314"/>
<path fill-rule="evenodd" clip-rule="evenodd" d="M676.091 181.697H475.037C473.333 181.697 471.939 183.092 471.939 184.797V319.251C471.939 320.956 473.333 322.351 475.037 322.351H676.091C677.797 322.351 679.193 320.956 679.193 319.251V184.797C679.193 183.092 677.797 181.697 676.091 181.697Z" fill="#363A5C"/>
<path fill-rule="evenodd" clip-rule="evenodd" d="M674.415 183.715H476.719C475.589 183.715 474.664 184.641 474.664 185.768V307.003C474.664 307.708 475.239 308.281 475.943 308.281H675.188C675.893 308.281 676.467 307.708 676.467 307.003V185.768C676.467 184.641 675.541 183.715 674.415 183.715Z" fill="#161B31"/>
<path fill-rule="evenodd" clip-rule="evenodd" d="M670.659 189.524V302.475H480.472V189.524H670.659Z" fill="#66C0BB"/>
<path fill-rule="evenodd" clip-rule="evenodd" d="M557.943 327.884L555.959 341.967H546.836L549.599 322.351H596.669H599.32L600.013 327.255C599.131 327.255 598.245 327.255 597.361 327.255C584.461 327.255 571.56 327.255 558.659 327.255C558.312 327.255 557.992 327.537 557.943 327.884" fill="#161B31"/>
<path fill-rule="evenodd" clip-rule="evenodd" d="M480.469 196.02H671.315V189.524H480.469V196.02Z" fill="white"/>
<path fill-rule="evenodd" clip-rule="evenodd" d="M480.469 302.475H671.315V295.977H480.469V302.475Z" fill="white"/>
<path fill-rule="evenodd" clip-rule="evenodd" d="M481.667 194.64H529.596V190.903H481.667V194.64Z" fill="#E7E2EB"/>
<path fill-rule="evenodd" clip-rule="evenodd" d="M527.297 193.588C527.748 193.588 528.115 193.223 528.115 192.771C528.115 192.32 527.748 191.952 527.297 191.952C526.847 191.952 526.479 192.32 526.479 192.771C526.479 193.223 526.847 193.588 527.297 193.588Z" fill="#D83840"/>
<path fill-rule="evenodd" clip-rule="evenodd" d="M524.805 193.588C525.255 193.588 525.625 193.223 525.625 192.771C525.625 192.32 525.255 191.952 524.805 191.952C524.355 191.952 523.987 192.32 523.987 192.771C523.987 193.223 524.355 193.588 524.805 193.588Z" fill="#D83840"/>
<path fill-rule="evenodd" clip-rule="evenodd" d="M522.312 193.588C522.763 193.588 523.133 193.223 523.133 192.771C523.133 192.32 522.763 191.952 522.312 191.952C521.861 191.952 521.495 192.32 521.495 192.771C521.495 193.223 521.861 193.588 522.312 193.588Z" fill="#D83840"/>
<path fill-rule="evenodd" clip-rule="evenodd" d="M531.86 194.64H579.789V190.903H531.86V194.64Z" fill="#E7E2EB"/>
<path fill-rule="evenodd" clip-rule="evenodd" d="M577.487 193.588C577.94 193.588 578.307 193.223 578.307 192.771C578.307 192.32 577.94 191.952 577.487 191.952C577.039 191.952 576.669 192.32 576.669 192.771C576.669 193.223 577.039 193.588 577.487 193.588Z" fill="#D83840"/>
<path fill-rule="evenodd" clip-rule="evenodd" d="M574.997 193.588C575.448 193.588 575.815 193.223 575.815 192.771C575.815 192.32 575.448 191.952 574.997 191.952C574.547 191.952 574.177 192.32 574.177 192.771C574.177 193.223 574.547 193.588 574.997 193.588Z" fill="#D83840"/>
<path fill-rule="evenodd" clip-rule="evenodd" d="M572.505 193.588C572.956 193.588 573.325 193.223 573.325 192.771C573.325 192.32 572.956 191.952 572.505 191.952C572.055 191.952 571.688 192.32 571.688 192.771C571.688 193.223 572.055 193.588 572.505 193.588Z" fill="#D83840"/>
<path d="M502.527 266.322H498.553V259.194H502.527V259.93H499.382V262.226H502.337V262.958H499.382V265.581H502.527V266.322ZM504.94 263.357V266.322H504.111V259.194H506.066C506.941 259.194 507.586 259.361 508.002 259.696C508.421 260.031 508.631 260.534 508.631 261.207C508.631 262.15 508.153 262.787 507.198 263.118L509.133 266.322H508.153L506.427 263.357H504.94ZM504.94 262.645H506.076C506.661 262.645 507.09 262.53 507.363 262.299C507.636 262.065 507.773 261.716 507.773 261.251C507.773 260.78 507.633 260.44 507.354 260.232C507.077 260.024 506.632 259.92 506.018 259.92H504.94V262.645ZM511.113 263.357V266.322H510.284V259.194H512.239C513.113 259.194 513.758 259.361 514.174 259.696C514.594 260.031 514.803 260.534 514.803 261.207C514.803 262.15 514.326 262.787 513.37 263.118L515.306 266.322H514.326L512.6 263.357H511.113ZM511.113 262.645H512.249C512.834 262.645 513.263 262.53 513.536 262.299C513.809 262.065 513.945 261.716 513.945 261.251C513.945 260.78 513.806 260.44 513.526 260.232C513.25 260.024 512.804 259.92 512.19 259.92H511.113V262.645ZM522.643 262.748C522.643 263.889 522.354 264.786 521.775 265.439C521.2 266.092 520.399 266.419 519.372 266.419C518.322 266.419 517.511 266.099 516.939 265.459C516.37 264.815 516.086 263.908 516.086 262.738C516.086 261.578 516.372 260.679 516.944 260.042C517.516 259.402 518.328 259.081 519.382 259.081C520.405 259.081 521.205 259.407 521.78 260.057C522.356 260.707 522.643 261.604 522.643 262.748ZM516.963 262.748C516.963 263.713 517.168 264.446 517.578 264.947C517.99 265.444 518.588 265.693 519.372 265.693C520.162 265.693 520.758 265.444 521.161 264.947C521.564 264.449 521.766 263.716 521.766 262.748C521.766 261.789 521.564 261.063 521.161 260.569C520.761 260.071 520.168 259.823 519.382 259.823C518.592 259.823 517.99 260.073 517.578 260.573C517.168 261.071 516.963 261.796 516.963 262.748ZM525.066 263.357V266.322H524.238V259.194H526.193C527.067 259.194 527.712 259.361 528.128 259.696C528.548 260.031 528.757 260.534 528.757 261.207C528.757 262.15 528.279 262.787 527.324 263.118L529.259 266.322H528.279L526.553 263.357H525.066ZM525.066 262.645H526.202C526.787 262.645 527.217 262.53 527.49 262.299C527.763 262.065 527.899 261.716 527.899 261.251C527.899 260.78 527.759 260.44 527.48 260.232C527.204 260.024 526.758 259.92 526.144 259.92H525.066V262.645Z" fill="white"/>
<path d="M548.153 241.052H554.293V246.775H548.153V259.586H541.444V246.775H520.598V242.644L541.103 204.401H548.153V241.052ZM528.027 241.052H541.444V214.824L528.027 241.052ZM590.603 236.049C590.603 244.185 589.415 250.275 587.04 254.318C584.665 258.335 580.938 260.344 575.859 260.344C570.932 260.344 567.255 258.411 564.83 254.545C562.404 250.679 561.14 244.868 561.039 237.11V227.635C561.039 219.574 562.227 213.561 564.602 209.593C567.003 205.626 570.73 203.643 575.783 203.643C580.761 203.643 584.437 205.525 586.813 209.29C589.213 213.055 590.477 218.753 590.603 226.384V236.049ZM583.894 226.46C583.894 220.623 583.25 216.327 581.961 213.573C580.673 210.794 578.613 209.404 575.783 209.404C573.029 209.404 571.008 210.768 569.719 213.497C568.43 216.201 567.761 220.294 567.71 225.778V237.148C567.71 242.96 568.38 247.331 569.719 250.262C571.058 253.168 573.105 254.621 575.859 254.621C578.588 254.621 580.597 253.244 581.885 250.49C583.174 247.735 583.844 243.528 583.894 237.868V226.46ZM624.866 241.052H631.006V246.775H624.866V259.586H618.158V246.775H597.312V242.644L617.816 204.401H624.866V241.052ZM604.74 241.052H618.158V214.824L604.74 241.052Z" fill="white"/>
<path fill-rule="evenodd" clip-rule="evenodd" d="M549.8 290.937H572.5V283.371H549.8V290.937Z" fill="white"/>
<path fill-rule="evenodd" clip-rule="evenodd" d="M578.631 290.937H601.331V283.371H578.631V290.937Z" fill="white"/>
<path d="M555.047 288.362V289.35H554.771V286.974H555.422C555.714 286.974 555.929 287.03 556.068 287.142C556.207 287.253 556.277 287.421 556.277 287.646C556.277 287.96 556.118 288.172 555.799 288.283L556.445 289.35H556.118L555.543 288.362H555.047ZM555.047 288.125H555.426C555.621 288.125 555.764 288.086 555.855 288.01C555.946 287.932 555.991 287.815 555.991 287.66C555.991 287.503 555.945 287.39 555.851 287.32C555.759 287.251 555.611 287.216 555.406 287.216H555.047V288.125ZM558.153 289.35H556.828V286.974H558.153V287.22H557.104V287.985H558.089V288.229H557.104V289.103H558.153V289.35ZM558.681 289.35V286.974H558.957V289.1H560.005V289.35H558.681ZM562.472 288.159C562.472 288.539 562.376 288.838 562.183 289.056C561.991 289.274 561.724 289.383 561.382 289.383C561.032 289.383 560.762 289.276 560.571 289.063C560.381 288.848 560.286 288.546 560.286 288.156C560.286 287.769 560.382 287.469 560.573 287.257C560.763 287.044 561.034 286.937 561.385 286.937C561.726 286.937 561.993 287.045 562.185 287.262C562.376 287.479 562.472 287.778 562.472 288.159ZM560.579 288.159C560.579 288.481 560.647 288.725 560.784 288.892C560.921 289.058 561.121 289.141 561.382 289.141C561.645 289.141 561.844 289.058 561.978 288.892C562.113 288.726 562.18 288.482 562.18 288.159C562.18 287.839 562.113 287.597 561.978 287.433C561.845 287.267 561.647 287.184 561.385 287.184C561.122 287.184 560.921 287.267 560.784 287.434C560.647 287.6 560.579 287.842 560.579 288.159ZM564.497 289.35L564.202 288.595H563.249L562.957 289.35H562.677L563.616 286.965H563.849L564.783 289.35H564.497ZM564.115 288.346L563.839 287.61C563.803 287.517 563.767 287.402 563.729 287.267C563.705 287.371 563.671 287.485 563.626 287.61L563.347 288.346H564.115ZM567.007 288.14C567.007 288.532 566.9 288.832 566.686 289.04C566.474 289.247 566.168 289.35 565.768 289.35H565.11V286.974H565.838C566.208 286.974 566.495 287.077 566.699 287.281C566.904 287.486 567.007 287.772 567.007 288.14ZM566.714 288.149C566.714 287.839 566.636 287.606 566.48 287.449C566.325 287.292 566.094 287.213 565.788 287.213H565.386V289.111H565.723C566.052 289.111 566.3 289.031 566.465 288.869C566.631 288.707 566.714 288.467 566.714 288.149ZM569.342 289.35H569.066V288.232H567.814V289.35H567.538V286.974H567.814V287.985H569.066V286.974H569.342V289.35ZM572.058 288.159C572.058 288.539 571.961 288.838 571.768 289.056C571.577 289.274 571.31 289.383 570.967 289.383C570.617 289.383 570.347 289.276 570.156 289.063C569.967 288.848 569.872 288.546 569.872 288.156C569.872 287.769 569.967 287.469 570.158 287.257C570.348 287.044 570.619 286.937 570.97 286.937C571.312 286.937 571.578 287.045 571.77 287.262C571.962 287.479 572.058 287.778 572.058 288.159ZM570.164 288.159C570.164 288.481 570.233 288.725 570.369 288.892C570.507 289.058 570.706 289.141 570.967 289.141C571.23 289.141 571.429 289.058 571.564 288.892C571.698 288.726 571.765 288.482 571.765 288.159C571.765 287.839 571.698 287.597 571.564 287.433C571.43 287.267 571.233 287.184 570.97 287.184C570.707 287.184 570.507 287.267 570.369 287.434C570.233 287.6 570.164 287.842 570.164 288.159ZM573.641 289.35L572.834 287.244H572.821C572.837 287.411 572.844 287.609 572.844 287.839V289.35H572.589V286.974H573.005L573.758 288.934H573.771L574.53 286.974H574.942V289.35H574.666V287.819C574.666 287.644 574.674 287.453 574.689 287.247H574.676L573.863 289.35H573.641ZM576.92 289.35H575.596V286.974H576.92V287.22H575.872V287.985H576.857V288.229H575.872V289.103H576.92V289.35Z" fill="#D83840"/>
<path fill-rule="evenodd" clip-rule="evenodd" d="M495.137 271.195H655.992C656.555 271.195 657.016 271.656 657.016 272.217C657.016 272.783 656.555 273.243 655.992 273.243H495.137C494.575 273.243 494.113 272.783 494.113 272.217C494.113 271.656 494.575 271.195 495.137 271.195Z" fill="white"/>
<path fill-rule="evenodd" clip-rule="evenodd" d="M507.74 276.041H643.391C643.953 276.041 644.415 276.503 644.415 277.065C644.415 277.628 643.953 278.088 643.391 278.088H507.74C507.177 278.088 506.716 277.628 506.716 277.065C506.716 276.503 507.177 276.041 507.74 276.041Z" fill="white"/>
<path fill-rule="evenodd" clip-rule="evenodd" d="M574.153 335.976H692.052C698.639 335.976 704.028 341.364 704.028 347.952C704.028 354.537 698.639 359.927 692.052 359.927H574.153C567.571 359.927 562.18 354.537 562.18 347.952C562.18 341.364 567.571 335.976 574.153 335.976Z" fill="#161B31"/>
<path fill-rule="evenodd" clip-rule="evenodd" d="M551.651 335.976H606.257C612.841 335.976 618.232 341.364 618.232 347.952C618.232 354.537 612.841 359.927 606.257 359.927H551.651C545.065 359.927 539.675 354.537 539.675 347.952C539.675 341.364 545.065 335.976 551.651 335.976Z" fill="#161620"/>
<path fill-rule="evenodd" clip-rule="evenodd" d="M490.763 355.565H856.352C860.039 355.565 863.055 358.583 863.055 362.268V393.551C863.055 397.235 860.039 400.252 856.352 400.252H490.763C487.076 400.252 484.06 397.235 484.06 393.551V362.268C484.06 358.583 487.076 355.565 490.763 355.565Z" fill="#161B31"/>
<path fill-rule="evenodd" clip-rule="evenodd" d="M490.577 355.565H856.536C860.123 355.565 863.055 358.583 863.055 362.268V374.572C863.055 378.259 860.123 381.273 856.536 381.273H490.577C486.992 381.273 484.06 378.259 484.06 374.572V362.268C484.06 358.583 486.992 355.565 490.577 355.565Z" fill="#131314"/>
<path fill-rule="evenodd" clip-rule="evenodd" d="M390.304 356.121H491.455C495.277 356.121 498.405 359.251 498.405 363.068V593.451C498.405 597.268 495.277 600.398 491.455 600.398H390.304C386.481 600.398 383.355 597.268 383.355 593.451V363.068C383.355 359.251 386.481 356.121 390.304 356.121" fill="#131314"/>
<path fill-rule="evenodd" clip-rule="evenodd" d="M490.204 356.121H580.752C584.172 356.121 586.972 358.917 586.972 362.341V594.177C586.972 597.601 584.172 600.398 580.752 600.398H490.204C486.78 600.398 483.983 597.601 483.983 594.177V362.341C483.983 358.917 486.78 356.121 490.204 356.121Z" fill="#161B31"/>
<path fill-rule="evenodd" clip-rule="evenodd" d="M486.344 347.952H878.695C879.953 347.952 880.979 348.979 880.979 350.236V360.896C880.979 362.152 879.953 363.18 878.695 363.18H486.344C485.087 363.18 484.06 362.152 484.06 360.896V350.236C484.06 348.979 485.087 347.952 486.344 347.952Z" fill="#D47A40"/>
<path fill-rule="evenodd" clip-rule="evenodd" d="M373.8 347.952H485.816C487.073 347.952 488.1 348.979 488.1 350.236V360.896C488.1 362.152 487.073 363.18 485.816 363.18H373.8C372.544 363.18 371.516 362.152 371.516 360.896V350.236C371.516 348.979 372.544 347.952 373.8 347.952Z" fill="#B35D37"/>
<path fill-rule="evenodd" clip-rule="evenodd" d="M496.876 370.888H574.079C576.929 370.888 579.265 373.221 579.265 376.073V435.917C579.265 438.768 576.929 441.103 574.079 441.103H496.876C494.023 441.103 491.688 438.768 491.688 435.917V376.073C491.688 373.221 494.023 370.888 496.876 370.888Z" fill="white"/>
<path fill-rule="evenodd" clip-rule="evenodd" d="M579.205 436.692H503.055C501.024 436.692 499.256 435.508 498.405 433.797C498.06 433.104 497.868 432.325 497.868 431.504V371.661C497.868 371.399 497.888 371.139 497.927 370.888H496.876C494.023 370.888 491.688 373.221 491.688 376.073V435.917C491.688 438.768 494.023 441.103 496.876 441.103H498.405H574.079C576.667 441.103 578.828 439.18 579.205 436.692" fill="#E7E2EB"/>
<path fill-rule="evenodd" clip-rule="evenodd" d="M516.847 375.028H554.107C555.208 375.028 556.109 375.928 556.109 377.031V377.661C556.109 378.761 555.208 379.664 554.107 379.664H516.847C515.745 379.664 514.844 378.761 514.844 377.661V377.031C514.844 375.928 515.745 375.028 516.847 375.028" fill="#161620"/>
<path fill-rule="evenodd" clip-rule="evenodd" d="M496.876 444.821H574.079C576.929 444.821 579.265 447.155 579.265 450.009V509.852C579.265 512.703 576.929 515.039 574.079 515.039H496.876C494.023 515.039 491.688 512.703 491.688 509.852V450.009C491.688 447.155 494.023 444.821 496.876 444.821Z" fill="white"/>
<path fill-rule="evenodd" clip-rule="evenodd" d="M579.205 510.624H503.055C501.024 510.624 499.256 509.444 498.405 507.731C498.06 507.037 497.868 506.261 497.868 505.437V445.593C497.868 445.332 497.888 445.075 497.927 444.821H496.876C494.023 444.821 491.688 447.155 491.688 450.009V509.852C491.688 512.703 494.023 515.039 496.876 515.039H498.405H574.079C576.667 515.039 578.828 513.115 579.205 510.624" fill="#E7E2EB"/>
<path fill-rule="evenodd" clip-rule="evenodd" d="M516.847 448.963H554.107C555.208 448.963 556.109 449.864 556.109 450.965V451.593C556.109 452.695 555.208 453.596 554.107 453.596H516.847C515.745 453.596 514.844 452.695 514.844 451.593V450.965C514.844 449.864 515.745 448.963 516.847 448.963" fill="#161620"/>
<path fill-rule="evenodd" clip-rule="evenodd" d="M496.876 518.755H574.079C576.929 518.755 579.265 521.089 579.265 523.944V583.785C579.265 586.639 576.929 588.972 574.079 588.972H496.876C494.023 588.972 491.688 586.639 491.688 583.785V523.944C491.688 521.089 494.023 518.755 496.876 518.755" fill="white"/>
<path fill-rule="evenodd" clip-rule="evenodd" d="M579.205 584.56H503.055C501.024 584.56 499.256 583.376 498.405 581.667C498.06 580.973 497.868 580.195 497.868 579.371V519.529C497.868 519.265 497.888 519.009 497.927 518.755H496.876C494.023 518.755 491.688 521.089 491.688 523.944V583.785C491.688 586.639 494.023 588.972 496.876 588.972H498.405H574.079C576.667 588.972 578.828 587.049 579.205 584.56" fill="#E7E2EB"/>
<path fill-rule="evenodd" clip-rule="evenodd" d="M516.847 522.897H554.107C555.208 522.897 556.109 523.797 556.109 524.899V525.529C556.109 526.632 555.208 527.531 554.107 527.531H516.847C515.745 527.531 514.844 526.632 514.844 525.529V524.899C514.844 523.797 515.745 522.897 516.847 522.897" fill="#161620"/>
<path fill-rule="evenodd" clip-rule="evenodd" d="M801.648 356.121H787.683C787.344 356.121 787.065 356.397 787.065 356.739V602.736C787.065 603.077 787.344 603.356 787.683 603.356H801.648C801.989 603.356 802.268 603.077 802.268 602.736V356.739C802.268 356.397 801.989 356.121 801.648 356.121Z" fill="#ADA7BA"/>
<path fill-rule="evenodd" clip-rule="evenodd" d="M801.505 356.121H797.151C795.437 356.121 794.033 357.523 794.033 359.236V600.24C794.033 601.952 795.437 603.356 797.151 603.356H801.505C803.219 603.356 804.623 601.952 804.623 600.24V359.236C804.623 357.523 803.219 356.121 801.505 356.121Z" fill="white"/>
<path fill-rule="evenodd" clip-rule="evenodd" d="M867.044 356.121H853.079C852.737 356.121 852.461 356.397 852.461 356.739V602.736C852.461 603.077 852.737 603.356 853.079 603.356H867.044C867.383 603.356 867.664 603.077 867.664 602.736V356.739C867.664 356.397 867.383 356.121 867.044 356.121Z" fill="#ADA7BA"/>
<path fill-rule="evenodd" clip-rule="evenodd" d="M866.899 356.121H862.544C860.831 356.121 859.429 357.523 859.429 359.236V600.24C859.429 601.952 860.831 603.356 862.544 603.356H866.899C868.615 603.356 870.016 601.952 870.016 600.24V359.236C870.016 357.523 868.615 356.121 866.899 356.121Z" fill="white"/>
<path fill-rule="evenodd" clip-rule="evenodd" d="M650.891 347.952H878.695C879.953 347.952 880.979 348.979 880.979 350.236V360.896C880.979 362.152 879.953 363.18 878.695 363.18H665.724C661.648 357.595 656.407 352.471 650.891 347.952Z" fill="#B35D37"/>
<path fill-rule="evenodd" clip-rule="evenodd" d="M733.615 281.849L736.476 286.633C736.476 286.633 737.588 292.44 735.932 296.415C734.279 300.385 754.912 304.689 754.912 304.689L770.909 291.777L774.44 287.364C774.44 287.364 766.937 279.199 766.495 275.668C766.055 272.139 733.615 281.849 733.615 281.849" fill="#ED6055"/>
<path fill-rule="evenodd" clip-rule="evenodd" d="M697.969 327.591C697.969 327.591 687.156 336.307 683.404 336.969C679.653 337.632 663.216 330.019 659.904 329.136C656.596 328.252 649.203 328.252 644.016 328.252C638.831 328.252 633.312 330.239 630.555 335.976C630.555 335.976 638.612 335.976 641.588 335.976C644.568 335.976 654.609 344.139 664.317 350.76C674.028 357.38 681.751 362.899 688.153 362.236C694.552 361.572 716.62 345.023 716.62 345.023L697.969 327.591" fill="#F4A072"/>
<path fill-rule="evenodd" clip-rule="evenodd" d="M664.317 350.76C674.028 357.38 681.751 362.899 688.153 362.236C694.552 361.572 716.62 345.023 716.62 345.023L697.969 327.591C697.969 327.591 695.468 329.604 692.46 331.768C700.317 344.252 696.775 349.645 687.556 353.333C680.164 356.291 661.365 346.016 649.547 340.275C653.805 343.216 659.105 347.205 664.317 350.76" fill="#ED6055"/>
<path fill-rule="evenodd" clip-rule="evenodd" d="M786.193 429.445C786.193 429.445 730.367 428.939 723.464 429.529C716.56 430.123 709.907 437.389 711.055 448.609C712.203 459.831 727.831 547.268 727.831 547.268C727.831 547.268 728.883 548.048 730.096 548.297C731.309 548.544 741.297 550.193 741.297 550.193L741.972 542.083L736.128 457.025L787.617 447.629L786.193 429.445" fill="#161620"/>
<path fill-rule="evenodd" clip-rule="evenodd" d="M741.972 542.081C741.972 542.081 743.14 542.403 743.656 543.897C744.175 545.392 745.243 555.049 745.14 556.431C745.041 557.809 741.599 560.479 735.705 562.98C729.812 565.483 707.383 572.031 707.383 572.031L707.136 571.216C707.136 571.216 706.081 570.755 705.651 569.376C705.221 567.998 705.367 564.94 706.596 563.196C707.82 561.453 715.065 556.486 716.388 555.422C717.705 554.359 724.265 545.231 724.8 544.619C725.331 544.007 728.8 541.81 732.893 544.095C736.992 546.38 741.631 545.572 741.972 542.081" fill="#D83840"/>
<path fill-rule="evenodd" clip-rule="evenodd" d="M707.136 571.216C707.136 571.216 729.505 563.007 734.412 561.28C739.317 559.555 745.085 554.897 745.085 554.897C745.085 554.897 745.88 555.257 746.047 555.91C746.216 556.564 746.347 558.851 746.404 559.333C746.461 559.817 746.295 561.979 743.844 563.028C741.393 564.081 710.139 575.091 708.711 575.563C707.281 576.034 706.705 572.251 706.705 572.251C706.705 572.251 706.617 571.441 707.136 571.216Z" fill="white"/>
<path fill-rule="evenodd" clip-rule="evenodd" d="M820.76 394.789C820.76 394.789 671.547 412.02 663.383 413.784C655.216 415.551 648.377 425.259 651.469 438.501C654.557 451.74 687.997 558.071 687.997 558.071C687.997 558.071 689.377 558.843 690.867 558.953C692.357 559.063 704.552 559.503 704.552 559.503L709.349 554.593L682.64 459.683L791.653 454.165C822.235 449.237 826.383 412.001 820.76 394.789" fill="#1A1F35"/>
<path fill-rule="evenodd" clip-rule="evenodd" d="M715.781 406.157C715.781 406.157 727.697 414.985 734.869 412.115C742.041 409.247 776.467 349.773 776.467 349.773L759.917 290.192C759.917 290.192 748.883 290.633 735.752 293.503L733.268 295.764C733.268 295.764 723.563 297.417 718.044 303.596C712.527 309.775 694.432 325.884 693.768 327.207C693.107 328.532 709.547 346.627 713.743 349.496C713.743 349.496 715.727 350.157 716.94 348.944L718.929 347.343C718.929 347.343 723.344 370.324 723.344 377.136C723.344 383.943 723.344 383.943 723.344 383.943C723.344 383.943 721.027 401.517 719.263 403.173C717.497 404.828 715.781 406.157 715.781 406.157" fill="#D83840"/>
<path fill-rule="evenodd" clip-rule="evenodd" d="M769.057 417.484C771.82 417.484 774.063 415.245 774.063 412.481C774.063 409.717 771.82 407.476 769.057 407.476H724.921C718.901 407.476 713.421 405.011 709.448 401.035C706.544 398.131 704.443 394.423 703.524 390.289C700.601 391.447 697.448 393.02 694.349 394.736C695.891 399.845 698.685 404.424 702.372 408.111C708.156 413.895 716.139 417.484 724.921 417.484H769.057" fill="white"/>
<path fill-rule="evenodd" clip-rule="evenodd" d="M769.328 561.463H782.011V457.136H769.328V561.463Z" fill="#161620"/>
<path fill-rule="evenodd" clip-rule="evenodd" d="M752.5 450.336H764.857V422.089H752.5V450.336Z" fill="#131314"/>
<path fill-rule="evenodd" clip-rule="evenodd" d="M837.901 450.336H850.257V422.089H837.901V450.336Z" fill="#131314"/>
<path fill-rule="evenodd" clip-rule="evenodd" d="M769.331 482.899H782.011C786.047 482.899 789.352 479.593 789.352 475.556V461.992C789.352 457.955 786.047 454.652 782.011 454.652H769.331C765.295 454.652 761.989 457.955 761.989 461.992V475.556C761.989 479.593 765.295 482.899 769.331 482.899Z" fill="#363A5C"/>
<path fill-rule="evenodd" clip-rule="evenodd" d="M759.237 473.729H792.101C793.26 473.729 794.205 472.781 794.205 471.624V454.567C794.205 453.409 793.26 452.463 792.101 452.463H759.237C758.081 452.463 757.136 453.409 757.136 454.567V471.624C757.136 472.781 758.081 473.729 759.237 473.729Z" fill="#161620"/>
<path fill-rule="evenodd" clip-rule="evenodd" d="M678.355 444.381H781.188C785.073 444.381 788.248 447.559 788.248 451.443V459.388C788.248 463.272 785.073 466.449 781.188 466.449H678.355C674.469 466.449 671.292 463.272 671.292 459.388V451.443C671.292 447.559 674.469 444.381 678.355 444.381Z" fill="#EF7D15"/>
<path fill-rule="evenodd" clip-rule="evenodd" d="M753.159 444.381H855.992C859.875 444.381 863.055 447.559 863.055 451.443V459.388C863.055 463.272 859.875 466.449 855.992 466.449H753.159C749.273 466.449 746.096 463.272 746.096 459.388V451.443C746.096 447.559 749.273 444.381 753.159 444.381Z" fill="#F7BC0A"/>
<path fill-rule="evenodd" clip-rule="evenodd" d="M769.331 554.663H782.011C786.047 554.663 789.352 557.965 789.352 562.004V575.568C789.352 579.605 786.047 582.908 782.011 582.908H769.331C765.295 582.908 761.989 579.605 761.989 575.568V562.004C761.989 557.965 765.295 554.663 769.331 554.663Z" fill="#363A5C"/>
<path fill-rule="evenodd" clip-rule="evenodd" d="M760.172 568.116H791.167C792.836 568.116 794.205 569.48 794.205 571.155V595.786C794.205 597.457 792.836 598.822 791.167 598.822H760.172C758.503 598.822 757.136 597.457 757.136 595.786V571.155C757.136 569.48 758.503 568.116 760.172 568.116Z" fill="#161620"/>
<path fill-rule="evenodd" clip-rule="evenodd" d="M809.323 591.297C809.323 596.303 805.227 600.398 800.221 600.398H751.12C746.112 600.398 742.019 596.303 742.019 591.297C742.019 586.291 746.112 582.195 751.12 582.195H800.221C805.227 582.195 809.323 586.291 809.323 591.297Z" fill="#696D86"/>
<path fill-rule="evenodd" clip-rule="evenodd" d="M857.099 600.398C857.099 605.404 853 609.502 847.997 609.502H723.205C718.197 609.502 714.101 605.404 714.101 600.398C714.101 595.391 718.197 591.297 723.205 591.297H847.997C853 591.297 857.099 595.391 857.099 600.398Z" fill="#161B31"/>
<path fill-rule="evenodd" clip-rule="evenodd" d="M778.981 600.398C778.981 605.404 774.885 609.502 769.877 609.502H703.344C698.336 609.502 694.24 605.404 694.24 600.398C694.24 595.391 698.336 591.297 703.344 591.297H769.877C774.885 591.297 778.981 595.391 778.981 600.398Z" fill="#131314"/>
<path fill-rule="evenodd" clip-rule="evenodd" d="M750.521 383.943C753.284 383.943 755.527 386.184 755.527 388.947C755.527 391.711 753.284 393.952 750.521 393.952H706.388C700.364 393.952 694.885 396.419 690.912 400.395C686.937 404.367 684.467 409.848 684.467 415.869V455.645C684.467 458.409 682.227 460.649 679.464 460.649C676.7 460.649 674.459 458.409 674.459 455.645V415.869C674.459 407.087 678.049 399.103 683.836 393.317C689.62 387.533 697.601 383.943 706.388 383.943H750.521Z" fill="white"/>
<path fill-rule="evenodd" clip-rule="evenodd" d="M848.489 330.627C848.489 300.465 823.812 275.787 793.648 275.787H786.372C756.208 275.787 731.531 300.465 731.531 330.627C731.531 351.636 731.531 391.18 731.531 412.191C731.531 419.941 737.875 426.285 745.628 426.285H834.393C842.145 426.285 848.489 419.941 848.489 412.191C848.489 391.18 848.489 351.636 848.489 330.627" fill="#EF7D15"/>
<path fill-rule="evenodd" clip-rule="evenodd" d="M863.055 330.627C863.055 300.465 838.377 275.787 808.213 275.787H800.937C770.773 275.787 746.096 300.465 746.096 330.627C746.096 351.636 746.096 391.18 746.096 412.191C746.096 419.941 752.44 426.285 760.193 426.285H848.959C856.711 426.285 863.055 419.941 863.055 412.191C863.055 391.18 863.055 351.636 863.055 330.627" fill="#F7BC0A"/>
<path fill-rule="evenodd" clip-rule="evenodd" d="M708.18 550.788C708.18 550.788 710.088 550.807 711.303 552.407C712.516 554.008 716.82 565.04 717.041 566.695C717.26 568.351 712.628 572.543 704.133 577.286C695.636 582.029 662.479 596.595 662.479 596.595L661.872 595.712C661.872 595.712 660.107 595.489 659.06 594.002C658.011 592.514 657.404 588.872 658.839 586.444C660.271 584.017 670.2 575.963 671.967 574.305C673.735 572.649 681.459 559.908 682.12 559.025C682.781 558.141 687.581 554.5 694.588 555.933C701.593 557.368 708.601 554.996 708.18 550.788" fill="#D83840"/>
<path fill-rule="evenodd" clip-rule="evenodd" d="M661.872 595.712C661.872 595.712 694.479 579.212 701.651 575.683C708.823 572.152 716.536 564.909 716.536 564.909C716.536 564.909 717.869 565.091 718.312 565.807C718.752 566.527 719.581 569.172 719.803 569.724C720.021 570.277 720.355 572.867 716.82 574.855C713.292 576.84 667.609 599.351 665.516 600.343C663.417 601.335 661.487 597.06 661.487 597.06C661.487 597.06 661.131 596.136 661.872 595.712" fill="white"/>
<path fill-rule="evenodd" clip-rule="evenodd" d="M724.115 214.699L729.415 213.459C742.065 210.499 754.836 218.428 757.797 231.081L763.724 256.411C766.683 269.063 758.752 281.837 746.099 284.797L740.805 286.035C728.151 288.996 715.377 281.065 712.417 268.415L706.492 243.084C703.533 230.431 711.464 217.659 724.115 214.699" fill="#F4A072"/>
<path fill-rule="evenodd" clip-rule="evenodd" d="M758.476 233.987L763.724 256.411C766.683 269.063 758.752 281.837 746.099 284.797L740.805 286.035C735.557 287.263 730.292 286.616 725.713 284.539C726.339 284.803 730.831 286.551 731.831 283.247C732.909 279.692 726.771 268.275 726.771 268.275C726.771 268.275 726.364 267.52 726.877 266.82C727.388 266.12 730.904 259.848 729.377 252.239C727.847 244.633 737.683 239.328 737.683 239.328L714.921 245.493V250.125C714.921 250.125 712.453 244.969 706.795 244.377L706.492 243.084C705.099 237.125 706.12 231.14 708.915 226.165C716.469 227.087 741.193 230.239 758.476 233.987" fill="#ED6055"/>
<path fill-rule="evenodd" clip-rule="evenodd" d="M716.44 257.229C716.44 257.229 714.377 257.008 713.695 254.1C713.016 251.192 712.795 250.237 712.795 250.237C712.795 250.237 710.604 247.329 709.3 241.751C709.3 241.751 695.836 239.871 693.221 227.405C690.607 214.941 702.208 201.767 703.917 200.463C705.623 199.157 712.787 196.677 721.776 200.709C721.776 200.709 723.305 201.66 726.248 200.471C729.188 199.279 745.697 194.611 753.683 194.352C761.669 194.092 766.817 202.343 770.563 212.331C770.563 212.331 771.027 208.297 775.055 207.456C779.081 206.615 776.924 214.161 774.011 216.752C774.011 216.752 780.872 220.279 782.185 227.615C783.497 234.952 781.013 267.317 774.88 273.78C768.748 280.245 753.281 282.997 748.352 284.149C743.424 285.304 733.639 280.211 729.661 266.656C729.661 266.656 731.607 259.915 730.005 254.356C728.401 248.796 726.943 244.711 724.861 243.991C722.784 243.271 717.653 248.644 717.213 251.061C716.773 253.477 717.745 256.771 717.745 256.771C717.745 256.771 717.183 257.28 716.44 257.229" fill="#161B31"/>
<path fill-rule="evenodd" clip-rule="evenodd" d="M716.44 257.229C716.44 257.229 714.377 257.008 713.695 254.1C713.016 251.192 712.795 250.237 712.795 250.237C712.795 250.237 710.607 247.329 709.3 241.751C709.3 241.751 695.836 239.871 693.221 227.405C690.607 214.941 702.208 201.767 703.917 200.463C703.917 200.463 691.224 214.312 705.227 221.423C719.229 228.531 739.909 233.055 753.479 232.193C767.047 231.332 776.691 207.787 776.695 207.772C778.252 209.253 776.383 214.643 774.011 216.752C774.011 216.752 780.872 220.279 782.185 227.615C783.497 234.952 781.013 267.317 774.88 273.78C768.748 280.244 753.281 282.997 748.352 284.149C743.427 285.304 733.636 280.211 729.661 266.656C729.661 266.656 731.604 259.915 730.005 254.356C728.401 248.796 726.943 244.711 724.864 243.991C722.781 243.271 717.653 248.644 717.213 251.061C716.773 253.476 717.745 256.771 717.745 256.771C717.745 256.771 717.183 257.279 716.44 257.229" fill="#161620"/>
<path fill-rule="evenodd" clip-rule="evenodd" d="M902.972 464.004C902.972 463.161 902.289 462.48 901.448 462.48C900.609 462.48 899.927 463.161 899.927 464.004V467.583H896.347C895.508 467.583 894.825 468.263 894.825 469.103C894.825 469.945 895.508 470.625 896.347 470.625H899.927V474.203C899.927 475.045 900.609 475.728 901.448 475.728C902.289 475.728 902.972 475.045 902.972 474.203V470.625H906.549C907.388 470.625 908.073 469.945 908.073 469.103C908.073 468.263 907.388 467.583 906.549 467.583H902.972V464.004Z" fill="#A3B1DE"/>
<path fill-rule="evenodd" clip-rule="evenodd" d="M811.636 148.637C811.636 147.797 810.953 147.115 810.112 147.115C809.273 147.115 808.591 147.797 808.591 148.637V152.216H805.013C804.172 152.216 803.492 152.897 803.492 153.739C803.492 154.579 804.172 155.259 805.013 155.259H808.591V158.839C808.591 159.68 809.273 160.361 810.112 160.361C810.953 160.361 811.636 159.68 811.636 158.839V155.259H815.213C816.055 155.259 816.737 154.579 816.737 153.739C816.737 152.897 816.055 152.216 815.213 152.216H811.636V148.637Z" fill="#A3B1DE"/>
<path fill-rule="evenodd" clip-rule="evenodd" d="M639.303 91.7667C639.303 90.928 638.623 90.2467 637.781 90.2467C636.943 90.2467 636.26 90.928 636.26 91.7667V95.3467H632.683C631.841 95.3467 631.159 96.0267 631.159 96.8694C631.159 97.7094 631.841 98.3907 632.683 98.3907H636.26V101.969C636.26 102.809 636.943 103.491 637.781 103.491C638.623 103.491 639.303 102.809 639.303 101.969V98.3907H642.883C643.724 98.3907 644.404 97.7094 644.404 96.8694C644.404 96.0267 643.724 95.3467 642.883 95.3467H639.303V91.7667Z" fill="#A3B1DE"/>
<path fill-rule="evenodd" clip-rule="evenodd" d="M213.647 395.071C213.647 394.231 212.965 393.549 212.124 393.549C211.284 393.549 210.603 394.231 210.603 395.071V398.648H207.024C206.183 398.648 205.501 399.332 205.501 400.171C205.501 401.012 206.183 401.695 207.024 401.695H210.603V405.273C210.603 406.112 211.284 406.795 212.124 406.795C212.965 406.795 213.647 406.112 213.647 405.273V401.695H217.225C218.065 401.695 218.748 401.012 218.748 400.171C218.748 399.332 218.065 398.648 217.225 398.648H213.647V395.071Z" fill="#A3B1DE"/>
<path fill-rule="evenodd" clip-rule="evenodd" d="M361.852 198.612C361.852 197.772 361.169 197.091 360.329 197.091C359.489 197.091 358.807 197.772 358.807 198.612V202.193H355.228C354.388 202.193 353.707 202.872 353.707 203.713C353.707 204.553 354.388 205.236 355.228 205.236H358.807V208.813C358.807 209.655 359.489 210.337 360.329 210.337C361.169 210.337 361.852 209.655 361.852 208.813V205.236H365.431C366.271 205.236 366.952 204.553 366.952 203.713C366.952 202.872 366.271 202.193 365.431 202.193H361.852V198.612Z" fill="#A3B1DE"/>
<path fill-rule="evenodd" clip-rule="evenodd" d="M187.797 539.828C187.797 538.989 187.115 538.307 186.275 538.307C185.435 538.307 184.753 538.989 184.753 539.828V543.407H181.175C180.333 543.407 179.652 544.088 179.652 544.929C179.652 545.769 180.333 546.452 181.175 546.452H184.753V550.031C184.753 550.871 185.435 551.552 186.275 551.552C187.115 551.552 187.797 550.871 187.797 550.031V546.452H191.376C192.217 546.452 192.899 545.769 192.899 544.929C192.899 544.088 192.217 543.407 191.376 543.407H187.797V539.828Z" fill="#A3B1DE"/>
<path fill-rule="evenodd" clip-rule="evenodd" d="M51.6557 429.536C51.6557 428.696 50.974 428.016 50.1333 428.016C49.2927 428.016 48.6115 428.696 48.6115 429.536V433.116H45.0323C44.1917 433.116 43.5109 433.799 43.5109 434.637C43.5109 435.479 44.1917 436.16 45.0323 436.16H48.6115V439.739C48.6115 440.58 49.2927 441.26 50.1333 441.26C50.974 441.26 51.6557 440.58 51.6557 439.739V436.16H55.2344C56.0751 436.16 56.7568 435.479 56.7568 434.637C56.7568 433.799 56.0751 433.116 55.2344 433.116H51.6557V429.536Z" fill="#A3B1DE"/>
<path fill-rule="evenodd" clip-rule="evenodd" d="M420.62 423.743C442.191 412.277 447.667 437.223 439.279 457.879C430.891 478.532 387.861 548.008 385.613 575.563C384.743 586.241 382.751 585.076 381.047 577.586C372.545 540.235 390.927 439.523 420.62 423.743" fill="#2A4838"/>
<path fill-rule="evenodd" clip-rule="evenodd" d="M374.947 329.1C350.213 306.831 334.749 338.001 339.024 368.073C343.3 398.143 377.271 504.175 371.155 541.34C368.783 555.745 371.801 554.861 376.523 545.522C400.08 498.949 408.995 359.755 374.947 329.1Z" fill="#499270"/>
<path fill-rule="evenodd" clip-rule="evenodd" d="M370.639 551.665C371.167 553.047 372.341 552.363 373.917 550.064C399.695 464.195 359.539 335.9 359.413 335.488C359.193 334.781 358.444 334.385 357.737 334.604C357.029 334.821 356.633 335.572 356.853 336.279C356.979 336.693 397.684 466.739 370.639 551.665" fill="#296F51"/>
<path fill-rule="evenodd" clip-rule="evenodd" d="M320.925 400.447C296.959 390.013 293.197 417.083 303.865 438.417C314.536 459.752 366.229 530.279 370.924 559.483C372.744 570.804 374.771 569.395 375.965 561.264C381.92 520.709 353.916 414.805 320.925 400.447Z" fill="#9CCF54"/>
<path fill-rule="evenodd" clip-rule="evenodd" d="M373.111 567.305C373.848 568.201 374.552 567.397 375.153 565.295C372.984 494.917 311.14 409.347 310.944 409.069C310.605 408.597 309.947 408.491 309.475 408.829C309.003 409.167 308.895 409.823 309.233 410.297C309.431 410.573 372.117 497.311 373.111 567.305Z" fill="#559B46"/>
<path fill-rule="evenodd" clip-rule="evenodd" d="M354.672 551.721H400.715L412.735 562.571L402.915 600.398H377.692H352.469L342.651 562.571L354.672 551.721Z" fill="#363A5C"/>
<path fill-rule="evenodd" clip-rule="evenodd" d="M342.651 537.645H412.735C414.831 537.645 416.545 539.36 416.545 541.456V558.759C416.545 560.855 414.831 562.571 412.735 562.571H342.651C340.555 562.571 338.839 560.855 338.839 558.759V541.456C338.839 539.36 340.555 537.645 342.651 537.645Z" fill="#363A5C"/>
<path fill-rule="evenodd" clip-rule="evenodd" d="M412.735 562.571L410.717 570.345H344.668L342.651 562.571H412.735Z" fill="#161B31"/>
</svg>
