<svg width="464" height="464" viewBox="0 0 464 464" fill="none" xmlns="http://www.w3.org/2000/svg">
<path d="M0 304H464V0H0V304ZM32 32H432V272H32V32Z" fill="#FFA442"/>
<path d="M32 32V272H312V248V240H357H408V248V272H432V32H32Z" fill="#383838"/>
<path d="M312 240V256V272H408V256V240H312Z" fill="#FFEBDB"/>
<path d="M72 464H120L160 304H112L72 464Z" fill="#FFA442"/>
<path d="M344 464H392L352 304H304L344 464Z" fill="#FFA442"/>
<path d="M256 304H208V464H256V304Z" fill="#FFA442"/>
<path d="M154 328L160 304H112L106 328H154Z" fill="#DB8D39"/>
<path d="M358 328L352 304H304L310 328H358Z" fill="#DB8D39"/>
<path d="M256 304H208V328H256V304Z" fill="#DB8D39"/>
<path d="M128 240H72V256H128V240Z" fill="#FFEBDB"/>
<path d="M95.5628 140.677C98.7368 141.505 101.198 142.954 102.946 145.024C104.694 147.094 105.568 149.624 105.568 152.614C105.568 155.466 104.763 157.95 103.153 160.066C101.589 162.136 99.3808 163.746 96.5288 164.896C93.6768 166 90.4108 166.552 86.7308 166.552C83.0508 166.552 79.7848 166 76.9328 164.896C74.0808 163.746 71.8498 162.136 70.2398 160.066C68.6758 157.95 67.8938 155.466 67.8938 152.614C67.8938 149.624 68.7678 147.094 70.5158 145.024C72.3098 142.908 74.7708 141.459 77.8988 140.677C75.1388 139.757 72.9768 138.331 71.4128 136.399C69.8488 134.467 69.0668 132.19 69.0668 129.568C69.0668 126.9 69.8258 124.554 71.3438 122.53C72.8618 120.506 74.9548 118.965 77.6228 117.907C80.3368 116.803 83.3728 116.251 86.7308 116.251C90.0888 116.251 93.1018 116.803 95.7698 117.907C98.4838 118.965 100.6 120.506 102.118 122.53C103.636 124.554 104.395 126.9 104.395 129.568C104.395 132.236 103.59 134.559 101.98 136.537C100.416 138.515 98.2768 139.895 95.5628 140.677ZM86.7308 124.531C84.4308 124.531 82.5908 125.06 81.2108 126.118C79.8768 127.176 79.2098 128.717 79.2098 130.741C79.2098 132.673 79.8768 134.237 81.2108 135.433C82.5908 136.583 84.4308 137.388 86.7308 137.848C89.0308 137.388 90.8478 136.583 92.1818 135.433C93.5618 134.237 94.2518 132.673 94.2518 130.741C94.2518 128.717 93.5618 127.176 92.1818 126.118C90.8478 125.06 89.0308 124.531 86.7308 124.531ZM86.7308 158.272C89.4448 158.272 91.5838 157.72 93.1478 156.616C94.7578 155.512 95.5628 153.902 95.5628 151.786C95.5628 149.808 94.7578 148.198 93.1478 146.956C91.5838 145.714 89.4448 144.886 86.7308 144.472C84.0168 144.886 81.8548 145.714 80.2448 146.956C78.6808 148.198 77.8988 149.808 77.8988 151.786C77.8988 153.902 78.6808 155.512 80.2448 156.616C81.8548 157.72 84.0168 158.272 86.7308 158.272ZM124.723 138.814V152.407C124.723 154.339 125.229 155.765 126.241 156.685C127.253 157.559 128.564 157.996 130.174 157.996C131.186 157.996 132.336 157.835 133.624 157.513V165.586C131.968 166.23 129.967 166.552 127.621 166.552C123.297 166.552 119.985 165.333 117.685 162.895C115.431 160.457 114.304 157.03 114.304 152.614V138.814H107.68V131.017H114.304V122.806L124.723 119.425V131.017H133.624V138.814H124.723ZM160.567 130.12C168.847 130.12 172.987 135.019 172.987 144.817V166H162.568V145.3C162.568 142.862 162.108 141.091 161.188 139.987C160.314 138.837 158.911 138.262 156.979 138.262C154.679 138.262 152.839 138.998 151.459 140.47C150.079 141.942 149.389 143.92 149.389 146.404V166H138.97V115.216H149.389V135.778C150.631 133.938 152.218 132.535 154.15 131.569C156.082 130.603 158.221 130.12 160.567 130.12ZM201.107 143.23H222.566V151.441H201.107V143.23ZM285.672 157.375V166H253.656V157.375H264.282V128.878L254.346 134.743V125.29L268.767 116.872H275.046V157.375H285.672ZM308.622 166.621C302.688 166.621 298.134 164.459 294.96 160.135C291.832 155.811 290.268 149.555 290.268 141.367C290.268 133.271 291.832 127.084 294.96 122.806C298.134 118.528 302.688 116.389 308.622 116.389C314.556 116.389 319.087 118.528 322.215 122.806C325.389 127.084 326.976 133.271 326.976 141.367C326.976 149.555 325.389 155.811 322.215 160.135C319.087 164.459 314.556 166.621 308.622 166.621ZM308.622 158.341C311.336 158.341 313.314 157.007 314.556 154.339C315.798 151.671 316.419 147.347 316.419 141.367C316.419 135.525 315.798 131.293 314.556 128.671C313.314 126.003 311.336 124.669 308.622 124.669C305.908 124.669 303.93 126.003 302.688 128.671C301.446 131.293 300.825 135.525 300.825 141.367C300.825 147.347 301.446 151.671 302.688 154.339C303.93 157.007 305.908 158.341 308.622 158.341ZM346.614 138.814V152.407C346.614 154.339 347.12 155.765 348.132 156.685C349.144 157.559 350.455 157.996 352.065 157.996C353.077 157.996 354.227 157.835 355.515 157.513V165.586C353.859 166.23 351.858 166.552 349.512 166.552C345.188 166.552 341.876 165.333 339.576 162.895C337.322 160.457 336.195 157.03 336.195 152.614V138.814H329.571V131.017H336.195V122.806L346.614 119.425V131.017H355.515V138.814H346.614ZM382.459 130.12C390.739 130.12 394.879 135.019 394.879 144.817V166H384.46V145.3C384.46 142.862 384 141.091 383.08 139.987C382.206 138.837 380.803 138.262 378.871 138.262C376.571 138.262 374.731 138.998 373.351 140.47C371.971 141.942 371.281 143.92 371.281 146.404V166H360.862V115.216H371.281V135.778C372.523 133.938 374.11 132.535 376.042 131.569C377.974 130.603 380.113 130.12 382.459 130.12Z" fill="#C5C5C5"/>
</svg>
