<svg width="1440" height="367" viewBox="0 0 1440 367" fill="none" xmlns="http://www.w3.org/2000/svg">
<path d="M1207.18 29.7309C1152.77 38.0385 1105.35 64.1739 1052.5 77.3473C993.071 92.185 927.145 89.7813 869.637 70.7188C828.09 56.9299 791.526 35.052 751.172 19.0743C710.851 3.1257 663.327 -6.74791 620.997 5.47485C568.613 20.5821 538.809 64.5018 492.898 89.6975C444.022 116.529 376.247 119.515 323.97 97.1091C294.736 84.5731 270.893 65.1682 242.032 52.0678C168.172 18.5462 78.0309 32.0218 -3 57.4725V192.728C56.4298 210.61 103.422 250.757 162.941 269.892C257.655 300.338 364.842 271.957 458.31 239.204C551.796 206.411 649.853 168.169 750.922 179.667C821.599 187.705 883.962 219.246 947.433 245.323C1010.92 271.429 1083.23 292.983 1152.5 279.139C1224.65 264.742 1279.33 214.478 1351.66 200.467C1379.51 195.102 1408.46 195.499 1436.98 198.686V68.1984C1362.52 44.0552 1285.24 17.7923 1207.18 29.7309Z" fill="#0F7DC2"/>
<path d="M1207.2 14.789C1152.79 18.9213 1105.37 31.9215 1052.52 38.4741C993.087 45.8546 927.16 44.659 869.651 35.177C828.103 28.3182 791.539 17.4358 751.185 9.48826C710.862 1.5552 663.338 -3.35608 621.007 2.7237C568.623 10.2383 538.818 32.0845 492.907 44.6173C444.03 57.9635 376.254 59.449 323.976 48.3039C294.741 42.0683 270.898 32.4161 242.036 25.8997C168.175 9.22558 78.0322 15.9285 -3 28.5881V95.8661C56.4308 104.761 103.424 124.731 162.943 134.249C257.659 149.393 364.848 135.276 458.318 118.984C551.805 102.672 649.864 83.6503 750.934 89.3696C821.612 93.3678 883.977 109.056 947.449 122.028C1010.93 135.013 1083.25 145.734 1152.52 138.848C1224.67 131.687 1279.35 106.685 1351.68 99.7158C1379.53 97.0472 1408.48 97.2447 1437 98.8299V33.9233C1362.54 21.9141 1285.26 8.85056 1207.2 14.789Z" fill="#D2D2D2"/>
<path d="M1354.5 143.409C1282.02 157.126 1227.23 206.336 1154.92 220.431C1085.51 233.984 1013.05 212.882 949.428 187.324C885.824 161.793 823.329 130.914 752.504 123.045C651.223 111.788 552.96 149.228 459.278 181.333C365.614 213.399 258.202 241.185 163.289 211.378C103.645 192.644 56.5545 153.339 -3 135.832V292.135C18.0937 288.402 39.33 285.547 60.9943 285.06C137.506 283.221 210.041 308.71 282.665 327.653C355.272 346.554 437.775 358.713 506.154 331.831C541.48 317.903 570.237 294.503 607.343 283.806C665.652 267.064 730.342 285.241 785.972 306.83C841.606 328.419 898.34 354.326 960.447 353.351C994.449 352.794 1028.2 343.768 1055.52 327.889C1080.36 313.473 1100.27 293.486 1128.36 283.388C1189.66 261.284 1258.7 293.834 1314.06 323.99C1351.47 344.325 1396.62 364.145 1440 367.001V141.665C1411.42 138.545 1382.41 138.156 1354.5 143.409" fill="#0C659D"/>
</svg>
