<svg width="1440" height="731" viewBox="0 0 1440 731" fill="none" xmlns="http://www.w3.org/2000/svg">
<path d="M1207.66 42.2816C1153.36 51.5814 1106.04 80.8387 1053.31 95.5856C994 112.196 928.211 109.505 870.822 88.1653C829.362 72.7294 792.874 48.2382 752.604 30.352C712.367 12.4984 664.942 1.44537 622.699 15.1281C570.425 32.0399 540.683 81.2057 494.867 109.411C446.093 139.447 378.459 142.79 326.291 117.708C297.117 103.675 273.324 81.9518 244.523 67.2865C170.816 29.7608 80.8624 44.8461 0 73.3369V224.748C59.3062 244.767 106.201 289.709 165.596 311.13C260.113 345.212 367.077 313.441 460.351 276.776C553.642 240.066 651.496 197.256 752.354 210.128C822.884 219.126 885.118 254.434 948.457 283.626C1011.81 312.85 1083.97 336.979 1153.1 321.482C1225.1 305.365 1279.66 249.097 1351.84 233.412C1379.63 227.406 1408.52 227.851 1436.98 231.418V85.344C1362.68 58.3169 1285.56 28.9168 1207.66 42.2816Z" fill="#0F7DC2"/>
<path d="M1207.68 16.5547C1153.38 21.1806 1106.06 35.7336 1053.32 43.0689C994.016 51.3311 928.226 49.9926 870.837 39.378C829.375 31.6999 792.887 19.5177 752.617 10.6208C712.378 1.74012 664.953 -3.75781 622.71 3.0482C570.434 11.4604 540.692 35.9162 494.876 49.9459C446.1 64.8863 378.465 66.5492 326.296 54.0729C297.122 47.0925 273.328 36.2873 244.527 28.9925C170.819 10.3267 80.8637 17.8303 0 32.0021V107.316C59.3072 117.274 106.202 139.629 165.598 150.284C260.117 167.237 367.083 151.434 460.359 133.196C553.651 114.936 651.507 93.6414 752.367 100.044C822.898 104.52 885.133 122.082 948.473 136.603C1011.83 151.14 1083.99 163.141 1153.12 155.433C1225.12 147.416 1279.69 119.428 1351.87 111.626C1379.66 108.639 1408.55 108.86 1437.01 110.634V37.9746C1362.7 24.5309 1285.58 9.9069 1207.68 16.5547Z" fill="#D2D2D2"/>
<path d="M1354.68 184.046C1282.35 199.402 1227.67 254.49 1155.52 270.269C1086.25 285.441 1013.93 261.819 950.447 233.207C886.976 204.627 824.611 170.06 753.933 161.25C652.863 148.649 554.804 190.561 461.317 226.501C367.847 262.397 260.659 293.502 165.943 260.134C106.423 239.162 59.4307 195.163 0 175.564V350.538C21.0498 346.359 42.242 343.163 63.8613 342.617C140.214 340.559 212.598 369.093 285.071 390.298C357.527 411.457 439.858 425.069 508.095 394.976C543.348 379.384 572.045 353.189 609.074 341.214C667.262 322.472 731.818 342.82 787.332 366.988C842.85 391.156 899.466 420.157 961.444 419.066C995.375 418.442 1029.06 408.338 1056.32 390.563C1081.1 374.425 1100.98 352.051 1129.01 340.746C1190.18 316.001 1259.08 352.44 1314.32 386.198C1351.66 408.962 1396.71 431.15 1440 434.346V182.094C1411.48 178.602 1382.53 178.167 1354.68 184.046" fill="#0C659D"/>
<path d="M1129.01 334.317C1100.98 345.866 1081.1 368.724 1056.32 385.211C1029.06 403.37 995.375 413.692 961.444 414.329C899.466 415.444 842.85 385.816 787.332 361.126C731.818 336.436 667.262 315.648 609.074 334.795C572.045 347.028 543.348 373.789 508.095 389.719C439.858 420.462 357.527 406.556 285.071 384.94C212.598 363.276 140.214 334.126 63.8612 336.229C42.242 336.786 21.0498 340.052 0 344.321V731H1440V429.94C1396.71 426.674 1351.66 404.007 1314.32 380.751C1259.08 346.264 1190.18 309.038 1129.01 334.317Z" fill="#0C659D"/>
</svg>
