<svg width="1320" height="174" viewBox="0 0 1320 174" fill="none" xmlns="http://www.w3.org/2000/svg">
<rect width="1320" height="40" fill="white"/>
<path d="M1109.32 21.6873C1059.45 25.512 1015.98 37.5443 967.532 43.6091C913.053 50.4401 852.62 49.3335 799.903 40.5574C761.817 34.2093 728.3 24.1371 691.308 16.7812C654.345 9.43876 610.781 4.89313 571.978 10.5203C523.958 17.4754 496.637 37.6952 454.551 49.2949C409.747 61.6475 347.619 63.0224 299.697 52.7071C272.898 46.9357 251.042 38.0021 224.585 31.9708C156.878 16.5381 74.247 22.742 -0.0330582 34.4591V96.7282C54.4455 104.961 97.5226 123.444 152.083 132.253C238.906 146.27 337.163 133.204 422.845 118.125C508.542 103.028 598.43 85.422 691.078 90.7154C755.867 94.416 813.035 108.937 871.218 120.942C929.413 132.961 995.701 142.884 1059.2 136.511C1125.34 129.882 1175.46 106.742 1241.77 100.291C1267.29 97.8215 1293.83 98.0042 1319.98 99.4714V39.3971C1251.72 28.282 1180.88 16.191 1109.32 21.6873Z" fill="#0F7DC2"/>
<path d="M1109.34 14.8083C1059.46 16.7108 1015.99 22.6958 967.548 25.7125C913.068 29.1104 852.634 28.5599 799.916 24.1946C761.83 21.0369 728.312 16.0269 691.319 12.3679C654.356 8.7157 610.791 6.45464 571.987 9.25366C523.967 12.7132 496.645 22.7709 454.559 28.5407C409.754 34.6851 347.624 35.369 299.702 30.238C272.902 27.3672 251.046 22.9235 224.589 19.9235C156.881 12.247 74.2482 15.3329 -0.0330582 21.1612V52.1348C54.4464 56.2299 97.5242 65.4235 152.085 69.8055C238.91 76.7776 337.169 70.2784 422.852 62.7779C508.55 55.2682 598.44 46.5109 691.09 49.1439C755.879 50.9846 813.048 58.2074 871.232 64.1791C929.429 70.1574 995.717 75.0933 1059.22 71.9231C1125.36 68.6262 1175.48 57.1156 1241.79 53.9071C1267.32 52.6786 1293.86 52.7695 1320 53.4993V23.6174C1251.74 18.0886 1180.9 12.0744 1109.34 14.8083Z" fill="#D2D2D2"/>
<path d="M1241.73 90.3802C1175.38 95.5102 1125.22 113.914 1059.03 119.185C995.48 124.254 929.142 116.362 870.904 106.804C812.677 97.2558 755.466 85.7076 690.629 82.7645C597.911 78.5546 507.956 92.5565 422.194 104.563C336.449 116.556 238.118 126.947 151.23 115.8C96.6287 108.793 53.5194 94.094 -1 87.5465V146.002C18.3103 144.606 37.7512 143.538 57.5838 143.355C127.627 142.668 194.029 152.2 260.513 159.284C326.981 166.353 402.509 170.901 465.107 160.847C497.446 155.638 523.772 146.887 557.741 142.886C611.12 136.625 670.341 143.423 721.267 151.497C772.198 159.571 824.135 169.26 880.991 168.895C912.118 168.687 943.016 165.311 968.026 159.373C990.762 153.982 1008.99 146.507 1034.71 142.73C1090.83 134.464 1154.03 146.637 1204.71 157.915C1238.96 165.52 1280.29 172.932 1320 174V89.7281C1293.84 88.5613 1267.28 88.4159 1241.73 90.3802" fill="#0C659D"/>
</svg>
