<svg width="266" height="245" viewBox="0 0 266 245" fill="none" xmlns="http://www.w3.org/2000/svg">
<path d="M118 17.9133C117.883 17.9133 117.781 17.804 117.767 17.6545C117.752 17.4939 117.844 17.3472 117.972 17.3278C119.017 17.1728 120.072 17.0925 121.108 17.0925C121.238 17.0925 121.343 17.2226 121.343 17.3859C121.343 17.5465 121.238 17.6794 121.108 17.6794C120.09 17.6794 119.054 17.7583 118.027 17.9119L118 17.9133ZM127.281 18.6317L127.224 18.6234C126.232 18.3106 125.213 18.0697 124.19 17.9119C124.062 17.8926 123.971 17.7458 123.988 17.5839C124.003 17.4247 124.102 17.3181 124.249 17.3292C125.289 17.4911 126.328 17.7348 127.339 18.0531C127.464 18.0933 127.54 18.2538 127.508 18.4103C127.481 18.5431 127.386 18.6317 127.281 18.6317ZM111.946 19.7128L111.726 19.5176C111.684 19.3653 111.746 19.1979 111.868 19.1439C112.856 18.7009 113.867 18.323 114.88 18.0213C114.991 17.9825 115.131 18.0808 115.16 18.2386C115.19 18.3964 115.112 18.5556 114.986 18.593C113.993 18.8892 112.997 19.2615 112.026 19.6962L111.946 19.7128ZM132.993 21.6548L132.866 21.6091C131.994 20.9101 131.08 20.308 130.15 19.8207C130.031 19.7585 129.975 19.5854 130.024 19.4373C130.074 19.2865 130.213 19.2172 130.329 19.2781C131.285 19.7792 132.225 20.3966 133.12 21.1136C133.228 21.2008 133.26 21.3835 133.189 21.5191L132.993 21.6548ZM106.342 23.1068L106.142 22.967C106.075 22.8286 106.109 22.6487 106.218 22.5628C107.11 21.8707 108.038 21.234 108.972 20.6665C109.092 20.5987 109.229 20.6596 109.284 20.8049C109.34 20.9503 109.291 21.126 109.176 21.1966C108.255 21.7545 107.344 22.3815 106.465 23.0625L106.342 23.1068ZM137.702 26.739L137.53 26.6448C136.781 25.6261 136.06 24.7374 135.325 23.9318L135.301 23.5166L135.632 23.4889C136.38 24.3097 137.114 25.2122 137.873 26.2476L137.86 26.6614L137.702 26.739ZM101.84 28.4346L101.701 28.3778C101.598 28.2823 101.576 28.0996 101.652 27.9681C102.324 26.8096 102.998 25.8295 103.71 24.97L104.041 24.9783L104.033 25.3949C103.342 26.2296 102.687 27.1833 102.029 28.3142L101.84 28.4346ZM141.656 32.7907L141.472 32.6771L141.407 32.5706C140.797 31.5809 140.182 30.5842 139.551 29.6029C139.468 29.4783 139.483 29.2928 139.584 29.1904C139.686 29.0893 139.834 29.1073 139.913 29.2333C140.548 30.2174 141.164 31.2168 141.777 32.2107L141.842 32.3173C141.92 32.446 141.902 32.6301 141.8 32.7297L141.656 32.7907ZM98.5697 35.0981L98.4529 35.058C98.3394 34.9763 98.303 34.7963 98.3669 34.6565C98.5575 34.2468 98.746 33.8357 98.9344 33.426C99.265 32.7048 99.5967 31.9823 99.9361 31.268C100.003 31.1296 100.144 31.0839 100.258 31.167C100.368 31.2514 100.403 31.43 100.338 31.5698C99.9989 32.2813 99.6683 32.9997 99.34 33.7181C99.1515 34.1305 98.962 34.543 98.7724 34.9528L98.5697 35.0981ZM145.626 38.823L145.456 38.7316C144.814 37.8762 144.16 36.9308 143.401 35.7584C143.319 35.6324 143.334 35.4483 143.434 35.3459C143.536 35.2407 143.683 35.2628 143.763 35.3874C144.515 36.5487 145.162 37.4831 145.797 38.3274L145.786 38.7427L145.626 38.823ZM179.717 39.1441L179.629 39.122C178.617 38.6029 177.628 38.2776 176.69 38.1516C176.562 38.135 176.469 37.9897 176.482 37.8305C176.497 37.6686 176.621 37.5523 176.739 37.5689C177.72 37.699 178.753 38.0381 179.805 38.5793C179.926 38.6403 179.983 38.8119 179.933 38.9614L179.717 39.1441ZM171.03 40.621L170.851 40.5158C170.769 40.3913 170.783 40.2058 170.882 40.1033C171.664 39.2839 172.58 38.3759 173.555 37.9316C173.675 37.8776 173.811 37.9565 173.854 38.1073C173.898 38.261 173.835 38.4285 173.714 38.4838C172.81 38.895 171.932 39.7684 171.179 40.5532L171.03 40.621ZM94.9795 41.4737L94.8186 41.3934L94.8109 40.9782C95.4588 40.1241 96.0881 39.1372 96.7283 37.9606C96.8032 37.8277 96.9454 37.7917 97.0534 37.8859C97.1603 37.9758 97.1878 38.1599 97.1151 38.2928C96.4594 39.4957 95.8148 40.5075 95.1481 41.3837L94.9795 41.4737ZM185 43.2607L184.852 43.1956C183.994 42.3236 183.151 41.5568 182.35 40.9173C182.241 40.8301 182.209 40.6487 182.277 40.5117C182.348 40.3747 182.492 40.3317 182.6 40.4217C183.418 41.0723 184.274 41.853 185.148 42.7389C185.248 42.8413 185.263 43.0254 185.181 43.1513L185 43.2607ZM150.477 43.6663L150.366 43.6317C149.467 43.0281 148.612 42.3084 147.749 41.4308C147.649 41.3297 147.634 41.1429 147.715 41.0169C147.794 40.8937 147.941 40.8716 148.045 40.974C148.883 41.8294 149.714 42.5285 150.586 43.114C150.7 43.1901 150.742 43.3673 150.682 43.5112L150.477 43.6663ZM165.679 44.4677C165.578 44.4677 165.485 44.3833 165.455 44.2545C165.419 44.0995 165.491 43.9362 165.615 43.8919C166.572 43.55 167.435 43.1223 168.255 42.5852L168.443 42.4565C168.554 42.372 168.698 42.4205 168.763 42.5631C168.826 42.7029 168.79 42.8828 168.678 42.9645L168.467 43.1084C167.623 43.6607 166.732 44.1023 165.743 44.4566L165.679 44.4677ZM89.7396 45.51C89.6349 45.51 89.5391 45.4214 89.5126 45.2885C89.4807 45.1307 89.5567 44.9702 89.6834 44.9314C90.6014 44.6421 91.4378 44.2061 92.24 43.5971L92.4604 43.4254C92.5695 43.3382 92.7138 43.3756 92.7833 43.5126C92.8538 43.6497 92.8218 43.831 92.7138 43.9182L92.4802 44.0995C91.6394 44.739 90.7611 45.1986 89.7958 45.5017L89.7396 45.51ZM159.547 45.654C159.427 45.654 159.315 45.5405 159.304 45.3882C159.292 45.2263 159.379 45.0851 159.507 45.0698C160.586 44.9466 161.589 44.8331 162.595 44.6601C162.718 44.6366 162.842 44.7501 162.858 44.9107C162.876 45.0712 162.787 45.2193 162.659 45.2415C161.641 45.4159 160.587 45.5363 159.568 45.6526L159.547 45.654ZM156.419 45.7467H156.404C155.325 45.6623 154.28 45.4463 153.297 45.1031C153.172 45.0602 153.098 44.8996 153.133 44.7418C153.169 44.5881 153.29 44.4912 153.421 44.5383C154.372 44.8691 155.386 45.0781 156.434 45.1598C156.563 45.1709 156.661 45.3093 156.652 45.4713C156.644 45.6277 156.543 45.7467 156.419 45.7467ZM86.5406 45.9502C85.5412 45.9502 84.524 45.8588 83.54 45.7702C83.4099 45.7578 83.3053 45.6166 83.3141 45.456C83.324 45.2913 83.4287 45.164 83.5554 45.1834C84.5483 45.2733 85.5577 45.3633 86.5362 45.3633L86.6508 45.3619C86.7798 45.3619 86.8844 45.4934 86.8844 45.6553C86.8844 45.8187 86.7798 45.9488 86.6508 45.9488L86.5406 45.9502ZM77.3271 45.9723C77.218 45.9723 77.1199 45.8755 77.0979 45.7356C77.0736 45.5765 77.1552 45.4228 77.2819 45.391C77.8506 45.2484 78.4015 45.146 78.9205 45.0864C79.3889 45.0325 79.8826 45.0048 80.4247 45.0006H80.4258C80.5547 45.0006 80.6583 45.1307 80.6605 45.2941C80.6605 45.456 80.557 45.5875 80.428 45.5875C79.898 45.5917 79.4198 45.6194 78.9635 45.6706C78.461 45.7301 77.9255 45.8284 77.3734 45.9668L77.3271 45.9723ZM189.567 48.5899L189.399 48.5026C188.822 47.7593 188.045 46.7779 187.185 45.7619L187.174 45.3467L187.505 45.3342C188.372 46.3571 189.151 47.3455 189.734 48.0915L189.732 48.5068L189.567 48.5899ZM71.4768 48.6092L71.2707 48.4514C71.2112 48.3075 71.2553 48.1303 71.3688 48.0556C72.2944 47.4479 73.2642 46.9136 74.2515 46.4651C74.3705 46.4097 74.5072 46.4873 74.5502 46.6409C74.5942 46.7932 74.5314 46.962 74.4102 47.0174C73.4416 47.4562 72.4928 47.9808 71.5848 48.5746L71.4768 48.6092ZM66.5378 53.3169L66.3868 53.2477L66.3593 52.8338C66.9874 51.9036 67.772 50.9983 68.691 50.1443C68.7924 50.046 68.939 50.0737 69.0161 50.2052C69.0943 50.3353 69.0723 50.5194 68.9676 50.6163C68.0794 51.4441 67.3213 52.3175 66.7152 53.2131L66.5378 53.3169ZM193.702 54.4422L193.52 54.3329C192.809 53.2311 192.154 52.2552 191.518 51.3513L191.538 50.9374L191.869 50.9637C192.509 51.8731 193.168 52.8545 193.883 53.9633C193.966 54.0893 193.95 54.2747 193.85 54.3772L193.702 54.4422ZM64.0749 60.4192L64.0176 60.4109C63.892 60.3707 63.8159 60.2115 63.8479 60.0551C64.087 58.8716 64.357 57.5331 64.7504 56.2721C64.7989 56.1213 64.9377 56.0507 65.0534 56.106C65.1735 56.1655 65.2331 56.3358 65.1857 56.4867C64.8022 57.7131 64.5355 59.0336 64.3019 60.1977C64.2743 60.332 64.1796 60.4192 64.0749 60.4192ZM197.525 60.6226L197.34 60.5092L196.767 59.5679C196.328 58.8467 195.891 58.1242 195.446 57.4016C195.368 57.2729 195.387 57.0888 195.489 56.9905C195.591 56.8909 195.736 56.9144 195.817 57.0431C196.26 57.7657 196.7 58.4896 197.139 59.2122L197.711 60.1507C197.789 60.2808 197.77 60.4649 197.666 60.5631L197.525 60.6226ZM201.404 66.7436L201.226 66.6397C200.614 65.7386 199.968 64.7462 199.25 63.6042C199.168 63.4769 199.186 63.2914 199.287 63.1917C199.387 63.0907 199.535 63.1142 199.614 63.2388C200.329 64.3752 200.973 65.3635 201.582 66.2591L201.556 66.673L201.404 66.7436ZM61.6781 67.5685L61.5282 67.5021C61.4302 67.3983 61.4159 67.2128 61.4985 67.0868C62.0991 66.1719 62.5839 65.0895 62.9795 63.7772C63.0258 63.6264 63.1669 63.5475 63.2804 63.607C63.4027 63.6651 63.4633 63.834 63.417 63.9862C63.0038 65.358 62.4935 66.4958 61.8577 67.462L61.6781 67.5685ZM56.6146 72.0215L56.403 71.8526C56.3479 71.7045 56.3986 71.5301 56.5154 71.4609C57.5755 70.8435 58.4582 70.2345 59.2141 69.6005C59.321 69.5106 59.4654 69.5466 59.5381 69.6808C59.6097 69.8151 59.5811 69.9978 59.4731 70.0878C58.6984 70.7383 57.7937 71.3626 56.7138 71.9952L56.6146 72.0215ZM205.738 72.3565L205.585 72.2831C204.833 71.4526 204.094 70.5626 203.321 69.559L203.328 69.1438L203.66 69.1507C204.42 70.1418 205.151 71.0221 205.892 71.8416L205.913 72.2568L205.738 72.3565ZM50.8623 75.0529L50.6485 74.8785C50.5956 74.7304 50.6485 74.556 50.7676 74.4909C51.6139 74.0175 52.5076 73.5676 53.3715 73.1316L53.658 72.9877C53.7792 72.9309 53.9115 73.0015 53.9622 73.1496C54.0095 73.3019 53.9511 73.4721 53.831 73.533L53.5456 73.677C52.685 74.1102 51.7968 74.5587 50.956 75.028L50.8623 75.0529ZM210.804 76.8842L210.691 76.8468C209.791 76.2211 208.899 75.5124 208.038 74.7387C207.933 74.6445 207.909 74.4604 207.983 74.3289C208.056 74.1961 208.204 74.1656 208.309 74.2611C209.156 75.0224 210.034 75.7187 210.916 76.3333C211.03 76.4122 211.069 76.5907 211.008 76.7333L210.804 76.8842ZM45.7338 79.3716L45.5828 79.3024L45.5553 78.8885C46.1834 77.95 46.9746 77.1084 47.9752 76.3139C48.0821 76.2294 48.2286 76.2668 48.2981 76.4052C48.3664 76.5423 48.3344 76.7236 48.2242 76.8108C47.2655 77.5721 46.5096 78.3763 45.9112 79.2678L45.7338 79.3716ZM216.557 79.8311L216.495 79.8214C215.477 79.4643 214.479 79.0366 213.524 78.5494C213.405 78.4885 213.348 78.3168 213.397 78.1659C213.444 78.0164 213.579 77.9431 213.701 78.0054C214.638 78.4843 215.62 78.9051 216.62 79.2553C216.744 79.2996 216.818 79.4601 216.783 79.6166C216.754 79.7467 216.659 79.8311 216.557 79.8311ZM43.9133 86.6455C43.7866 86.6455 43.683 86.5209 43.6786 86.3618C43.6742 86.1901 43.6731 86.0199 43.6731 85.8538C43.6709 84.6149 43.7954 83.4549 44.0445 82.4057C44.0786 82.2507 44.2065 82.1663 44.3343 82.2064C44.4577 82.2535 44.5282 82.4154 44.4919 82.5718C44.2572 83.5671 44.1404 84.6703 44.1415 85.8538C44.1415 86.0143 44.1425 86.1777 44.1469 86.3424C44.1503 86.5043 44.05 86.64 43.9211 86.6455H43.9133Z" fill="#ADCFD4"/>
<path d="M111.027 28.1627H91.4718L80.9877 38.9165L85.7008 28.1627H80.8963C80.0643 28.1627 79.3899 27.3156 79.3899 26.2705V1.89207C79.3899 0.847004 80.0643 -0.000125885 80.8963 -0.000125885H111.027C111.859 -0.000125885 112.535 0.847004 112.535 1.89207V26.2705C112.535 27.3156 111.859 28.1627 111.027 28.1627Z" fill="#C4D8DF"/>
<path d="M135.897 47.7269H159.342L171.912 60.6193L166.261 47.7269H172.021C173.018 47.7269 173.827 46.7123 173.827 45.4582V16.2309C173.827 14.9768 173.018 13.9622 172.021 13.9622H135.897C134.899 13.9622 134.09 14.9768 134.09 16.2309V45.4582C134.09 46.7123 134.899 47.7269 135.897 47.7269Z" fill="#ADCFD4"/>
<path d="M166.586 90.7863C166.586 90.7863 163.803 88.9301 162.117 86.3513C161.253 85.0308 161.725 82.4216 161.553 81.209C161.011 77.397 160.987 75.9712 159.637 76.0183C158.244 76.0667 158.401 77.8634 158.845 81.1869C159.45 85.7091 155.441 80.2899 154.191 78.3299C151.663 74.3656 149.72 72.3377 148.518 73.2347C147.521 73.978 147.737 75.012 150.968 79.3542C153.036 82.1337 153.747 83.0846 153.747 83.0846C153.747 83.0846 151.448 80.7841 150.246 78.9431C149.044 77.1035 146.152 73.6112 144.95 74.5082C142.834 76.0861 146.979 80.1391 147.654 80.8865C148.331 81.6326 152.011 85.8322 152.011 85.8322C152.011 85.8322 149.119 83.1649 147.843 81.3973C145.579 78.2649 144.156 78.4711 143.892 79.793C143.629 81.1135 146.191 83.5497 146.98 84.682C147.176 84.963 147.521 85.3339 147.928 85.7312C149.158 86.9313 150.96 88.3805 150.96 88.3805C150.96 88.3805 147.617 85.5969 146.19 84.275C145.147 83.3102 143.635 84.9837 146.039 87.8144C148.443 90.6451 152.155 92.2245 154.654 92.6425C157.659 93.1463 163.394 96.8269 163.394 96.8269L166.586 90.7863Z" fill="#F89A78"/>
<path d="M231.457 55.9527C243.414 55.9527 266 67.5093 266 101.585C266 107.71 265.628 113.452 265.017 118.752C262.411 141.382 248.685 158.782 231.687 161.406L231.457 161.442L208.429 157.886C208.429 157.886 196.915 135.663 196.915 101.585C196.915 67.5093 219.5 55.9527 231.457 55.9527Z" fill="#D3D3D3"/>
<path d="M220.534 57.1165C220.261 57.1165 220.006 57.0833 219.74 57.0681C219.486 61.3882 219.073 65.747 218.407 67.6364C218.407 67.6364 222.661 72.4783 228.909 67.2184C228.909 67.2184 227.64 61.5667 227.448 55.0181C225.534 56.3317 223.237 57.1165 220.534 57.1165Z" fill="#F57E5D"/>
<path d="M228.003 34.5258C228.003 34.5258 224.747 30.686 220.493 31.3532C216.24 32.0204 213.797 33.0848 212.8 37.4686C211.803 41.8509 210.261 52.8719 210.261 52.8719C210.261 52.8719 211.203 62.6748 218.082 59.1825C224.963 55.6887 232.162 49.1775 230.93 45.2948C229.698 41.4135 228.003 34.5258 228.003 34.5258Z" fill="#F89A78"/>
<path d="M226.857 32.898C226.857 32.898 223.168 34.7763 223.367 36.9675C223.567 39.1587 224.664 43.166 223.567 47.8625C223.567 47.8625 224.664 48.8647 225.411 47.8625C226.158 46.8604 225.411 42.9154 227.555 43.2919C229.698 43.667 229.549 48.4259 227.256 49.1152C227.256 49.1152 225.486 52.3085 223.168 52.3708C220.85 52.4331 217.735 49.5222 216.564 49.3658C215.392 49.208 211.479 49.428 210.707 50.0855C210.707 50.0855 208.313 61.638 212.151 63.3281C215.991 65.0182 224.759 60.7604 229.073 53.9987C229.073 53.9987 234.361 53.6125 233.17 44.5778C232.273 37.7676 235.675 35.8339 232.42 31.2757C230.1 28.0284 226.857 32.898 226.857 32.898Z" fill="#212637"/>
<path d="M230.93 30.5685C230.93 30.5685 229.632 25.5923 223.418 25.1756C217.203 24.7576 216.871 29.2244 214.578 29.7255C212.285 30.2266 211.686 28.5794 212.517 27.8582C212.517 27.8582 210.923 26.1529 208.629 30.5685C206.336 34.9854 210.26 41.0787 215.143 41.2877C220.991 41.5382 227.111 39.1754 230.93 30.5685Z" fill="#212637"/>
<path d="M212.949 53.9355C212.949 53.9355 215.442 55.0304 217.56 54.3425C217.56 54.3425 217.19 55.9523 214.644 55.9703C213.199 55.98 212.949 53.9355 212.949 53.9355Z" fill="white"/>
<path d="M215.744 242.576H219.11V167.394H215.744V242.576Z" fill="#C4D8DF"/>
<path d="M202.629 244.641C202.994 234.886 209.45 227.099 217.427 227.099C225.403 227.099 231.86 234.886 232.225 244.641H202.629Z" fill="#212637"/>
<path d="M191.148 180.551H243.706C247.166 180.551 249.972 177.027 249.972 172.681V160.699C249.972 156.351 247.166 152.829 243.706 152.829H191.148C187.688 152.829 184.882 156.351 184.882 160.699V172.681C184.882 177.027 187.688 180.551 191.148 180.551Z" fill="#D3D3D3"/>
<path d="M163.457 86.3801L159.106 96.8709C159.106 96.8709 185.744 116.217 192.756 114.983C199.768 113.748 214.596 86.9711 214.596 86.9711C214.596 86.9711 214.375 69.1247 210.676 70.7484C207.82 72.0024 193.168 100.862 192.19 102.088C191.214 103.314 163.457 86.3801 163.457 86.3801Z" fill="#0F7DC2"/>
<path d="M204.035 90.75C201.163 95.2431 198.63 100.407 194.811 103.763C190.597 107.464 186.201 108.261 181.488 105.422C179.075 103.968 176.569 102.871 174.142 101.471C173.119 100.881 172.15 99.9978 171.187 99.0939V105.057C179.199 110.166 188.918 115.659 192.756 114.983C199.769 113.748 214.597 86.9711 214.597 86.9711C214.597 86.9711 214.502 79.7719 213.487 74.9355C210.89 80.7104 207.364 85.5426 204.035 90.75Z" fill="#215084"/>
<path d="M189.861 227.907C189.861 227.907 176.995 232.259 171.673 234.401C167.25 236.18 167.815 241.17 172.557 243.485C177.298 245.8 181.385 245.024 182.619 243.204C183.852 241.382 186.525 242.384 187.515 243.113C188.504 243.842 197.721 242.266 198.333 239.954C198.945 237.639 198.055 228.407 198.055 228.407L189.861 227.907Z" fill="#040606"/>
<path d="M199.593 229.385C199.593 229.385 186.446 232.097 180.979 233.558C176.437 234.773 176.601 239.808 181.134 242.708C185.668 245.607 189.795 245.349 191.168 243.692C192.541 242.036 195.121 243.37 196.047 244.22C196.973 245.068 206.269 244.661 207.062 242.437C207.857 240.211 207.12 228.708 207.12 228.708L199.593 229.385Z" fill="#040606"/>
<path d="M205.507 120.816H224.686C224.686 120.816 231.05 120.942 232.252 136.041C233.454 151.139 223.131 152.335 212.118 152.838C201.106 153.341 195.877 155.48 195.59 159.255C195.303 163.03 196.652 228.708 196.652 228.708L183.63 229.349C183.63 229.349 180.362 151.776 181.117 148.256C183.058 139.198 204.752 128.61 204.752 128.61L205.507 120.816Z" fill="#212637"/>
<path d="M205.507 120.815H224.686C224.686 120.815 231.05 120.941 232.252 136.04C233.454 151.139 223.131 152.335 212.118 152.837C201.106 153.341 195.877 155.48 195.59 159.255C195.303 163.029 196.652 228.708 196.652 228.708L189.046 229.083C189.046 229.083 186.096 153.416 186.851 149.896C188.793 140.838 207.957 128.966 207.957 128.966L205.507 120.815Z" fill="#131928"/>
<path d="M217.487 123.594H236.666C236.666 123.594 243.031 123.72 244.233 138.819C245.435 153.919 235.111 155.114 224.099 155.618C213.086 156.12 207.858 158.26 207.571 162.035C207.284 165.81 207.771 230.677 207.771 230.677L193.697 230.231C193.697 230.231 189.751 154.746 190.642 151.277C192.645 143.476 216.255 129.005 216.255 129.005L217.487 123.594Z" fill="#212637"/>
<path d="M218.901 65.5893C218.901 65.5893 220.965 70.7856 221.605 70.225C223.829 68.2774 228.666 64.6937 228.666 64.6937C228.666 64.6937 234.602 68.8311 240.77 72.0687V81.5698L242.444 129.812C242.444 129.812 223.468 137.022 204.752 128.61C204.752 128.61 205.403 99.0591 205.736 94.2781C205.922 91.5914 208.021 73.3906 210.16 71.1455C211.185 70.0699 213.519 69.0664 215.691 68.0172C217.442 67.1714 218.266 66.662 218.901 65.5893Z" fill="#28363E"/>
<path d="M218.901 65.5893C218.901 65.5893 220.965 70.7856 221.605 70.225C223.829 68.2774 228.666 64.6937 228.666 64.6937C228.666 64.6937 234.602 68.8311 240.77 72.0687V81.5698L242.444 129.812C242.444 129.812 223.468 137.022 204.752 128.61C204.752 128.61 205.403 99.0591 205.736 94.2781C205.922 91.5914 208.021 73.3906 210.16 71.1455C211.185 70.0699 213.519 69.0664 215.691 68.0172C217.442 67.1714 218.266 66.662 218.901 65.5893Z" fill="#0F7DC2"/>
<path d="M236.41 118.931C239.307 115.47 240.77 109.846 241.525 103.327L240.77 81.5699V72.0688C240.39 71.8695 240.011 71.666 239.633 71.4611C237.785 71.6148 235.643 73.1623 234.55 74.2074C230.815 77.7814 228.698 81.9617 226.652 87.2064C224.256 93.3467 221.237 103.961 214.155 101.995C211.049 101.134 207.745 98.3754 205.707 94.7419C205.495 98.4391 205.236 108.206 205.027 116.897C224.632 122.996 234.642 121.04 236.41 118.931Z" fill="#215084"/>
<path d="M239.307 152.829H240.77V132.524H239.307V152.829Z" fill="#212637"/>
<path d="M216.385 136.115H250.209C251.707 136.115 252.923 135.033 252.923 133.699V130.021C252.923 128.687 251.707 127.606 250.209 127.606H216.385C214.887 127.606 213.672 128.687 213.672 130.021V133.699C213.672 135.033 214.887 136.115 216.385 136.115Z" fill="#212637"/>
<path d="M50.2562 242.576H46.8896V167.394H50.2562V242.576Z" fill="#C4D8DF"/>
<path d="M34.5422 55.9527C22.5859 55.9527 0 67.5093 0 101.585C0 107.71 0.372454 113.452 0.981841 118.752C3.58799 141.382 17.3152 158.782 34.3119 161.406L34.5422 161.442L57.571 157.886C57.571 157.886 69.0854 135.663 69.0854 101.585C69.0854 67.5093 46.4996 55.9527 34.5422 55.9527Z" fill="#D3D3D3"/>
<path d="M63.3695 244.641C63.0059 234.886 56.5483 227.099 48.5723 227.099C40.5963 227.099 34.1399 234.886 33.7751 244.641H63.3695Z" fill="#212637"/>
<path d="M74.852 180.551H22.2939C18.8337 180.551 16.0281 177.027 16.0281 172.681V160.699C16.0281 156.351 18.8337 152.829 22.2939 152.829H74.852C78.3122 152.829 81.1178 156.351 81.1178 160.699V172.681C81.1178 177.027 78.3122 180.551 74.852 180.551Z" fill="#D3D3D3"/>
<path d="M101.352 109.625C101.352 109.625 104.102 110.033 104.686 110.026C105.27 110.018 112.826 104.569 113.649 105.293C114.473 106.017 122.238 112.677 122.014 114C121.79 115.324 119.627 114.555 115.499 110.262C115.499 110.262 120.99 115.04 119.947 116.227C118.904 117.415 114.11 112.045 114.11 112.045C114.11 112.045 119.054 116.581 117.893 117.622C116.732 118.664 112.366 113.236 112.366 113.236C112.366 113.236 115.787 117.305 115.324 117.996C114.862 118.686 112.71 117.537 110.352 114.826C110.352 114.826 109.921 114.538 108.681 115.386C107.442 116.232 99.7928 114.71 99.7928 114.71L101.352 109.625Z" fill="#F89A78"/>
<path d="M104.713 107.023V117.688C104.713 117.688 75.0428 116.155 68.031 114.922C61.0192 113.687 51.4034 86.9705 51.4034 86.9705C51.4034 86.9705 51.6249 69.1241 55.3242 70.7477C58.1783 72.0018 72.8323 100.861 73.8086 102.087C74.786 103.314 104.713 107.023 104.713 107.023Z" fill="#F14957"/>
<path d="M127.145 123.158H93.7385V117.159H127.145V123.158Z" fill="#212637"/>
<path d="M136.177 78.2116L125.355 120.374L123.663 119.593L134.486 77.4323L136.177 78.2116Z" fill="#212637"/>
<path d="M38.1699 51.9937C38.1699 51.9937 40.5909 65.2224 33.9438 71.3198C33.9438 71.3198 36.3329 79.7634 44.1756 77.8878C52.0182 76.0108 47.4616 69.303 47.4616 69.303C47.4616 69.303 44.9976 64.2839 46.2671 54.996L38.1699 51.9937Z" fill="#F57E5D"/>
<path d="M39.0591 31.5881C39.0591 31.5881 50.7476 29.3651 52.092 30.9929C53.4375 32.6207 53.6612 38.5312 53.605 43.5268C53.5488 48.5223 55.2238 58.0843 50.5801 59.8506C45.9364 61.6182 37.08 56.1686 33.9438 46.2716C29.9491 33.6685 38.2591 31.7334 39.0591 31.5881Z" fill="#F89A78"/>
<path d="M76.1391 227.907C76.1391 227.907 89.0045 232.259 94.327 234.401C98.7503 236.18 98.185 241.17 93.4432 243.485C88.7004 245.8 84.6154 245.024 83.3812 243.204C82.1481 241.382 79.4747 242.384 78.4852 243.113C77.4956 243.842 68.2788 242.266 67.6661 239.954C67.0545 237.639 67.9449 228.407 67.9449 228.407L76.1391 227.907Z" fill="#040606"/>
<path d="M66.5165 229.068C66.5165 229.068 79.6651 231.78 85.132 233.241C89.6743 234.456 89.5101 239.491 84.9766 242.391C80.4431 245.29 76.3152 245.032 74.9432 243.375C73.5702 241.718 70.9905 243.053 70.0637 243.903C69.1381 244.751 59.8419 244.344 59.0474 242.119C58.254 239.894 58.9912 228.391 58.9912 228.391L66.5165 229.068Z" fill="#040606"/>
<path d="M37.0801 30.4159C37.0801 30.4159 42.6075 30.6512 43.5784 41.1116C44.0158 45.8262 44.9602 49.4611 43.8021 49.6964C42.645 49.9303 41.4493 48.9448 41.4493 47.5841C41.4493 46.2248 41.1132 41.7843 38.9104 43.019C36.7065 44.2537 37.4536 49.6023 40.2548 51.1498C40.2548 51.1498 40.8334 54.1521 38.5931 55.8408C38.5931 55.8408 32.767 51.237 31.9273 43.019C31.0865 34.8024 33.5516 30.182 37.0801 30.4159Z" fill="#212637"/>
<path d="M34.866 31.3402C34.866 31.3402 36.174 24.7722 42.3351 24.2573C48.4973 23.741 53.4263 28.3849 56.3763 34.5764C56.3763 34.5764 54.6958 38.2819 48.3474 38.7512C45.7093 38.9463 41.016 38.0245 38.6755 36.5005C35.3828 34.3563 34.866 31.3402 34.866 31.3402Z" fill="#212637"/>
<path d="M60.4923 120.816H41.3137C41.3137 120.816 34.9488 120.942 33.7476 136.041C32.5454 151.139 42.8686 152.335 53.8816 152.838C64.8935 153.341 70.1224 155.48 70.4089 159.255C70.6965 163.03 69.3477 228.708 69.3477 228.708L82.3696 229.349C82.3696 229.349 85.6369 151.776 84.8832 148.256C82.9415 139.198 61.2483 128.61 61.2483 128.61L60.4923 120.816Z" fill="#212637"/>
<path d="M60.4923 120.816H41.3137C41.3137 120.816 34.9488 120.942 33.7476 136.041C32.5454 151.14 42.8686 152.336 53.8816 152.838C64.8935 153.342 70.1224 155.481 70.4089 159.256C70.6965 163.03 69.3477 228.709 69.3477 228.709H76.1722C76.1722 228.709 81.1189 151.981 79.4847 148.969C74.9005 140.528 57.3407 127.606 57.3407 127.606L60.4923 120.816Z" fill="#131928"/>
<path d="M48.5129 123.594H29.3343C29.3343 123.594 22.9694 123.72 21.7672 138.819C20.5649 153.919 30.8892 155.114 41.9011 155.618C52.9131 156.12 58.1419 158.26 58.4295 162.035C58.716 165.81 58.2289 230.677 58.2289 230.677L72.3021 230.231C72.3021 230.231 76.2483 154.746 75.3579 151.277C73.3545 143.476 49.7438 129.005 49.7438 129.005L48.5129 123.594Z" fill="#212637"/>
<path d="M46.2915 65.0771C46.2915 65.0771 47.4111 69.0373 44.7058 69.2643C42.0016 69.4899 37.6675 64.8847 37.6675 64.8847C37.6675 64.8847 34.2008 67.8067 27.8568 70.2457L23.5558 129.812C23.5558 129.812 42.5316 137.022 61.2485 128.61C61.2485 128.61 60.5972 99.0591 60.2644 94.2781C60.0782 91.5914 57.9789 73.3906 55.84 71.1454C54.8152 70.0699 52.4813 69.0664 50.3093 68.0171C48.5583 67.1714 46.9263 66.1499 46.2915 65.0771Z" fill="#F14957"/>
<path d="M58.4175 80.3434C58.3734 84.1873 58.5828 88.0368 58.3184 90.7733C57.677 97.4272 54.705 108.456 48.4888 109.91C42.5283 111.304 37.6058 107.759 36.0576 100.14C34.8179 94.0386 34.9413 72.2445 27.6771 72.7262L23.5558 129.812C23.5558 129.812 42.5316 137.022 61.2485 128.61C61.2485 128.61 60.5972 99.0591 60.2644 94.2781C60.1575 92.7417 59.4247 86.1404 58.4175 80.3434Z" fill="#DF313A"/>
<path d="M77.8483 123.158H93.1513C93.8081 122.649 94.2147 122.023 94.2147 121.228C94.2147 118.655 90.3126 115.467 85.5003 115.467C80.687 115.467 76.7849 118.655 76.7849 121.228C76.7849 122.023 77.1915 122.649 77.8483 123.158Z" fill="#212637"/>
<path d="M68.3286 115.451C68.3286 115.451 71.0912 115.685 71.6741 115.64C72.257 115.597 79.5862 109.679 80.438 110.35C81.2899 111.022 89.3099 117.185 89.1391 118.522C88.9683 119.858 86.7765 119.227 82.4833 115.197C82.4833 115.197 88.1573 119.625 87.1633 120.877C86.1694 122.127 81.1664 117.065 81.1664 117.065C81.1664 117.065 86.285 121.285 85.1666 122.398C84.0492 123.512 79.4727 118.364 79.4727 118.364C79.4727 118.364 83.0508 122.214 82.6166 122.932C82.1824 123.652 79.9884 122.64 77.5244 120.079C77.5244 120.079 77.0826 119.818 75.8781 120.742C74.6726 121.665 66.9742 120.626 66.9742 120.626L68.3286 115.451Z" fill="#F89A78"/>
<path d="M71.2761 112.46L71.7268 123.594C71.7268 123.594 38.5488 126.614 28.9794 124.852C19.4088 123.092 19.0187 117.651 19.7636 96.4169C20.2705 81.9922 24.2211 70.6225 27.8565 70.246C37.4832 69.2452 30.8571 109.354 32.8109 110.298C34.7636 111.242 71.2761 112.46 71.2761 112.46Z" fill="#F14957"/>
<path d="M65.2164 244.511V123.159H62.7987V244.511H65.2164Z" fill="#6B8EA1"/>
<path d="M211.554 244.511V123.159H209.136V244.511H211.554Z" fill="#6B8EA1"/>
<path d="M211.554 123.158V126.717H62.7987V123.158H211.554Z" fill="#6B8EA1"/>
<path d="M26.6917 152.829H25.2294V132.524H26.6917V152.829Z" fill="#212637"/>
<path d="M49.6138 136.115H15.7901C14.2925 136.115 13.077 135.033 13.077 133.699V130.021C13.077 128.687 14.2925 127.606 15.7901 127.606H49.6138C51.1124 127.606 52.3279 128.687 52.3279 130.021V133.699C52.3279 135.033 51.1124 136.115 49.6138 136.115Z" fill="#212637"/>
<path d="M169.242 70.4262V115.605L190.737 119.876V75.3097L169.242 70.4262Z" fill="#212637"/>
<path d="M198.673 102.267C198.673 102.267 195.991 109.547 196.162 109.251C196.333 108.955 190.714 107.304 190.408 107.365C190.103 107.426 185.487 107.689 183.803 107.116C182.121 106.541 179.398 104.506 178.864 104.04C178.269 103.519 177.304 101.932 178.252 101.653C179.084 101.411 181.398 103.352 181.917 103.677C182.437 104.001 184.302 104.159 184.302 104.159C184.302 104.159 182.162 103.247 180.833 102.451C179.218 101.482 176.841 100.071 176.378 99.4111C175.941 98.7841 176.117 97.5217 177.382 97.93C178.907 98.4228 180.279 99.4402 180.534 99.5523C180.789 99.6644 184.628 101.426 184.628 101.426C184.628 101.426 181.118 99.7959 180.393 99.3114C179.581 98.7688 177.335 97.44 175.918 96.5015C174.551 95.5963 174.969 93.6279 176.257 93.8494C177.209 94.0127 180.319 96.4697 180.816 96.7188C181.314 96.9694 184.939 98.8948 184.939 98.8948C184.939 98.8948 180.882 96.6967 180.456 96.2884C180.03 95.88 177.136 94.2259 176.851 93.0881C176.712 92.5358 176.957 91.4658 177.977 91.7648C179.164 92.1122 180.847 93.0867 181.615 93.6639C182.238 94.1304 187.519 97.7141 188.437 97.4843C189.354 97.2559 190.639 96.9528 190.725 95.6184L190.691 92.1081C190.691 92.1081 193.145 93.7664 193.497 96.8531C193.688 98.5224 195.781 100.806 198.673 102.267Z" fill="#F89A78"/>
<path d="M219.099 64.2781L220.606 68.1982L228.188 63.1542L230.389 65.8782L223.032 74.5073L220.178 69.1754L217.09 72.2428V67.2804L219.099 64.2781Z" fill="white"/>
<path d="M195.803 99.2864L193.525 110.071C193.525 110.071 216.122 116.492 225.699 118.193C233.549 119.589 237.66 115.671 242.444 95.2847C246.047 79.934 244.105 73.2027 239.307 71.2523C230.117 67.5164 229.579 105.317 227.625 106.261C225.672 107.204 195.803 99.2864 195.803 99.2864Z" fill="#0F7DC2"/>
<path d="M156.197 40.1189H151.814V34.9739H156.197V40.1189ZM159.652 26.3254C159.652 30.107 155.865 31.2199 155.865 32.6927V33.2768H152.079V31.8871C152.079 29.8565 154.958 28.6882 154.958 26.4361C154.958 25.4077 154.426 24.49 153.497 24.49C152.301 24.49 152.058 25.6582 152.058 26.8251C152.058 27.0756 152.058 27.3262 152.079 27.5767H148.006C147.983 27.214 147.939 26.8805 147.939 26.5192C147.939 22.905 150.508 20.6516 153.984 20.6516C157.37 20.6516 159.652 22.8774 159.652 26.3254Z" fill="#212637"/>
<path d="M91.8708 20.6001H88.2101V16.2842H91.8708V20.6001Z" fill="#231F20"/>
<path d="M97.6197 20.6001H93.9601V16.2842H97.6197V20.6001Z" fill="#231F20"/>
<path d="M103.371 20.6001H99.7111V16.2842H103.371V20.6001Z" fill="#231F20"/>
</svg>
