<svg width="528" height="537" viewBox="0 0 528 537" fill="none" xmlns="http://www.w3.org/2000/svg">
<path d="M516.046 537H11.9536C5.35193 537 0 532.297 0 526.496V97.5036C0 91.7028 5.35193 87 11.9536 87H516.046C522.648 87 528 91.7028 528 97.5036V526.496C528 532.297 522.648 537 516.046 537" fill="white"/>
<path d="M332.22 68.6081C332.22 106.499 301.501 137.216 263.61 137.216C225.719 137.216 195 106.499 195 68.6081C195 30.7156 225.719 1.02558e-05 263.61 1.02558e-05C301.501 1.02558e-05 332.22 30.7156 332.22 68.6081Z" fill="#477CC7"/>
<path d="M235.828 101.505C234.631 101.505 233.668 100.494 233.757 99.2995C234.885 83.7951 247.821 71.5675 263.613 71.5675C279.405 71.5675 292.341 83.7951 293.471 99.2995C293.558 100.494 292.595 101.505 291.399 101.505H235.828Z" fill="white"/>
<path d="M278.8 50.8964C278.8 59.2829 272 66.0818 263.613 66.0818C255.225 66.0818 248.426 59.2829 248.426 50.8964C248.426 42.508 255.225 35.7073 263.613 35.7073C272 35.7073 278.8 42.508 278.8 50.8964Z" fill="white"/>
</svg>
