<svg width="331" height="70" viewBox="0 0 331 70" fill="none" xmlns="http://www.w3.org/2000/svg">
<path d="M287.29 47.0227C287.29 47.0227 284.623 52.6894 277.956 49.6894C273.814 47.824 277.142 39.6534 285.934 35.0147C289.808 39.8041 289.232 44.8854 287.29 47.0227ZM52.7122 49.6894C46.0455 52.6894 43.3789 47.0227 43.3789 47.0227C41.4362 44.8854 40.8602 39.8041 44.7362 35.0147C53.5269 39.6534 56.8549 47.824 52.7122 49.6894ZM325.29 39.0227C316.956 28.6894 293.623 25.6894 286.623 30.0227C286.484 30.108 286.339 30.2081 286.195 30.3054C283.835 27.2601 280.779 24.796 277.29 23.6894C263.623 19.356 250.667 25.6214 226 42.6214C201.334 59.6227 198.559 63.5254 190.491 61.8934C184.371 60.6534 178.074 53.2681 171.166 45.5414C171.358 45.3574 171.543 45.1827 171.712 45.0227C177.379 39.6894 187.046 26.356 197.379 32.356C207.712 38.356 203.046 51.0227 197.379 54.0227C191.712 57.024 191.379 50.0227 191.379 50.0227C192.046 43.0227 182.712 42.6894 182.712 50.6894C182.712 55.7347 184.046 59.6907 196.379 59.3574C208.712 59.024 217.712 35.356 194.379 27.356C183.246 23.5387 173.795 30.5427 165.334 39.2361C156.872 30.5427 147.423 23.5387 136.29 27.356C112.956 35.356 121.956 59.024 134.29 59.3574C146.623 59.6907 147.956 55.7347 147.956 50.6894C147.956 42.6894 138.623 43.0227 139.29 50.0227C139.29 50.0227 138.956 57.024 133.29 54.0227C127.623 51.0227 122.956 38.356 133.29 32.356C143.623 26.356 153.29 39.6894 158.956 45.0227C159.127 45.1827 159.31 45.3574 159.503 45.5414C152.595 53.2681 146.299 60.6534 140.178 61.8934C132.11 63.5254 129.334 59.6227 104.667 42.6214C80.0002 25.6214 67.0455 19.356 53.3789 23.6894C49.8882 24.796 46.8335 27.2601 44.4735 30.3054C44.3295 30.2081 44.1842 30.108 44.0455 30.0227C37.0455 25.6894 13.7122 28.6894 5.37886 39.0227C-2.95447 49.356 -0.621139 64.3574 11.7122 68.3574C24.0455 72.3574 41.3789 67.024 38.7122 58.3574C36.0455 49.6894 27.7122 54.0227 29.0455 55.6907C30.3789 57.3574 19.7122 64.6907 10.3789 62.024C1.04553 59.3574 -0.621139 38.0227 23.0455 32.6894C30.6562 30.9734 37.1215 31.8161 42.1802 33.8401C37.5602 42.4294 38.1322 52.9774 48.3789 52.6894C61.9335 52.3054 54.1122 38.9814 47.2109 32.5254C50.2015 30.0494 54.6495 27.8227 61.0455 26.356C81.3789 21.6894 110.844 57.8934 128.844 64.2267C142.442 69.0107 156.718 58.6561 165.334 51.0027C173.951 58.6561 188.227 69.0107 201.824 64.2267C219.824 57.8934 249.29 21.6894 269.623 26.356C276.019 27.8227 280.467 30.0494 283.458 32.5254C276.556 38.9814 268.735 52.3054 282.29 52.6894C292.538 52.9774 293.108 42.4294 288.488 33.8401C293.548 31.8161 300.011 30.9734 307.623 32.6894C331.29 38.0227 329.623 59.3574 320.29 62.024C310.956 64.6907 300.29 57.3574 301.623 55.6907C302.956 54.0227 294.623 49.6894 291.956 58.3574C289.29 67.024 306.623 72.3574 318.956 68.3574C331.29 64.3574 333.623 49.356 325.29 39.0227" fill="#7C651A"/>
<path d="M172.387 15.4362C172.387 24.0041 165.333 31.9841 165.333 31.9841C165.333 31.9841 158.281 24.0041 158.281 15.4362C158.281 6.86682 160.053 0.954803 165.333 0.954803C170.615 0.954803 172.387 6.86682 172.387 15.4362Z" fill="#7C651A"/>
</svg>
