<svg width="493" height="494" viewBox="0 0 493 494" fill="none" xmlns="http://www.w3.org/2000/svg">
<path d="M251.591 494C240.777 494.002 232.276 491.951 227.165 487.39C218.656 479.795 217.581 468.292 219.04 456.218C219.04 456.218 381.087 343.039 319.021 322.811C276.505 308.955 267.451 299.292 281.049 259.539C290.675 231.406 328.219 222.66 307.009 160.303C308.457 159.916 276.302 313.152 277.72 312.379C277.72 312.379 370.597 202.012 367.407 191.379C367.377 191.254 261.613 347.884 246.83 337.327C238.782 331.139 248.116 117.574 254.592 98.1976C187.324 299.706 222.81 33.4816 261.952 76.379C214.296 78.4963 578.04 368.479 367.676 247.379C358.232 268.772 347.74 148.459 367.676 174.379C400.601 217.188 311.971 451.457 246.83 471C220.969 523.964 218.247 423.379 219.04 456.218C135.826 456.218 132.904 419.599 128.679 419.599C37.8039 419.599 -17.2278 355.887 36.015 299.706C62.6653 271.584 148.928 214.731 93.7946 208.703C3.07795 198.784 -55.5767 154.976 85.3959 73.0656C85.3959 73.0656 203.029 0.378967 286.404 0.378967C304.111 0.378967 320.257 3.65229 333.421 11.5976C402.251 53.143 304.008 159.55 334.7 159.55C337.516 159.55 341.412 158.658 346.628 156.735C362.431 150.911 379.031 148.15 395.127 148.15C444.696 148.15 489.585 174.302 492.5 217.68C497.676 294.71 364.075 353.511 382.741 353.511C383.273 353.511 383.929 353.463 384.717 353.366C393.956 352.232 402.585 351.67 410.457 351.67C454.484 351.67 474.827 369.286 445.624 403.254C408.077 446.931 303.385 493.996 251.591 494Z" fill="#D3D3D3"/>
<path d="M183.569 202.995C183.569 202.995 163.954 201.527 157.898 191.433C151.842 181.34 157.806 174.457 162.853 171.247C167.899 168.035 175.24 163.08 175.515 158.492C175.791 153.904 175.561 142.637 187.26 138.9C191.223 137.635 195.765 137.809 199.556 139.563C201.524 140.473 203.057 141.791 204.43 143.445C205.763 145.052 206.18 146.415 206.618 148.491C206.973 150.173 206.948 151.725 206.896 153.468C206.815 156.141 206.22 158.871 205.973 161.543C205.76 163.849 205.611 166.121 205.611 168.471C205.611 170.051 205.905 171.512 206.415 173.012C206.922 174.509 207.748 175.869 208.307 177.344C208.852 178.787 210.072 181.693 210.454 183.188C211.101 185.725 210.624 187.072 210.373 189.689C209.752 196.187 204.986 200.249 198.927 201.909C193.997 203.259 188.637 203.389 183.569 202.995Z" fill="#212637"/>
<path d="M197.643 165.911C194.071 165.525 191.414 163.821 189.659 161.476C190.099 164.029 190.333 169.553 186.114 175.797C186.114 175.797 186.056 188.841 194.462 187.567C202.869 186.291 201.883 176.551 201.883 176.551C201.883 176.551 196.902 173.219 197.643 165.911Z" fill="#F57E5D"/>
<path d="M188.789 145.188C188.789 145.188 196.803 141.823 199.8 143.475C202.797 145.127 204.143 149.836 205.122 154.424C206.101 159.012 203.73 167.943 199.311 169.411C194.097 171.143 189.524 166.843 187.811 161.397C187.811 161.397 183.223 160.297 183.59 154.18C183.957 148.063 185.486 144.576 188.789 145.188Z" fill="#F89A78"/>
<path d="M200.346 175.103C200.346 175.103 196.897 181.273 195.119 182.446C193.34 183.618 186.042 174.044 186.042 174.044C186.042 174.044 177.621 179.161 170.713 180.975C170.713 180.975 168.299 206.433 166.735 212.295C166.735 212.295 164 244.484 164 248.809H207.209C206.027 226.957 214.61 207.996 214.61 207.996C214.61 207.996 212.094 188.336 213.462 183.45C213.462 183.45 203.727 177.913 200.346 175.103Z" fill="#0F7DC2"/>
<path d="M214.478 207.76C214.478 207.76 213.861 202.944 213.405 197.487C210.403 203.369 208.699 209.541 206.335 215.744C203.543 223.067 195.377 236.979 185.339 233.831C177.423 231.348 174.939 222.187 173.677 214.863C172.987 210.864 172.356 206.799 171.935 202.763C171.588 199.439 171.475 193.971 169.633 191.144C168.565 192.077 168.141 195.379 168.011 196.787C167.814 198.908 167.766 201.04 167.679 203.168C167.634 204.252 167.582 205.337 167.495 206.419C167.419 207.368 167.227 208.247 167.087 209.164C166.989 209.812 166.957 210.505 166.82 211.139L166.767 211.381C166.712 211.628 166.657 211.857 166.603 212.059C166.603 212.059 163.867 244.248 163.867 248.573H207.076C205.894 226.721 214.478 207.76 214.478 207.76Z" fill="#215084"/>
<path d="M186.348 173.296L181.644 176.095L188.83 187.828L194.986 182.748L200.865 187.503L203.748 177.123L199.563 174.084L195.132 181.503L186.348 173.296Z" fill="white"/>
<path d="M200.761 146.044C200.761 146.044 199.203 151.481 194.538 152.811C192.543 153.379 191.27 155.333 191.489 157.397C191.59 158.344 189.325 158.492 189.279 157.849C189.233 157.208 189.783 153.951 186.985 153.308C184.186 152.665 183.978 156.841 186.48 159.364C186.48 159.364 191.175 164.316 188.973 169.8C186.77 175.284 182.214 180.605 173.405 181.615C164.596 182.624 160.884 194.953 160.884 194.953C160.884 194.953 152.026 184.551 161.843 177.027C171.661 169.503 178.635 165.176 178.543 160.228C178.452 155.281 181.716 141.868 190.151 140.967C198.584 140.065 200.761 146.044 200.761 146.044Z" fill="#212637"/>
<path d="M206.35 153.743C206.35 153.743 202.681 154.271 198.76 148.796C194.839 143.323 194.845 138.948 194.845 138.948C194.845 138.948 208.986 141.192 206.35 153.743Z" fill="#212637"/>
<path d="M167.121 366.556H163.601V273.808H167.121V366.556Z" fill="#ADCFD4"/>
<path d="M232.305 366.556H228.784V273.808H232.305V366.556Z" fill="#ADCFD4"/>
<path d="M275.179 366.556H271.659V273.808H275.179V366.556Z" fill="#ADCFD4"/>
<path d="M340.363 366.556H336.841V273.808H340.363V366.556Z" fill="#ADCFD4"/>
<path d="M241.751 277.401H154.155V268.333H241.751V277.401Z" fill="#212637"/>
<path d="M211.25 329.6C211.25 329.6 203.297 338.384 203.476 339.5C203.656 340.616 221.853 364.549 224.5 364.316C227.147 364.081 227.231 359.548 226.601 357.906C225.971 356.265 218.197 332.3 218.197 332.3L211.25 329.6Z" fill="#212637"/>
<path d="M188.726 329.867C188.726 329.867 180.031 337.917 180.111 339.044C180.192 340.172 196.214 365.613 198.87 365.613C201.527 365.613 202.01 361.104 201.527 359.413C201.044 357.723 195.408 333.167 195.408 333.167L188.726 329.867Z" fill="#212637"/>
<path d="M224.033 274.841C220.946 289.501 210.529 330.405 210.529 330.405L219.77 335.935C219.77 335.935 235.551 295.857 240.577 274.841H224.033Z" fill="#F57E5D"/>
<path d="M205.497 274.841C200.935 289.831 187.89 330.775 187.89 330.775L196.136 336.332C196.136 336.332 217.986 295.756 226.029 274.841H205.497Z" fill="#F89A78"/>
<path d="M238.008 259.882C231.342 256.108 224.167 252.509 216.772 250.593L216.71 250.577C213.716 249.805 208.274 242.81 207.605 236.876C203.282 238.563 197.938 238.504 192.664 238.68C185.344 238.924 176.82 240.033 169.65 238.334C168.011 237.945 166.563 237.327 165.177 236.619C165.177 236.619 157.212 243.961 157.212 257.061C157.212 263.708 159.134 266.661 166.394 269.024C170.296 270.293 190.888 268.396 196.611 270.764C201.693 272.867 200.823 278.276 199.921 282.004C224.136 285.472 236.7 283.133 241.172 282.094C242.573 277.327 245.756 264.27 238.008 259.882Z" fill="#433A4B"/>
<path d="M304.663 236.756C304.663 236.756 284.048 236.641 276.811 231.816C269.572 226.989 268.308 207.803 278.821 199.961C289.333 192.12 291.513 189.707 291.975 184.537C292.436 179.367 292.327 167.635 305.941 167.584C319.296 167.535 318.144 178.472 319.16 185.436C319.868 190.283 326.536 197.437 332.373 201.9C339.871 207.631 348.256 241.581 304.663 236.756Z" fill="#212637"/>
<path d="M310.771 188.025C309.672 188.379 308.465 188.583 307.135 188.583C304.712 188.583 302.679 187.937 301.028 186.859C300.463 190.732 302.227 195.279 298.425 196.337C298.425 196.337 298.655 212.999 305.361 212.999C312.069 212.999 312.953 196.229 312.953 196.229C312.953 196.229 309.884 195.629 310.771 188.025Z" fill="#F57E5D"/>
<path d="M315.029 183.876C314.34 182.383 312.588 183.115 312.588 183.115C312.932 179.065 312.917 172.703 312.917 172.703L305.912 171.965L298.907 172.703C298.907 172.703 298.892 179.065 299.237 183.115C299.237 183.115 297.484 182.383 296.795 183.876C295.627 186.405 298.461 188.069 298.461 188.069C298.351 188.019 300.409 196.612 305.912 197.103C311.416 196.612 313.473 188.019 313.363 188.069C313.363 188.069 316.197 186.405 315.029 183.876Z" fill="#F89A78"/>
<path d="M313.9 172.592C313.9 172.592 310.224 182.071 300.113 181.381C300.113 181.381 300.443 182.991 299.84 184.541C299.84 184.541 298.445 180.568 296.88 181.456C295.316 182.344 294.713 183.852 294.713 183.852C294.713 183.852 293.248 172.607 300.529 170.108C307.811 167.609 313.9 172.592 313.9 172.592Z" fill="#212637"/>
<path d="M310.677 171.735C310.588 172.261 310.517 172.787 310.524 173.305C310.54 174.428 310.597 175.541 310.555 176.656C312.051 178.289 312.557 181.369 312.373 181.799C312.316 182.375 312.284 183.465 312.703 184.541C312.703 184.541 314.097 180.568 315.661 181.456C317.227 182.344 317.829 183.852 317.829 183.852C317.829 183.852 317.316 171.509 310.677 171.735Z" fill="#212637"/>
<path d="M324.217 223.105C322.191 217.22 323.24 201.413 323.24 201.413C320.741 200.63 310.952 196.044 310.952 196.044L304.608 211.38L297.917 196.152C297.917 196.152 290.023 199.945 287.524 200.728C287.524 200.728 287.027 217.22 285 223.105C285 223.105 291.196 233.224 285 255.903H304.608H324.217C318.021 233.224 324.217 223.105 324.217 223.105Z" fill="#F14957"/>
<path d="M325.492 222.86C324.992 221.408 324.828 216.232 324.64 213.74C323.708 216.239 322.609 221.704 321.656 224.175C318.436 232.521 314.961 235.98 305.608 236.133C298.143 236.256 291.155 224.168 290.371 221.943C289.46 219.363 288.345 216.897 287.408 214.387C287.256 217.807 286.925 220.971 286.275 222.86C286.275 222.86 292.471 232.979 286.275 255.657H325.492C319.296 232.979 325.492 222.86 325.492 222.86Z" fill="#DF313A"/>
<path d="M324.053 239.556C324.053 239.556 320.732 241.253 319.632 240.941C318.288 240.559 317.996 239.913 315.7 240.628C313.404 241.344 312.799 241.664 311.4 242.504C310.24 243.2 307.997 244.304 308.713 245.644C309.431 246.984 311.816 245.205 312.06 245.093C312.304 244.981 313.061 244.624 313.061 244.624C313.061 244.624 310.325 245.92 310.815 246.701C311.303 247.482 312.671 247.46 313.551 246.968C314.429 246.477 315.187 245.92 315.187 245.92C315.187 245.92 313.355 247.192 313.697 247.616C314.039 248.04 315.272 248.264 316.316 247.705C317.36 247.147 317.776 246.611 317.776 246.611C317.776 246.611 316.139 247.751 317.605 248.264C319.071 248.777 320.413 247.236 321.22 246.656C322.025 246.076 323.173 244.78 323.565 244.543C323.956 244.304 327.505 243.055 327.505 243.055L324.053 239.556Z" fill="#F89A78"/>
<path d="M308.812 246.04L299.165 230.233C299.165 230.233 296.283 228.719 296.429 232.139L307.843 246.87C307.843 246.87 311.156 250.582 308.812 246.04Z" fill="#212637"/>
<path d="M287.241 239.593C287.241 239.593 290.656 241.489 291.167 241.328C291.677 241.168 298.819 237.012 300.373 237.757C301.911 238.493 302.825 240.193 303.571 241.2C304.313 242.203 306.721 245.161 305.579 246.119C304.421 247.087 302.76 243.793 302.143 243.113C301.524 242.431 299.663 240.476 298.613 240.689C298.613 240.689 300.663 241.692 301.563 242.935C302.46 244.173 304.637 246.087 303.839 247.409C303.032 248.744 300.32 244.848 300.068 244.605C299.816 244.361 297.979 242.856 297.205 242.772C297.205 242.772 299.452 244.382 299.712 244.677C299.972 244.972 302.596 247.036 302.149 247.732C301.796 248.281 300.825 248.748 298.807 246.453C298.013 245.553 296.405 244.751 296.405 244.751C296.405 244.751 298.239 245.839 298.668 246.306C299.097 246.772 300.085 247.841 299.319 248.077C298.548 248.316 297.472 247.727 296.331 247.005C295.181 246.277 293.871 245.928 292.553 246.241C291.223 246.557 284.957 244.367 284.957 244.367L287.241 239.593Z" fill="#F89A78"/>
<path d="M303.961 238.082C303.961 238.082 306.628 238.963 307.141 240.111C307.653 241.259 306.779 241.915 306.144 241.669L303.961 238.082Z" fill="#F89A78"/>
<path d="M288.799 200.483C286.563 201.093 281.085 203.143 275.98 216.964C271.357 229.483 269.467 239.688 269.911 242.924C270.628 248.167 290.952 247.98 290.952 247.98L292.316 239.901C292.316 239.901 283.196 236.936 283.412 235.817C283.703 234.306 286.275 228.743 287.343 225.351C287.531 224.756 290.373 200.051 288.799 200.483Z" fill="#F14957"/>
<path d="M321.521 201.046C323.133 201.306 329.071 204.026 334.336 216.914C339.383 229.267 340.849 239.638 340.407 242.874C339.688 248.117 319.364 247.93 319.364 247.93L318 239.851C318 239.851 327.12 236.886 326.905 235.767C326.615 234.256 324.043 228.693 322.973 225.301C322.787 224.706 319.909 200.785 321.521 201.046Z" fill="#F14957"/>
<path d="M260.493 235.817L257.883 240.431C257.883 240.431 261.6 242.645 262.395 243.476C263.196 244.313 264.527 247.503 268.496 248.26C272.559 249.036 273.185 249.849 274.224 248.798C275.264 247.746 272.564 246.319 270.92 245.946C269.292 245.58 267.985 245.292 268.204 244.913C268.421 244.536 269.913 244.549 272.777 244.987C275.687 245.431 279.44 246.758 280.313 246.175C281.189 245.589 278.101 243.092 274.656 242.725C272.231 242.467 270.9 242.157 270.9 242.157C270.9 242.157 274.156 242.324 274.972 242.529C275.793 242.736 280.621 244.117 281.752 243.213C282.887 242.306 278.561 240.675 275.557 240.351C272.601 240.032 271.587 240.267 271.587 240.267C271.587 240.267 274.973 240.012 276.041 240.139C277.115 240.265 280.275 241.191 280.597 240.364C280.92 239.54 278.324 238.437 275.983 238.369C273.669 238.303 271.645 238.639 271.645 238.639C271.645 238.639 274.725 237.986 275.873 238.07C277.029 238.157 278.776 238.385 278.881 237.851C278.987 237.317 278.221 236.32 274.297 236.364C272.219 236.387 270.231 236.877 268.956 237.112C266.78 237.512 261.08 235.824 260.493 235.817Z" fill="#F89A78"/>
<path d="M130.321 367.252H127.608V247.423H130.321V367.252Z" fill="#6B8EA1"/>
<path d="M365.944 367.252H363.232V247.423H365.944V367.252Z" fill="#6B8EA1"/>
<path d="M370.552 247.421V250.599H123V247.421H370.552Z" fill="#6B8EA1"/>
<path d="M331.299 275.321C331.315 274.936 331.325 274.57 331.325 274.255C331.325 262.786 325.339 255.24 325.339 255.24H286.069C286.069 255.24 280.695 262.786 280.695 274.255C280.695 274.57 280.707 274.936 280.721 275.321H331.299Z" fill="#202930"/>
<path d="M294.597 331.613C294.597 331.613 284.669 343.428 283.508 345.941C282.348 348.456 285.184 351.615 289.053 350.325C292.921 349.036 304.332 336.013 303.817 334.401C303.301 332.789 300.712 331.024 300.712 331.024L294.597 331.613Z" fill="#212637"/>
<path d="M348.884 277.401H262.373V268.333H348.884V277.401Z" fill="#212637"/>
<path d="M304.753 273.108C304.375 268.518 305.207 260.153 297.637 260.153C286.184 260.153 288.528 276.625 288.709 278.458C290.511 296.713 294.597 331.613 294.597 331.613L300.712 330.856C300.712 330.856 304.924 275.187 304.753 273.108Z" fill="#F89A78"/>
<path d="M317.424 331.613C317.424 331.613 327.352 343.428 328.512 345.941C329.673 348.456 326.836 351.615 322.968 350.325C319.1 349.036 307.688 336.013 308.204 334.401C308.72 332.789 311.308 331.024 311.308 331.024L317.424 331.613Z" fill="#212637"/>
<path d="M307.268 273.108C307.645 268.518 306.815 260.153 314.384 260.153C325.836 260.153 323.492 276.625 323.312 278.458C321.511 296.713 317.424 331.613 317.424 331.613L311.308 330.856C311.308 330.856 307.096 275.187 307.268 273.108Z" fill="#F89A78"/>
<path d="M262.811 234.069L260.263 243.547C260.263 243.547 226.789 237.56 223.662 232.919C220.536 228.277 212.599 208.347 212.599 208.347C212.599 208.347 208.053 193.18 213.329 183.215C213.329 183.215 218.318 185.099 221.151 192.817C222.973 197.78 231.869 219.109 233.628 221.349C235.386 223.588 262.811 234.069 262.811 234.069Z" fill="#0F7DC2"/>
<path d="M172.275 241.243C172.275 241.243 175.213 241.703 175.841 241.72C176.468 241.739 184.756 237.389 185.617 238.043C186.478 238.694 194.597 244.704 194.314 245.827C194.03 246.949 191.732 246.203 187.441 242.365C187.441 242.365 193.18 246.673 192.022 247.645C190.864 248.617 185.892 243.832 185.892 243.832C185.892 243.832 191.051 247.91 189.771 248.753C188.491 249.596 183.981 244.779 183.981 244.779C183.981 244.779 187.52 248.396 187.002 248.968C186.483 249.539 184.21 248.469 181.767 246.055C181.767 246.055 181.314 245.791 179.955 246.464C178.596 247.137 170.436 245.522 170.436 245.522L172.275 241.243Z" fill="#F89A78"/>
<path d="M175.005 241.433L172.367 247.428C172.367 247.428 147.127 236.494 146.215 226.324C145.304 216.153 160.871 181.743 171.656 181.979C171.656 181.979 169.684 205.047 166.808 211.191C166.808 211.191 160.711 220.852 160.806 223.197C160.9 225.543 175.005 241.433 175.005 241.433Z" fill="#0F7DC2"/>
<path d="M268.8 161.676H242.917L229.04 173.007L235.279 161.676H228.92C227.819 161.676 226.926 160.784 226.926 159.683V133.995C226.926 132.893 227.819 132 228.92 132H268.8C269.901 132 270.795 132.893 270.795 133.995V159.683C270.795 160.784 269.901 161.676 268.8 161.676Z" fill="#C4D8DF"/>
<path d="M250.907 155.499H245.919V150.836H250.907V155.499ZM254.838 143.001C254.838 146.427 250.529 147.435 250.529 148.771V149.3H246.22V148.04C246.22 146.201 249.496 145.143 249.496 143.101C249.496 142.169 248.891 141.337 247.833 141.337C246.472 141.337 246.195 142.396 246.195 143.455C246.195 143.681 246.195 143.908 246.22 144.135H241.584C241.56 143.807 241.509 143.504 241.509 143.177C241.509 139.901 244.431 137.86 248.388 137.86C252.242 137.86 254.838 139.876 254.838 143.001Z" fill="#212637"/>
</svg>
