<svg width="492" height="494" viewBox="0 0 492 494" fill="none" xmlns="http://www.w3.org/2000/svg">
<path d="M250.639 493.621C239.826 493.623 231.325 491.572 226.214 487.011C217.705 479.416 216.63 467.913 218.089 455.839C218.089 455.839 380.135 342.66 318.07 322.432C275.554 308.576 266.499 298.913 280.098 259.16C289.723 231.027 327.267 222.281 306.058 159.924C307.506 159.537 275.35 312.773 276.769 312C276.769 312 369.645 201.633 366.456 191C366.425 190.875 260.661 347.505 245.879 336.948C237.831 330.76 247.164 117.195 253.641 97.8186C186.373 299.327 221.858 33.1027 261 76C213.344 78.1173 577.088 368.1 366.724 247C357.28 268.393 346.788 148.08 366.724 174C399.65 216.809 311.02 451.078 245.879 470.621C220.018 523.585 217.295 423 218.089 455.839C134.875 455.839 131.953 419.22 127.727 419.22C36.8525 419.22 -18.1792 355.508 35.0636 299.327C61.7138 271.205 147.977 214.352 92.8432 208.324C2.12653 198.405 -56.5281 154.597 84.4445 72.6866C84.4445 72.6866 202.078 0 285.452 0C303.159 0 319.306 3.27333 332.47 11.2187C401.299 52.764 303.056 159.171 333.748 159.171C336.564 159.171 340.46 158.279 345.676 156.356C361.479 150.532 378.079 147.771 394.175 147.771C443.744 147.771 488.634 173.923 491.549 217.301C496.725 294.331 363.123 353.132 381.79 353.132C382.322 353.132 382.978 353.084 383.766 352.987C393.005 351.853 401.634 351.291 409.506 351.291C453.532 351.291 473.875 368.907 444.672 402.875C407.126 446.552 302.434 493.617 250.639 493.621Z" fill="#D3D3D3"/>
<path d="M202.076 152.149L202.043 152.148C200.588 151.992 199.124 151.911 197.688 151.911C197.505 151.911 197.357 151.761 197.357 151.58C197.357 151.397 197.505 151.251 197.688 151.251C199.149 151.252 200.636 151.332 202.111 151.492C202.293 151.512 202.424 151.673 202.405 151.856C202.387 152.024 202.244 152.149 202.076 152.149ZM188.959 152.828C188.807 152.828 188.669 152.723 188.637 152.568C188.599 152.389 188.712 152.213 188.891 152.176C190.231 151.887 191.701 151.656 193.265 151.489C193.459 151.459 193.607 151.603 193.628 151.781C193.648 151.963 193.517 152.125 193.335 152.144C191.796 152.309 190.347 152.536 189.028 152.82L188.959 152.828ZM210.684 153.892L210.593 153.879C209.099 153.452 207.709 153.109 206.349 152.828C206.171 152.792 206.055 152.617 206.093 152.439C206.129 152.263 206.312 152.153 206.483 152.183C207.859 152.465 209.264 152.813 210.773 153.245C210.951 153.295 211.051 153.477 211.001 153.652C210.959 153.797 210.828 153.892 210.684 153.892ZM180.844 156.053L180.569 155.908C180.468 155.755 180.509 155.551 180.661 155.449C181.839 154.663 183.175 153.981 184.628 153.421C184.803 153.357 184.992 153.441 185.053 153.612C185.12 153.781 185.035 153.972 184.865 154.037C183.456 154.579 182.165 155.239 181.027 155.999L180.844 156.053ZM219.029 156.676L218.917 156.656C217.54 156.157 216.163 155.663 214.777 155.193C214.604 155.135 214.512 154.948 214.572 154.775C214.628 154.603 214.816 154.509 214.988 154.568C216.379 155.04 217.759 155.533 219.14 156.036C219.312 156.097 219.4 156.287 219.337 156.459C219.291 156.593 219.164 156.676 219.029 156.676ZM275.245 158.763C275.073 158.763 274.928 158.631 274.917 158.455C274.904 158.273 275.041 158.117 275.224 158.104C276.801 158 278.244 157.945 279.639 157.936H279.64C279.821 157.936 279.969 158.083 279.972 158.264C279.972 158.447 279.825 158.595 279.643 158.596C278.261 158.604 276.831 158.659 275.267 158.763H275.245ZM288.399 159.343L288.333 159.337C286.983 159.067 285.528 158.868 284.013 158.747C283.832 158.732 283.696 158.573 283.711 158.391C283.724 158.211 283.868 158.052 284.065 158.089C285.608 158.212 287.085 158.415 288.463 158.691C288.641 158.725 288.756 158.9 288.723 159.079C288.691 159.235 288.553 159.343 288.399 159.343ZM227.337 159.555L227.239 159.54C225.995 159.155 224.667 158.711 223.056 158.145C222.884 158.085 222.795 157.896 222.855 157.724C222.915 157.553 223.104 157.461 223.275 157.521C224.877 158.085 226.199 158.525 227.436 158.911C227.609 158.964 227.707 159.149 227.653 159.323C227.608 159.465 227.479 159.555 227.337 159.555ZM266.495 159.677C266.332 159.677 266.189 159.557 266.168 159.391C266.145 159.211 266.272 159.045 266.452 159.02C267.917 158.828 269.377 158.648 270.832 158.493C271.012 158.465 271.176 158.605 271.195 158.785C271.215 158.967 271.083 159.128 270.9 159.148C269.455 159.304 267.999 159.483 266.537 159.675L266.495 159.677ZM257.779 160.884C257.615 160.884 257.473 160.765 257.452 160.6C257.427 160.419 257.553 160.253 257.733 160.228C258.767 160.087 259.801 159.941 260.837 159.796L262.092 159.62C262.268 159.6 262.437 159.721 262.463 159.9C262.489 160.08 262.363 160.248 262.181 160.272L260.929 160.448C259.892 160.595 258.856 160.74 257.824 160.881L257.779 160.884ZM235.873 161.635L235.82 161.629C234.404 161.397 232.988 161.105 231.489 160.736C231.313 160.693 231.205 160.513 231.248 160.337C231.292 160.16 231.461 160.055 231.648 160.096C233.128 160.461 234.529 160.751 235.927 160.979C236.107 161.008 236.228 161.177 236.2 161.359C236.172 161.519 236.032 161.635 235.873 161.635ZM249.036 161.889C248.867 161.889 248.723 161.76 248.707 161.587C248.692 161.405 248.828 161.247 249.008 161.232C250.343 161.121 251.771 160.976 253.375 160.788C253.557 160.761 253.721 160.896 253.743 161.077C253.761 161.259 253.633 161.421 253.452 161.443C251.839 161.632 250.404 161.779 249.064 161.888L249.036 161.889ZM242.865 162.164C241.969 162.164 241.083 162.141 240.232 162.097C240.049 162.088 239.909 161.932 239.92 161.751C239.928 161.567 240.064 161.435 240.265 161.437C241.105 161.481 241.98 161.504 242.867 161.504H242.929C243.495 161.504 244.061 161.496 244.637 161.48C244.813 161.493 244.969 161.621 244.976 161.801C244.981 161.984 244.837 162.136 244.655 162.14C244.053 162.156 243.432 162.153 242.865 162.164ZM296.591 162.408L296.42 162.361C295.216 161.64 293.901 161.015 292.512 160.503C292.34 160.441 292.253 160.251 292.316 160.08C292.38 159.909 292.576 159.823 292.739 159.884C294.168 160.409 295.52 161.053 296.76 161.796C296.917 161.889 296.967 162.092 296.873 162.248L296.591 162.408ZM175.096 162.568L174.943 162.531C174.783 162.447 174.72 162.248 174.804 162.087C175.532 160.689 176.351 159.481 177.3 158.392C177.424 158.253 177.628 158.241 177.765 158.36C177.903 158.48 177.916 158.688 177.799 158.825C176.881 159.875 176.092 161.041 175.388 162.392L175.096 162.568ZM303.053 168.281L302.789 168.149C301.909 166.972 300.932 165.892 299.888 164.94C299.755 164.817 299.744 164.608 299.868 164.473C299.988 164.34 300.195 164.327 300.335 164.452C301.408 165.433 302.412 166.544 303.319 167.753C303.428 167.9 303.397 168.107 303.252 168.216L303.053 168.281ZM172.273 170.869L172.203 170.861C172.024 170.823 171.912 170.647 171.951 170.469C172.301 168.883 172.677 167.484 173.1 166.192C173.156 166.02 173.343 165.929 173.517 165.981C173.689 166.039 173.784 166.224 173.728 166.399C173.311 167.668 172.941 169.047 172.596 170.611C172.561 170.765 172.425 170.869 172.273 170.869ZM307.188 176.003C307.056 176.003 306.929 175.921 306.879 175.789C306.353 174.393 305.753 173.057 305.101 171.819C305.017 171.657 305.077 171.459 305.239 171.373C305.401 171.288 305.599 171.349 305.685 171.512C306.351 172.773 306.961 174.135 307.497 175.557C307.563 175.727 307.476 175.919 307.304 175.981L307.188 176.003ZM170.813 179.543L170.765 179.54C170.585 179.513 170.46 179.348 170.487 179.167L170.525 178.895C170.719 177.483 170.916 176.12 171.131 174.808C171.161 174.628 171.311 174.497 171.511 174.536C171.691 174.565 171.812 174.735 171.784 174.915C171.569 176.221 171.371 177.577 171.177 178.985L171.139 179.26C171.116 179.425 170.973 179.543 170.813 179.543ZM309.276 184.516C309.109 184.516 308.965 184.391 308.948 184.221C308.769 182.515 308.537 181.153 308.217 179.94C308.172 179.763 308.277 179.583 308.453 179.536C308.628 179.492 308.811 179.596 308.857 179.772C309.187 181.02 309.423 182.412 309.605 184.152C309.624 184.335 309.491 184.496 309.311 184.516H309.276ZM168.873 188.108L168.764 188.089C168.592 188.029 168.501 187.841 168.561 187.669C169.013 186.383 169.397 185.011 169.732 183.473C169.771 183.297 169.952 183.183 170.125 183.223C170.304 183.261 170.416 183.437 170.377 183.616C170.035 185.179 169.647 186.576 169.184 187.888C169.137 188.023 169.008 188.108 168.873 188.108ZM310.168 193.268C310.011 193.268 309.872 193.156 309.844 192.996C309.568 191.465 309.42 189.913 309.313 188.597C309.297 188.416 309.433 188.257 309.613 188.243L309.641 188.241C309.811 188.241 309.957 188.371 309.971 188.544C310.077 189.844 310.221 191.376 310.492 192.88C310.524 193.059 310.407 193.231 310.225 193.263L310.168 193.268ZM164.612 195.745L164.401 195.669C164.259 195.552 164.243 195.344 164.359 195.204C165.291 194.088 166.089 192.92 166.803 191.631C166.891 191.472 167.092 191.413 167.249 191.501C167.411 191.591 167.467 191.791 167.379 191.951C166.645 193.275 165.823 194.479 164.865 195.627L164.612 195.745ZM313.684 201.209L313.428 201.088C313.196 200.805 312.969 200.515 312.748 200.215C312.091 199.325 311.529 198.337 311.081 197.283C311.008 197.115 311.087 196.921 311.255 196.849C311.419 196.78 311.616 196.857 311.687 197.024C312.123 198.045 312.643 198.961 313.28 199.824C313.493 200.113 313.712 200.395 313.94 200.669C314.056 200.811 314.035 201.017 313.895 201.133L313.684 201.209ZM158.015 201.521L157.751 201.389C157.641 201.243 157.672 201.037 157.817 200.928L158.124 200.697C158.84 200.161 159.581 199.608 160.345 199.023C160.672 198.773 160.988 198.52 161.291 198.264C161.432 198.148 161.641 198.167 161.755 198.304C161.873 198.443 161.856 198.651 161.716 198.768C161.404 199.032 161.08 199.291 160.745 199.547C159.98 200.132 159.237 200.689 158.52 201.225L158.213 201.456L158.015 201.521ZM320.3 206.961L320.113 206.903C318.711 205.941 317.585 205.093 316.575 204.236C316.436 204.12 316.419 203.911 316.536 203.771C316.652 203.635 316.861 203.617 317 203.733C317.995 204.575 319.104 205.409 320.487 206.36C320.637 206.463 320.676 206.668 320.573 206.819L320.3 206.961ZM151.285 207.163L151.057 207.072C150.927 206.945 150.92 206.737 151.047 206.605C151.975 205.631 153.017 204.681 154.323 203.616C154.463 203.5 154.673 203.523 154.787 203.664C154.903 203.805 154.881 204.013 154.74 204.128C153.455 205.173 152.432 206.107 151.524 207.061L151.285 207.163ZM327.599 211.872L327.404 211.808C326.217 210.937 324.963 210.105 323.787 209.336C323.633 209.236 323.591 209.032 323.689 208.879C323.792 208.725 323.995 208.685 324.147 208.784C325.333 209.559 326.596 210.397 327.795 211.275C327.94 211.383 327.972 211.589 327.865 211.737L327.599 211.872ZM146.419 214.436L146.28 214.405C146.115 214.329 146.043 214.133 146.12 213.968C146.776 212.54 147.479 211.269 148.269 210.08C148.373 209.928 148.575 209.884 148.727 209.988C148.88 210.088 148.92 210.293 148.82 210.445C148.048 211.605 147.361 212.848 146.716 214.245C146.663 214.365 146.543 214.436 146.419 214.436ZM333.877 217.969L333.609 217.831C332.801 216.693 331.871 215.629 330.76 214.576C330.629 214.449 330.623 214.24 330.749 214.108C330.872 213.979 331.083 213.971 331.216 214.097C332.356 215.18 333.315 216.277 334.145 217.448C334.251 217.597 334.217 217.803 334.068 217.909L333.877 217.969ZM143.772 222.804L143.707 222.799C143.529 222.764 143.413 222.589 143.448 222.412C143.74 220.929 144.105 219.483 144.532 218.112C144.588 217.94 144.777 217.836 144.947 217.896C145.12 217.951 145.217 218.136 145.164 218.309C144.743 219.656 144.381 221.08 144.096 222.539C144.064 222.696 143.927 222.804 143.772 222.804ZM337.508 225.925C337.357 225.925 337.221 225.824 337.185 225.671C336.865 224.295 336.388 222.92 335.772 221.584C335.695 221.419 335.768 221.223 335.933 221.147C336.088 221.071 336.292 221.141 336.369 221.308C337.007 222.683 337.496 224.101 337.829 225.52C337.871 225.697 337.761 225.876 337.583 225.917L337.508 225.925ZM142.837 231.545H142.829C142.647 231.54 142.503 231.388 142.507 231.205C142.552 229.679 142.651 228.193 142.796 226.791C142.817 226.611 142.988 226.481 143.16 226.496C143.34 226.515 143.473 226.677 143.453 226.859C143.308 228.245 143.211 229.713 143.168 231.225C143.161 231.403 143.016 231.545 142.837 231.545ZM337.756 234.66L337.707 234.657C337.527 234.629 337.403 234.461 337.431 234.28C337.632 232.979 337.733 231.697 337.733 230.471C337.733 230.301 337.731 230.131 337.727 229.96C337.723 229.777 337.867 229.625 338.049 229.621H338.057C338.236 229.621 338.381 229.763 338.388 229.943C338.392 230.12 338.395 230.295 338.395 230.471C338.395 231.731 338.289 233.047 338.083 234.381C338.057 234.544 337.917 234.66 337.756 234.66ZM143.112 240.336C142.943 240.336 142.799 240.205 142.784 240.033C142.655 238.521 142.567 237.039 142.52 235.625C142.515 235.443 142.657 235.289 142.84 235.284C143.003 235.263 143.175 235.421 143.181 235.604C143.227 237.005 143.312 238.477 143.441 239.977C143.456 240.159 143.323 240.32 143.14 240.335L143.112 240.336ZM335.425 243.127L335.312 243.107C335.143 243.044 335.055 242.855 335.117 242.683C335.673 241.16 336.121 239.803 336.483 238.531C336.535 238.355 336.717 238.251 336.891 238.304C337.067 238.353 337.168 238.536 337.119 238.712C336.752 239.999 336.3 241.372 335.735 242.911C335.687 243.044 335.561 243.127 335.425 243.127ZM144.219 249.061C144.06 249.061 143.92 248.947 143.892 248.786C143.647 247.285 143.432 245.817 143.256 244.421C143.232 244.241 143.359 244.076 143.541 244.052C143.717 244.035 143.885 244.157 143.909 244.339C144.088 245.725 144.3 247.187 144.545 248.679C144.573 248.859 144.451 249.028 144.272 249.058L144.219 249.061ZM332.193 251.31L332.073 251.287C331.904 251.22 331.82 251.029 331.887 250.86C332.289 249.829 332.707 248.801 333.121 247.776L333.527 246.773C333.593 246.604 333.789 246.521 333.955 246.592C334.124 246.66 334.205 246.852 334.137 247.021L333.733 248.024C333.319 249.048 332.904 250.072 332.5 251.1C332.449 251.229 332.324 251.31 332.193 251.31ZM145.883 257.701C145.731 257.701 145.593 257.596 145.561 257.441C145.259 256.041 144.957 254.6 144.669 253.125C144.635 252.947 144.751 252.773 144.932 252.737C145.093 252.713 145.281 252.82 145.319 252.999C145.607 254.47 145.903 255.906 146.205 257.301C146.244 257.48 146.131 257.655 145.955 257.693L145.883 257.701ZM329.989 259.77L329.96 259.77C329.777 259.752 329.644 259.591 329.661 259.41L329.723 258.692C329.827 257.494 329.929 256.256 330.331 255.067C330.391 254.898 330.584 254.775 330.756 254.824C330.928 254.88 331.036 255.029 330.984 255.201L330.939 255.319C330.58 256.392 330.484 257.536 330.383 258.747L330.319 259.472C330.301 259.643 330.159 259.77 329.989 259.77Z" fill="#ADCFD4"/>
<path d="M277.029 174.367H237.564C236.475 174.367 235.591 173.484 235.591 172.393V146.973C235.591 145.884 236.475 145 237.564 145H277.029C278.119 145 279.003 145.884 279.003 146.973V172.393C279.003 173.484 278.119 174.367 277.029 174.367Z" fill="#71CBCD"/>
<path d="M277.029 172.028H237.564V147.34H277.029V172.028Z" fill="#D0DFE4"/>
<path d="M251.411 154.56V166.653L263.183 160.607L251.411 154.56Z" fill="#F14957"/>
<path d="M210.769 188.999C210.769 188.999 215.588 203.152 218.407 209.368C234.192 244.177 204.991 239.728 193.885 238.092C182.781 236.456 170.133 232.259 170.827 223.281C171.299 217.163 175 216.491 176.511 214.455C178.021 212.417 175.076 209.072 176.36 204.053C177.644 199.035 186.029 198.017 187.691 196.635C189.353 195.253 192.696 191.417 191.053 184.153C189.409 176.889 188.712 173.001 193.412 168.271C198.135 163.516 205.501 165.597 205.501 165.597L210.769 188.999Z" fill="#212637"/>
<path d="M265.199 243.068C264.196 242.291 260.299 244.492 257.491 245.413C255.891 245.939 252.652 246.08 250.157 246.105C250.079 247.477 249.892 248.839 249.601 250.177C251.368 250.256 252.744 250.584 254.039 250.488C255.453 250.381 258.008 250.035 258.997 249.852C259.924 249.68 261.463 249.643 262.143 250.209C265.273 252.815 267.024 252.998 267.444 252.061C267.509 251.913 264.988 249.68 264.156 248.779C265.531 250.016 268.901 252.473 269.611 251.705C270.145 251.125 266.996 248.256 265.667 247.091C267.073 248.301 270.688 251.317 271.561 251.07C273.948 250.398 266.203 243.845 265.199 243.068Z" fill="#F89A78"/>
<path d="M278.829 255.687H239.543V250.649H278.829V255.687Z" fill="#212637"/>
<path d="M253.253 245.416L251.876 251.136C251.876 251.136 233.776 249.176 227.624 246.316C221.471 243.456 215.295 228.813 215.295 228.813L220.001 210.363C220.001 210.363 229.099 234.397 232.277 237.417C235.455 240.436 253.253 245.416 253.253 245.416Z" fill="#F14957"/>
<path d="M326.473 235.429H249.879C247.841 235.429 246.188 233.776 246.188 231.737V185.543C246.188 183.504 247.841 181.852 249.879 181.852H326.473C328.512 181.852 330.165 183.504 330.165 185.543V231.737C330.165 233.776 328.512 235.429 326.473 235.429Z" fill="#212637"/>
<path d="M250.557 231.737V185.543C250.557 183.504 252.211 181.852 254.249 181.852H249.879C247.841 181.852 246.188 183.504 246.188 185.543V231.737C246.188 233.776 247.841 235.429 249.879 235.429H254.249C252.211 235.429 250.557 233.776 250.557 231.737Z" fill="#212637"/>
<path d="M288.319 248.66C288.319 248.66 290.013 232.385 282.599 226.876C282.599 226.876 280.903 225.499 283.684 223.909C286.465 222.321 294.172 220.493 296.793 225.26C299.416 230.028 301.164 238.371 300.052 248.66H288.319Z" fill="#212637"/>
<path d="M185.335 379.005H181.86V287.473H185.335V379.005Z" fill="#ADCFD4"/>
<path d="M249.663 379.005H246.188V287.473H249.663V379.005Z" fill="#ADCFD4"/>
<path d="M258.985 291.02H172.537V282.07H258.985V291.02Z" fill="#212637"/>
<path d="M219.463 338.044C219.463 338.044 210.645 345.727 210.691 346.841C210.737 347.955 225.784 373.528 228.405 373.606C231.025 373.687 231.636 369.253 231.211 367.57C230.784 365.889 225.956 341.499 225.956 341.499L219.463 338.044Z" fill="#212637"/>
<path d="M206.656 342.796C206.656 342.796 198.075 350.743 198.155 351.855C198.233 352.967 214.045 378.075 216.667 378.075C219.289 378.075 219.765 373.625 219.289 371.956C218.812 370.288 213.251 346.055 213.251 346.055L206.656 342.796Z" fill="#212637"/>
<path d="M212.205 255.022C212.205 255.022 223.356 260.331 236.18 265.331C244.319 268.505 255.689 272.664 255.319 281.396C255.048 287.764 229.416 349.131 229.416 349.131L217.763 343.304C217.763 343.304 239.091 291.652 238.72 288.143C238.349 284.634 235.871 287.739 214.784 285.827C193.697 283.913 187.3 279.904 187.445 269.892C187.591 259.881 193.103 245.899 201.637 242.343C210.171 238.787 212.205 255.022 212.205 255.022Z" fill="#433A4B"/>
<path d="M212.205 255.021C212.205 255.021 216.459 260.436 229.281 265.436C237.421 268.609 247.527 274.42 247.52 280.008C247.511 286.381 223.648 346.245 223.648 346.245L217.763 343.304C217.763 343.304 239.091 291.652 238.72 288.143C238.349 284.633 235.871 287.739 214.784 285.827C193.697 283.913 187.3 279.904 187.445 269.892C187.591 259.881 193.103 245.899 201.637 242.343C210.171 238.787 212.205 255.021 212.205 255.021Z" fill="#313041"/>
<path d="M206.428 247.381C206.428 247.381 209.817 261.519 217.869 264.908C225.92 268.299 244.416 272.089 244.407 281.011C244.4 287.385 216.809 350.508 216.809 350.508L202.667 343.887C202.667 343.887 221.349 292.811 220.873 289.315C220.396 285.819 222.255 287.536 201.12 286.264C179.985 284.993 177.135 280.959 176.976 270.947C176.817 260.936 189.795 247.381 189.795 247.381C198.217 243.568 206.428 247.381 206.428 247.381Z" fill="#433A4B"/>
<path d="M211.936 186.567C211.936 186.567 208.6 200.232 214.797 207.224C214.797 207.224 223.06 218.348 210.029 220.255C196.999 222.161 198.693 205.052 198.693 205.052C198.693 205.052 200.919 186.195 197.528 178.037C197.528 178.037 206.004 182.699 211.936 186.567Z" fill="#F57E5D"/>
<path d="M203.177 167.233C203.177 167.233 221.044 168.14 221.157 172.56C221.271 176.979 219.653 179.877 220.251 183.74C221.535 192.049 216.7 201.191 214.585 201.568C211.312 202.153 200.232 197.263 198.495 190.539C196.756 183.816 196.303 164.552 203.177 167.233Z" fill="#F89A78"/>
<path d="M220.2 246.236C220.2 246.236 223.935 246.713 224.728 246.713C225.523 246.713 235.852 240.913 236.964 241.708C238.077 242.503 248.565 249.812 248.247 251.243C247.929 252.672 244.995 251.812 239.428 247.111C239.428 247.111 246.844 252.355 245.413 253.625C243.983 254.898 237.521 249.021 237.521 249.021C237.521 249.021 244.195 253.996 242.605 255.109C241.017 256.221 235.137 250.289 235.137 250.289C235.137 250.289 239.745 254.739 239.109 255.48C238.475 256.221 235.561 254.951 232.383 251.984C232.383 251.984 231.8 251.665 230.105 252.567C228.409 253.467 218.028 251.718 218.028 251.718L220.2 246.236Z" fill="#F89A78"/>
<path d="M222.684 180.956C222.684 180.956 210.24 183.789 206.175 174.243C202.963 166.703 204.064 165.787 204.064 165.787C204.064 165.787 210.929 160.443 219.013 167.697C224.428 172.556 222.684 180.956 222.684 180.956Z" fill="#212637"/>
<path d="M205.104 165.591C205.104 165.591 211.72 171.401 208.053 176.921C204.747 181.899 206.932 184.571 206.24 187.909C206.24 187.909 204.651 187.177 204.311 185.628C203.971 184.08 203.455 180.148 201.377 180.715C199.3 181.281 197.361 183.853 201.364 187.139C201.364 187.139 203.543 191.615 200.725 195.147C200.725 195.147 190.061 185.989 193.149 175.676C196.237 165.361 205.104 165.591 205.104 165.591Z" fill="#212637"/>
<path d="M213.452 205.361C213.452 205.361 214.267 211.833 211.936 212.997C209.605 214.163 201.343 201.98 201.343 201.98C201.343 201.98 190.096 206.707 187.552 208.775C185.007 210.844 188.707 230.673 188.707 230.673C188.707 230.673 180.877 254.448 181.86 259.534C182.841 264.619 217.101 258.536 217.101 258.536C217.101 258.536 220.412 234.275 221.683 230.673C222.955 227.072 224.605 224.925 222.955 219.672C220.624 212.256 220.001 210.363 220.001 210.363C220.001 210.363 215.925 206.509 213.452 205.361Z" fill="#F14957"/>
<path d="M193.027 226.905C190.457 223.459 191.996 217.697 189.296 214.151C188.477 213.075 187.625 212.033 186.768 210.999C186.103 216.713 188.707 230.673 188.707 230.673C188.707 230.673 180.877 254.448 181.86 259.534C182.841 264.619 217.101 258.536 217.101 258.536C217.101 258.536 220.015 237.181 221.425 231.568C220.552 232.868 213.62 241.317 206.003 240.141C201.723 239.48 198.217 233.867 193.027 226.905Z" fill="#DF313A"/>
<path d="M199.051 183.185C199.051 183.185 198.845 185.823 201.092 186.435C202.016 186.687 201.925 189.577 202.669 192.489C204.087 198.027 203.185 201.796 199.063 203.401C196.105 204.555 191.92 205.469 187.161 208.805C182.401 212.141 185.461 198.225 191.467 194.699C197.472 191.172 199.051 183.185 199.051 183.185Z" fill="#212637"/>
<path d="M306.972 255.692H281.955C280.449 255.692 279.471 254.108 280.144 252.761L281.615 249.819C281.957 249.133 282.659 248.7 283.425 248.7H305.501C306.268 248.7 306.969 249.133 307.312 249.819L308.783 252.761C309.456 254.108 308.477 255.692 306.972 255.692Z" fill="#212637"/>
<path d="M345.181 261.561H126V255.692H345.181V261.561Z" fill="#6B8EA1"/>
<path d="M134.104 379.005H136.647V258.204H134.104V379.005Z" fill="#6B8EA1"/>
<path d="M334.535 379.005H337.077V258.204H334.535V379.005Z" fill="#6B8EA1"/>
<path d="M223.377 245.945L222.743 253.328C222.743 253.328 179.201 253.786 172.633 252.937C166.065 252.089 163.099 243.403 167.336 235.775C171.573 228.147 184.18 208.337 189.689 207.913C195.199 207.489 198.376 215.011 193.821 223.168C189.265 231.325 181.003 239.165 182.803 240.543C184.604 241.92 223.377 245.945 223.377 245.945Z" fill="#F14957"/>
</svg>
