<svg width="250" height="290" viewBox="0 0 250 290" fill="none" xmlns="http://www.w3.org/2000/svg">
<path d="M208.583 128.622H41.4166C37.5574 128.622 34.4283 125.313 34.4283 121.234V16.9496C34.4283 12.8706 37.5574 9.56213 41.4166 9.56213H208.583C212.443 9.56213 215.571 12.8706 215.571 16.9496V121.234C215.571 125.313 212.443 128.622 208.583 128.622Z" fill="#212637"/>
<path d="M204.884 111.248H44.7626V17.6744H204.884V111.248Z" fill="#D3D3D3"/>
<path d="M193.701 101.519H141.925V32.1932H193.701V101.519Z" fill="#A8E2E2"/>
<path d="M188.824 45.633H146.802V38.7246H188.824V45.633Z" fill="#F14957"/>
<path d="M188.824 58.4349H146.802V51.5266H188.824V58.4349Z" fill="#71CBCD"/>
<path d="M188.824 71.2368H146.802V64.3285H188.824V71.2368Z" fill="white"/>
<path d="M188.824 84.0387H146.802V77.1304H188.824V84.0387Z" fill="white"/>
<path d="M188.824 96.8422H146.802V89.9323H188.824V96.8422Z" fill="white"/>
<path d="M83.6805 40.6964C83.6805 40.6964 92.2104 40.7498 93.4008 46.6296C94.5907 52.5079 93.5327 59.1125 94.9877 63.2496C96.4425 67.3882 100.972 78.9296 91.2519 79.5828C81.5322 80.2359 79.9448 77.2952 77.5646 77.1869C75.1839 77.0785 71.6134 83.1461 64.5714 79.6759C57.5296 76.2072 60.6039 68.4046 63.6455 67.4599C66.6872 66.5169 65.5014 60.9636 64.7699 59.1125C63.2491 55.2669 62.1247 43.4356 72.5059 39.9501C80.8972 37.1346 83.6805 40.6964 83.6805 40.6964Z" fill="#212637"/>
<path d="M75.4939 62.0531C74.8624 69.9686 74.3576 79.3461 71.2755 86.0256C71.621 89.2333 73.2986 95.3313 81.1114 95.1162C87.7331 94.9346 89.6909 90.5548 90.2301 87.3029C87.1354 81.742 85.2548 74.2705 84.8268 66.9135C81.7998 66.9043 77.5984 63.6554 75.4939 62.0531Z" fill="#F57E5D"/>
<path d="M77.6989 43.6568C77.6989 43.6568 88.4099 44.2001 90.6238 46.541C92.8382 48.8819 92.7355 53.6371 93.3535 60.605C93.9717 67.5728 89.9206 75.2671 86.3501 76.2834C82.7795 77.2998 72.9612 70.8034 71.588 59.9701C70.2144 49.1368 73.5757 43.289 77.6989 43.6568Z" fill="#F89A78"/>
<path d="M158.17 75.5173C158.17 75.5173 163.411 69.3659 165.445 65.9811C167.449 62.6467 174.934 51.6455 176.493 53.3715C178.036 55.0837 171.593 64.1957 171.593 64.1957C171.593 64.1957 177.837 52.3902 180.024 53.6858C182.18 54.9662 174.229 65.3447 174.229 65.3447C174.229 65.3447 181.004 55.3599 182.167 56.7562C183.322 58.1419 181.948 60.3454 176.368 67.6338C176.368 67.6338 181.149 61.3542 182.309 63.3319C183.461 65.2959 178.008 70.8446 176.097 72.0685C174.161 73.3076 164.788 78.574 162.261 81.1621C162.261 81.1621 157.765 78.7128 158.17 75.5173Z" fill="#F89A78"/>
<path d="M175.588 65.5065C175.04 64.0049 172.82 64.1301 171.489 64.2567C169.857 64.4139 168.364 65.0045 167.3 66.3764C166.74 67.0997 166.297 67.8307 165.679 68.5128C164.49 69.8267 165.286 70.9392 165.659 72.3645C165.767 72.7796 168.371 73.1962 170.877 72.1341C172.692 71.365 174.55 69.2774 174.921 68.4655C175.4 67.4202 175.778 66.0269 175.588 65.5065Z" fill="#F7916C"/>
<path d="M166.792 67.2569C166.792 67.2569 172.752 62.984 174.602 64.2872C176.452 65.5904 174.808 67.2569 168.504 70.0098C168.504 70.0098 166.45 73.2679 165.011 73.6311C165.011 73.6311 162.894 69.5749 166.792 67.2569Z" fill="#F89A78"/>
<path d="M82.4615 41.0807C82.4615 41.0807 85.4033 54.6243 76.2711 56.3243C76.2711 56.3243 73.8685 59.767 75.1727 63.9758C76.477 68.1862 79.3957 77.1669 74.1261 79.2454C68.8554 81.3238 64.8732 77.936 67.0019 69.1781C69.1306 60.4202 69.1306 55.6285 70.435 49.242C71.7398 42.854 74.2338 38.1462 82.4615 41.0807Z" fill="#212637"/>
<path d="M77.2301 40.6016C77.2301 40.6016 77.9005 52.8343 87.9079 53.341C97.9158 53.8476 98.0117 46.3548 96.7666 44.5327C95.5215 42.7106 90.9726 35.5581 77.2301 40.6016Z" fill="#212637"/>
<path d="M87.3514 80.57C87.3514 80.57 83.7566 85.3633 81.9753 86.0881C80.1939 86.8115 73.1007 80.7653 73.1007 80.7653C73.1007 80.7653 63.3398 86.5215 55.2554 87.5363C55.2554 87.5363 48.0416 90.2878 45.3456 111.292H110.065C110.065 111.292 109.608 106.897 110.065 106.897C110.522 106.897 113.628 111.292 118.651 111.292C123.675 111.292 140.666 111.292 140.666 111.292C140.666 111.292 158.741 92.7721 167.099 79.8085L159.323 71.6366C159.323 71.6366 132.902 101.587 130.709 101.587C128.517 101.587 111.709 86.6665 111.024 86.2331C110.339 85.7982 92.9671 85.4975 87.3514 80.57Z" fill="#0F7DC2"/>
<path d="M100.376 129.109C100.376 129.109 98.3206 125.922 92.0864 127.007C85.8515 128.095 82.2205 139.191 82.2205 139.191H99.8961C99.8961 139.191 101.472 130.63 100.376 129.109Z" fill="#F14957"/>
<path d="M149.659 129.109C149.659 129.109 151.713 125.922 157.947 127.007C164.182 128.095 167.813 139.191 167.813 139.191H150.138C150.138 139.191 148.561 130.63 149.659 129.109Z" fill="#F14957"/>
<path d="M100.376 129.109C100.376 129.109 98.3206 125.922 92.0864 127.007C85.8515 128.095 82.2205 139.191 82.2205 139.191H99.8961C99.8961 139.191 101.472 130.63 100.376 129.109Z" fill="#DF313A"/>
<path d="M149.659 129.109C149.659 129.109 151.713 125.922 157.947 127.007C164.182 128.095 167.813 139.191 167.813 139.191H150.138C150.138 139.191 148.561 130.63 149.659 129.109Z" fill="#DF313A"/>
<path d="M100.672 97.2419C100.672 97.2419 94.5055 97.3869 89.9837 101.008C85.4618 104.629 67.7862 134.38 66.9641 136.786C66.1418 139.191 70.6529 141.192 76.4819 141.192C82.3102 141.192 85.0508 141.743 87.2431 139.191C89.4356 136.641 102.423 125.153 105.849 116.897C109.274 108.641 103.877 96.8116 100.672 97.2419Z" fill="#F14957"/>
<path d="M150.451 97.2419C150.451 97.2419 156.616 97.3869 161.139 101.008C165.66 104.629 183.337 134.38 184.158 136.786C184.981 139.191 180.468 141.192 174.641 141.192C168.812 141.192 166.072 141.743 163.879 139.191C161.686 136.641 148.698 125.153 145.273 116.897C141.847 108.641 147.245 96.8116 150.451 97.2419Z" fill="#F14957"/>
<path d="M130.747 79.6605H120.376L118.547 89.7888H132.575L130.747 79.6605Z" fill="#F57E5D"/>
<path d="M125.665 49.5244L125.561 49.5336L125.457 49.5244C119.821 49.5244 111.993 52.9214 111.993 62.6926C111.993 72.4638 114.289 85.2184 125.491 85.2184L125.561 85.2138L125.631 85.2184C136.833 85.2184 139.129 72.4638 139.129 62.6926C139.129 52.9214 131.302 49.5244 125.665 49.5244Z" fill="#212637"/>
<path d="M109.902 248.272L101.406 253.777C101.406 253.777 104.421 259.281 103.234 260.923C102.046 262.565 95.3779 270.58 95.1037 274.54C94.8298 278.498 96.9309 280.913 98.0269 280.526C99.1232 280.14 119.128 265.075 118.672 262.469C118.215 259.861 109.902 248.272 109.902 248.272Z" fill="#212637"/>
<path d="M140.304 248.272L148.799 253.777C148.799 253.777 145.785 259.281 146.972 260.923C148.16 262.565 154.829 270.58 155.102 274.54C155.376 278.498 153.276 280.913 152.179 280.526C151.083 280.14 131.078 265.075 131.535 262.469C131.992 259.861 140.304 248.272 140.304 248.272Z" fill="#212637"/>
<path d="M10.1681 290H6.93872V139.194H10.1681V290Z" fill="#6B8EA1"/>
<path d="M243.062 290H239.833V139.194H243.062V290Z" fill="#6B8EA1"/>
<path d="M250 139.191V143.189H0V139.191H250Z" fill="#6B8EA1"/>
<path d="M144.521 163.099C139.121 159.817 111.087 159.817 105.686 163.099C100.286 166.383 72.5157 187.917 72.5157 193.133C72.5157 198.348 102.661 258.123 102.661 258.123L113.713 252.159C113.713 252.159 95.312 202.114 97.5478 199.941C99.783 197.768 125.103 196.126 125.103 196.126C125.103 196.126 150.424 197.768 152.658 199.941C154.894 202.114 136.493 252.159 136.493 252.159L147.547 258.123C147.547 258.123 177.691 198.348 177.691 193.133C177.691 187.917 149.921 166.383 144.521 163.099Z" fill="#215084"/>
<path d="M132.011 85.8243C131.542 85.3283 127.548 85.6503 125.561 85.6503C123.574 85.6503 119.581 85.3283 119.111 85.8243C118.641 86.3218 115.457 93.8237 115.457 93.8237L125.561 96.0853L135.664 93.8237C135.664 93.8237 132.481 86.3218 132.011 85.8243Z" fill="#71CBCD"/>
<path d="M155.847 280.566C153.198 276.551 133.011 261.019 133.011 261.019H125.103H117.196C117.196 261.019 97.0075 276.551 94.3582 280.566C91.7098 284.583 92.2629 288.735 95.366 288.735H105.267C105.856 288.735 106.372 288.314 106.492 287.703C106.627 287.018 106.763 286.025 106.751 284.828C106.746 284.174 106.299 283.597 105.685 283.505C105.062 283.414 104.373 283.256 104.331 283.012C104.232 282.449 104.573 281.425 106.599 279.656C110.253 276.47 118.966 269.421 118.966 269.421L125.103 269.614L131.24 269.421C131.24 269.421 139.953 276.47 143.607 279.656C145.634 281.425 145.974 282.449 145.875 283.012C145.833 283.256 145.144 283.414 144.521 283.505C143.907 283.597 143.461 284.174 143.454 284.828C143.444 286.025 143.58 287.018 143.714 287.703C143.834 288.314 144.35 288.735 144.939 288.735H154.839C157.943 288.735 158.496 284.583 155.847 280.566Z" fill="#C4D8DF"/>
<path d="M125.103 196.126H117.835L121.469 265.461H128.737L132.371 196.126H125.103Z" fill="#C4D8DF"/>
<path d="M125.103 193.133H105.686C105.686 193.133 107.662 216.744 125.103 216.744C142.545 216.744 144.521 193.133 144.521 193.133H125.103Z" fill="#212637"/>
<path d="M159.045 98.594C154.112 91.6399 125.103 90.2878 125.103 90.2878C125.103 90.2878 96.0947 91.6399 91.1618 98.594C86.2288 105.545 99.748 163.1 104.316 172.37C108.883 181.641 125.103 181.449 125.103 181.449C125.103 181.449 141.323 181.641 145.891 172.37C150.458 163.1 163.977 105.545 159.045 98.594Z" fill="#D3D3D3"/>
<path d="M134.995 159.913C133.335 158.744 116.872 158.744 115.212 159.913C113.293 161.265 117.952 194.002 118.683 197.284C119.414 200.568 130.793 200.568 131.523 197.284C132.255 194.002 136.913 161.265 134.995 159.913Z" fill="#212637"/>
<path d="M163.098 199.941H87.1084V189.222H163.098V199.941Z" fill="#212637"/>
<path d="M61.3935 139.191H14.4632V131.254H61.3935V139.191Z" fill="#71CBCD"/>
<path d="M56.2546 131.254H9.32507V123.314H56.2546V131.254Z" fill="#F14957"/>
<path d="M221.559 120.39H218.883V121.95H220.844C223.057 121.95 224.85 123.845 224.85 126.185V126.269C224.85 128.608 223.057 130.503 220.844 130.503H218.883V132.063H221.559C224.577 132.063 227.026 129.476 227.026 126.285V126.168C227.026 122.977 224.577 120.39 221.559 120.39Z" fill="#212637"/>
<path d="M218.066 139.194H205.946C204.17 139.194 202.731 137.673 202.731 135.796V116.91H221.281V135.796C221.281 137.673 219.841 139.194 218.066 139.194Z" fill="#212637"/>
<path d="M211.38 136.635V118.495H204.369V134.692C204.369 136.302 205.603 137.607 207.126 137.607H211.545C211.463 137.296 211.38 136.98 211.38 136.635Z" fill="#0D1321"/>
<path d="M215.594 118.495V135.574C215.594 136.357 215.323 137.064 214.89 137.607H216.954C218.477 137.607 219.711 136.302 219.711 134.692V118.495H215.594Z" fill="#474B5C"/>
<path d="M93.3383 29.3777H55.992C54.9606 29.3777 54.1249 28.4941 54.1249 27.4045V1.97318C54.1249 0.883593 54.9606 -7.62939e-06 55.992 -7.62939e-06H93.3383C94.3696 -7.62939e-06 95.2059 0.883593 95.2059 1.97318V27.4045C95.2059 28.4941 94.3696 29.3777 93.3383 29.3777Z" fill="#71CBCD"/>
<path d="M93.3384 27.0383H55.9921V2.33945H93.3384V27.0383Z" fill="#A8E2E2"/>
<path d="M69.0951 9.56362V21.662L80.2359 15.6128L69.0951 9.56362Z" fill="#F14957"/>
</svg>
