<svg width="505" height="333" viewBox="0 0 505 333" fill="none" xmlns="http://www.w3.org/2000/svg">
<path d="M469.667 324C469.667 324 552.821 212.14 463.997 152.286C375.177 92.4306 401.637 111.074 379.902 63.9751C358.168 16.8763 297.694 -10.5989 223.047 25.7072C148.398 62.0129 89.8135 55.1443 77.5296 56.1252C65.2457 57.1065 11.3858 60.0503 1.9368 111.074C-7.51249 162.097 20.8351 168.966 18.0002 189.572C15.1653 210.177 -0.046936 224.896 1.88972 248.447C3.82638 271.994 6.66128 314.188 34.0636 324H469.667Z" fill="#D3D3D3"/>
<path d="M490.853 332.88H13.8271C13.8271 332.88 13.8348 332.87 13.8364 332.868C41.8742 299.516 98.3375 306.677 136.538 308.656C151.772 309.448 167.032 309.892 182.298 310.047C183.897 310.065 185.498 310.079 187.097 310.087C189.442 310.102 191.786 310.11 194.13 310.112C195.684 310.114 197.24 310.114 198.794 310.11C235.515 310.006 272.266 308.354 308.871 305.956C360.901 302.54 416.858 296.188 465.367 318.075C466.652 318.656 467.934 319.256 469.212 319.879C476.622 323.483 483.85 327.779 490.853 332.88Z" fill="#7979B2"/>
<path d="M339.288 67.3015H163.646C159.82 67.3015 156.719 70.5171 156.719 74.4839V199.742C156.719 203.709 159.82 206.925 163.646 206.925H229.173V226.661H273.76V206.925H339.288C343.115 206.925 346.217 203.709 346.217 199.742V74.4839C346.217 70.5171 343.115 67.3015 339.288 67.3015Z" fill="#0F7DC2"/>
<path d="M346.217 74.4816V199.742C346.217 203.708 343.454 206.924 340.045 206.924H335.051C338.465 206.924 341.225 203.708 341.225 199.742V74.4816C341.225 70.5148 338.465 67.3015 335.051 67.3015H340.045C343.454 67.3015 346.217 70.5148 346.217 74.4816Z" fill="#71CBCD"/>
<path d="M332.067 84.6876V189.958C332.067 193.687 329.152 196.709 325.554 196.709H177.382C173.784 196.709 170.869 193.687 170.869 189.958V84.6876C170.869 80.9579 173.784 77.9371 177.382 77.9371H325.554C329.152 77.9371 332.067 80.9579 332.067 84.6876Z" fill="#EFECF7"/>
<path d="M325.287 86.2856V189.218C325.287 190.65 323.671 191.82 321.697 191.82H179.756C177.782 191.82 176.166 190.65 176.166 189.218V86.2856C176.166 84.8541 177.782 83.6807 179.756 83.6807H321.697C323.671 83.6807 325.287 84.8541 325.287 86.2856" fill="#A8A1E2"/>
<path d="M276.077 226.599H272.583V206.863H276.077V226.599Z" fill="#71CBCD"/>
<path d="M251.142 171.9C251.142 171.902 251.142 171.902 251.142 171.902C251.138 171.9 251.132 171.9 251.126 171.898C251.132 171.9 251.136 171.9 251.142 171.9Z" fill="#242C37"/>
<path d="M283.997 235.383H221.763C220.407 235.383 219.305 234.242 219.305 232.835V228.281C219.305 226.874 220.407 225.733 221.763 225.733H283.997C285.354 225.733 286.454 226.874 286.454 228.281V232.835C286.454 234.242 285.354 235.383 283.997 235.383Z" fill="#71CBCD"/>
<path d="M281.365 235.383H220.581C219.223 235.383 218.123 234.242 218.123 232.835V228.281C218.123 226.874 219.223 225.733 220.581 225.733H281.365C282.723 225.733 283.823 226.874 283.823 228.281V232.835C283.823 234.242 282.723 235.383 281.365 235.383Z" fill="#212637"/>
<path d="M259.9 245.011C259.9 245.63 259.415 246.134 258.817 246.134C258.218 246.134 257.734 245.63 257.734 245.011C257.734 244.39 258.218 243.888 258.817 243.888C259.415 243.888 259.9 244.39 259.9 245.011Z" fill="white"/>
<path d="M308.906 302.012C308.906 302.012 206.067 302.012 198.519 302.012C191.228 294.666 190.439 285.263 198.519 279.729C206.28 279.729 308.906 279.729 308.906 279.729V282.396H305.408V299.028H308.906V302.012" fill="#4D4D84"/>
<path d="M305.409 299.028C305.409 299.028 207.681 299.028 200.585 299.028C195.536 295.344 195.389 285.773 200.585 282.396C207.877 282.396 305.409 282.396 305.409 282.396V299.028Z" fill="white"/>
<path d="M200.661 299.028C200.636 299.028 200.61 299.028 200.585 299.028C198.043 297.172 196.741 293.819 196.744 290.519C196.746 287.27 198.008 284.07 200.585 282.396C207.877 282.396 305.409 282.396 305.409 282.396V285.496C289.737 285.496 209.817 285.496 203.247 285.496C199.174 288.142 198.384 294.587 200.661 299.028" fill="#D6D2CB"/>
<path d="M301.076 321.118H304.574V324.1C304.574 324.1 201.735 324.1 194.187 324.1C189.132 319.007 187.203 312.93 189.185 307.837C190.061 305.581 191.705 303.516 194.187 301.818C201.947 301.818 304.574 301.818 304.574 301.818V304.484H301.076V321.118" fill="#383860"/>
<path d="M317.772 324.1C317.772 324.1 214.936 324.1 207.384 324.1C200.093 316.754 199.305 307.351 207.384 301.817C215.146 301.817 317.772 301.817 317.772 301.817V304.484L314.274 304.486V321.118H317.772V324.1Z" fill="#56548C"/>
<path d="M314.274 321.118C314.274 321.118 216.546 321.118 209.452 321.118C204.403 317.432 204.256 307.86 209.452 304.486C216.743 304.486 314.274 304.486 314.274 304.486V321.118Z" fill="white"/>
<path d="M209.526 321.118C209.5 321.118 209.475 321.118 209.452 321.118C206.909 319.26 205.607 315.909 205.609 312.609C205.611 309.36 206.873 306.159 209.452 304.486C216.743 304.486 314.274 304.486 314.274 304.486V307.016V307.584C298.602 307.584 218.684 307.584 212.113 307.584C208.041 310.23 207.251 316.677 209.526 321.118Z" fill="#D6D2CB"/>
<path d="M304.573 257.615C304.573 257.615 201.737 257.615 194.186 257.615C186.895 250.27 186.106 240.866 194.186 235.334C201.944 235.334 304.573 235.334 304.573 235.334V238.001H301.075V254.633H304.573V257.615" fill="#4D4D84"/>
<path d="M317.772 257.616C317.772 257.616 214.936 257.616 207.384 257.616C200.093 250.271 199.305 240.866 207.384 235.334C215.146 235.334 317.772 235.334 317.772 235.334V238.001H314.274V254.633H317.772V257.616Z" fill="#5C5C8E"/>
<path d="M314.274 254.633C314.274 254.633 216.546 254.633 209.452 254.633C204.403 250.949 204.256 241.376 209.452 238.001C216.743 238.001 314.274 238.001 314.274 238.001V254.633" fill="white"/>
<path d="M209.526 254.633C209.5 254.633 209.475 254.633 209.452 254.633C206.909 252.777 205.607 249.424 205.609 246.124C205.611 242.875 206.873 239.675 209.452 238.001C216.743 238.001 314.274 238.001 314.274 238.001V238.773V241.101C298.602 241.101 218.684 241.101 212.113 241.101C208.041 243.745 207.251 250.192 209.526 254.633" fill="#D6D2CB"/>
<path d="M314.329 279.86H200.214C197.263 279.86 194.872 277.381 194.872 274.322V262.834C194.872 259.775 197.263 257.296 200.214 257.296H314.209C315.117 257.296 315.852 258.06 315.852 259.001V278.28C315.852 279.153 315.169 279.86 314.329 279.86Z" fill="#383860"/>
<path d="M223.968 279.86H213.589V257.296H223.968V279.86Z" fill="#56548C"/>
<path d="M299.584 318.151H226.925C226.577 318.151 226.293 317.857 226.293 317.498V317.151C226.293 316.791 226.577 316.497 226.925 316.497H299.584C299.93 316.497 300.213 316.791 300.213 317.151V317.498C300.213 317.857 299.93 318.151 299.584 318.151Z" fill="#E3DCD5"/>
<path d="M289.229 313.692H216.569C216.223 313.692 215.938 313.398 215.938 313.038V312.566C215.938 312.205 216.223 311.911 216.569 311.911H289.229C289.575 311.911 289.859 312.205 289.859 312.566V313.038C289.859 313.398 289.575 313.692 289.229 313.692" fill="#E3DCD5"/>
<path d="M296.272 249.736H223.613C223.266 249.736 222.984 249.442 222.984 249.083V248.609C222.984 248.25 223.266 247.956 223.613 247.956H296.272C296.618 247.956 296.901 248.25 296.901 248.609V249.083C296.901 249.442 296.618 249.736 296.272 249.736" fill="#E3DCD5"/>
<path d="M297.889 290.821H225.231C224.885 290.821 224.601 290.527 224.601 290.168V289.694C224.601 289.335 224.885 289.041 225.231 289.041H297.889C298.237 289.041 298.521 289.335 298.521 289.694V290.168C298.521 290.527 298.237 290.821 297.889 290.821Z" fill="#E3DCD5"/>
<path d="M152.296 6.36974e-06L202.488 4.05114C205.89 4.05114 208.65 6.91168 208.65 10.4389L204.742 35.934C204.742 39.4612 201.982 42.3195 198.58 42.3195L196.211 42.4711C196.211 42.4711 194.805 47.9692 197.564 50.8275C197.564 50.8275 189.348 48.7696 188.021 42.995L156.204 45.0217C152.801 45.0217 150.043 42.1612 150.043 38.6362L146.134 6.38772C146.134 2.86054 148.893 6.36974e-06 152.296 6.36974e-06" fill="#0F7DC2"/>
<path d="M158.356 16.9844C158.356 17.7076 158.923 18.2943 159.62 18.2943H195.165C195.863 18.2943 196.427 17.7076 196.427 16.9844C196.427 16.2612 195.863 15.6745 195.165 15.6745H159.62C158.923 15.6745 158.356 16.2612 158.356 16.9844Z" fill="#EFECF7"/>
<path d="M158.356 22.5108C158.356 23.2351 158.922 23.823 159.62 23.823H195.165C195.862 23.823 196.427 23.2351 196.427 22.5108C196.427 21.7886 195.862 21.2007 195.165 21.2007H159.62C158.922 21.2007 158.356 21.7886 158.356 22.5108Z" fill="#EFECF7"/>
<path d="M158.356 28.0364C158.356 28.7614 158.923 29.348 159.62 29.348H195.164C195.861 29.348 196.427 28.7614 196.427 28.0364C196.427 27.3134 195.861 26.7268 195.164 26.7268H159.62C158.923 26.7268 158.356 27.3134 158.356 28.0364Z" fill="#EFECF7"/>
<path d="M126.76 245.562L136.797 265.245L123.233 264.12L126.76 245.562" fill="#6F5DC6"/>
<path d="M106.096 211.925C105.989 211.933 105.879 211.927 105.772 211.931C105.478 211.945 105.185 211.978 104.894 212.025C104.462 212.096 104.035 212.196 103.617 212.323C103.094 212.486 102.585 212.691 102.097 212.942C101.527 213.234 100.986 213.589 100.487 213.997C99.9131 214.467 99.3955 215.008 98.9433 215.602C98.4132 216.299 97.9744 217.069 97.6199 217.877C97.1912 218.853 96.8851 219.884 96.6719 220.932C96.4074 222.233 96.2841 223.562 96.2537 224.889C96.2427 225.373 96.2637 225.855 96.2694 226.339C96.2728 226.617 96.2853 226.886 96.2051 227.152C96.0781 227.575 95.8699 227.973 95.6066 228.322C95.2319 228.816 94.74 229.204 94.191 229.468C92.3625 230.35 86.4097 232.069 85.8995 240.178C85.3892 248.289 85.0491 250.228 82.1578 251.815C79.2665 253.402 80.1169 257.633 83.0082 259.571C85.8995 261.511 130.8 258.515 130.8 258.515C130.8 258.515 135.393 250.492 129.1 244.321C122.807 238.152 126.378 236.565 125.273 231.628C124.167 226.692 120 226.339 119.915 223.958C119.83 221.579 119.575 211 106.096 211.925" fill="#3D3C3B"/>
<path d="M118.073 233.466C116.674 238.546 112.72 237.77 107.991 236.267C103.262 234.766 100.56 229.429 101.959 224.348C103.356 219.268 108.323 216.364 113.052 217.867C117.781 219.368 119.47 228.385 118.073 233.466Z" fill="#EEA886"/>
<path d="M109.119 215.641C109.119 215.641 112.655 221.882 106.413 225.202C100.172 228.52 101.915 233.882 101.915 233.882C101.915 233.882 98.4864 232.385 99.2082 226.4C99.9302 220.413 98.1254 218.727 102.457 217.044C106.788 215.361 109.119 215.641 109.119 215.641" fill="#3D3C3B"/>
<path d="M113.26 235.379C113.26 235.379 112.081 239.447 113.663 240.57C115.245 241.693 106.548 241.46 106.548 241.46C106.548 241.46 105.846 236.61 107.3 234.399C108.758 232.181 113.26 235.379 113.26 235.379" fill="#EEA886"/>
<path d="M103.899 231.356C103.899 232.124 103.299 232.745 102.559 232.745C101.819 232.745 101.219 232.124 101.219 231.356C101.219 230.589 101.819 229.966 102.559 229.966C103.299 229.966 103.899 230.589 103.899 231.356Z" fill="#EEA886"/>
<path d="M109.044 227.907C109.044 228.34 108.706 228.691 108.288 228.691C107.871 228.691 107.532 228.34 107.532 227.907C107.532 227.474 107.871 227.123 108.288 227.123C108.706 227.123 109.044 227.474 109.044 227.907Z" fill="#3D3C3B"/>
<path d="M116.113 223.96C116.113 224.373 115.789 224.71 115.389 224.71C114.989 224.71 114.665 224.373 114.665 223.96C114.665 223.544 114.989 223.209 115.389 223.209C115.789 223.209 116.113 223.544 116.113 223.96Z" fill="#3D3C3B"/>
<path d="M108.735 225.796C108.737 225.827 107.754 226.119 107.659 226.155C107.096 226.366 106.506 226.596 106.09 227.072C105.911 227.278 105.797 227.53 105.695 227.789C105.599 228.03 105.521 228.363 105.349 228.551C105.325 228.471 105.336 228.377 105.342 228.293C105.376 227.832 105.404 227.348 105.543 226.911C105.737 226.302 106.334 225.776 106.849 225.479C107.359 225.183 108.669 224.791 108.735 225.796Z" fill="#3D3C3B"/>
<path d="M113.137 223.633C113.162 223.65 113.893 222.909 113.97 222.841C114.425 222.437 114.909 222.02 115.514 221.881C115.775 221.82 116.044 221.843 116.31 221.879C116.559 221.91 116.878 222.006 117.12 221.943C117.065 221.882 116.981 221.845 116.907 221.81C116.505 221.612 116.086 221.398 115.649 221.306C115.043 221.181 114.308 221.459 113.803 221.775C113.303 222.088 112.326 223.076 113.137 223.633" fill="#3D3C3B"/>
<path d="M97.3801 220.193C96.9714 221.524 96.5895 222.862 96.291 224.222C96.1407 224.9 96.0114 225.586 95.8957 226.272L95.8118 226.79L95.7713 227.048C95.7541 227.138 95.7273 227.236 95.7046 227.331C95.5815 227.707 95.3261 228.007 95.0505 228.236C94.7724 228.469 94.4654 228.644 94.1548 228.798C93.8436 228.951 93.5271 229.086 93.2082 229.208C92.8898 229.333 92.5698 229.449 92.2505 229.563L91.7722 229.735C91.6156 229.798 91.4633 229.857 91.3122 229.927C90.7105 230.213 90.1516 230.601 89.6285 231.032C89.1041 231.464 88.6118 231.944 88.1647 232.459L88.1627 232.461C88.136 232.492 88.0903 232.494 88.0606 232.467C88.0315 232.439 88.0288 232.392 88.0538 232.363C88.4958 231.822 88.9763 231.324 89.4985 230.868C90.0182 230.411 90.5874 230.007 91.2088 229.696C91.3638 229.619 91.5273 229.553 91.6856 229.486L92.1614 229.306C92.4786 229.184 92.7947 229.063 93.1067 228.935C93.4193 228.81 93.726 228.671 94.0224 228.518C94.3183 228.365 94.6043 228.193 94.8486 227.981C95.0924 227.769 95.2951 227.515 95.3851 227.221C95.4006 227.144 95.4195 227.074 95.4348 226.993L95.4749 226.733L95.5581 226.212C95.6728 225.52 95.8014 224.828 95.9513 224.142C96.101 223.456 96.2681 222.772 96.4545 222.096C96.6417 221.42 96.8517 220.752 97.0665 220.085C97.0954 219.995 97.189 219.948 97.2756 219.978C97.3612 220.007 97.4073 220.103 97.3801 220.193" fill="#3D3C3B"/>
<path d="M106.1 238.906C107.978 239.373 111.719 240.255 113.906 240.419C114.504 240.464 114.964 240.982 114.964 241.603V242.381C114.964 242.381 125.662 243.408 126.76 245.562C127.858 247.715 129.212 283.021 129.212 283.021H92.5378L95.1055 245.562C95.1055 245.562 99.3803 243.872 104.747 243.328L104.899 239.843C104.927 239.208 105.504 238.758 106.1 238.906" fill="#755CCD"/>
<path d="M108.879 275.374C107.698 277.42 106.513 279.466 105.333 281.516C105.036 282.034 96.8785 279.821 92.8289 278.729C91.7721 278.443 90.9961 278.234 90.707 278.169C88.2715 277.614 85.8319 277.052 83.3963 276.497C81.5263 276.068 79.3137 275.851 77.7408 274.626C76.812 273.899 76.1308 272.745 76.2051 271.537C76.2671 270.511 76.8451 269.607 77.4063 268.755C82.8472 260.416 89.4109 253.722 95.1034 245.562L93.8609 263.706C92.8991 264.874 90.1987 268.29 89.9928 268.288C91.1447 268.729 92.3005 269.166 93.4564 269.599C98.5875 271.545 103.731 273.468 108.879 275.374" fill="#6F5DC6"/>
<path d="M113.469 281.14H105.614L105.609 281.036C106.575 279.364 107.541 277.691 108.503 276.021L108.561 276.031C110.658 276.501 112.66 277.405 112.995 278.953L113.469 281.14" fill="#EEA886"/>
<path fill-rule="evenodd" clip-rule="evenodd" d="M147.571 283.021H113.376C112.399 283.021 111.809 282.194 112.063 281.181L117.823 258.221C118.077 257.208 119.084 256.381 120.061 256.381H154.256C155.232 256.381 155.824 257.208 155.569 258.221L149.809 281.181C149.555 282.194 148.548 283.021 147.571 283.021Z" fill="url(#paint0_linear)"/>
<path fill-rule="evenodd" clip-rule="evenodd" d="M116.336 283.021H100.738C99.9333 283.021 99.2764 282.341 99.2764 281.506C99.2764 280.672 99.9333 279.992 100.738 279.992H116.336C117.141 279.992 117.799 280.672 117.799 281.506C117.799 282.341 117.141 283.021 116.336 283.021Z" fill="url(#paint1_linear)"/>
<path fill-rule="evenodd" clip-rule="evenodd" d="M148.484 283.021H115.299C114.322 283.021 113.731 282.194 113.985 281.181L119.746 258.221C120 257.208 121.007 256.381 121.984 256.381H155.169C156.146 256.381 156.737 257.208 156.483 258.221L150.722 281.181C150.469 282.194 149.461 283.021 148.484 283.021Z" fill="#3D3D6B"/>
<path d="M113.117 229.8C113.082 229.8 113.047 229.784 113.023 229.755C112.978 229.7 112.985 229.617 113.037 229.572C113.104 229.516 113.175 229.467 113.243 229.418C113.326 229.361 113.404 229.306 113.469 229.241C113.634 229.075 113.63 228.924 113.456 228.738C113.356 228.632 113.278 228.551 113.207 228.481C112.927 228.199 112.787 228.056 112.116 227.064C112.076 227.007 112.09 226.927 112.146 226.886C112.202 226.844 112.279 226.858 112.319 226.917C112.976 227.889 113.111 228.026 113.381 228.297C113.452 228.369 113.532 228.451 113.634 228.559C113.901 228.843 113.905 229.159 113.643 229.425C113.561 229.508 113.469 229.57 113.381 229.633C113.315 229.678 113.253 229.721 113.197 229.768C113.174 229.79 113.146 229.8 113.117 229.8" fill="#3D3C3B"/>
<path d="M113.316 233.656C112.505 233.656 111.884 233.406 111.873 233.402C111.801 233.37 111.766 233.286 111.794 233.212C111.823 233.137 111.905 233.102 111.977 233.131C111.998 233.139 114.125 233.995 115.543 232.394C115.596 232.334 115.685 232.33 115.742 232.385C115.799 232.439 115.803 232.532 115.75 232.59C115.001 233.437 114.075 233.656 113.316 233.656" fill="#3D3C3B"/>
<path d="M125.345 235.236C125.403 236.002 125.56 236.761 125.823 237.48C126.085 238.199 126.452 238.877 126.903 239.492C127.81 240.723 129.037 241.689 130.375 242.414C130.47 242.465 130.507 242.585 130.457 242.683C130.409 242.781 130.294 242.818 130.2 242.771C128.81 242.054 127.512 241.078 126.528 239.794C126.037 239.153 125.631 238.44 125.337 237.676C125.041 236.913 124.857 236.104 124.78 235.287C124.764 235.124 124.878 234.981 125.034 234.965C125.19 234.95 125.329 235.067 125.344 235.228C125.344 235.23 125.344 235.234 125.345 235.236" fill="#3D3C3B"/>
<path d="M108.288 217.777C108.288 217.777 117.906 220.084 118.779 228.083C118.779 228.083 119.731 214.875 108.288 217.777Z" fill="#3D3C3B"/>
<path d="M162.44 310.322C162.44 310.322 61.6832 310.322 54.2861 310.322C47.1422 300.533 46.3703 288.001 54.2861 280.626C61.8885 280.626 162.44 280.626 162.44 280.626V284.181H159.014V306.348H162.44V310.322Z" fill="#4D4D84"/>
<path d="M175.373 310.322C175.373 310.322 74.6158 310.322 67.2187 310.322C60.0746 300.533 59.3022 288.001 67.2187 280.626C74.8211 280.626 175.373 280.626 175.373 280.626V284.181H171.945V306.348H175.373V310.322Z" fill="#5C5C8E"/>
<path d="M171.945 306.348C171.945 306.348 76.1946 306.348 69.2446 306.348C64.298 301.437 64.1524 288.679 69.2446 284.181C76.3873 284.181 171.945 284.181 171.945 284.181V306.348Z" fill="white"/>
<path d="M69.3178 306.348C69.2924 306.348 69.2677 306.348 69.2446 306.348C66.7514 303.872 65.478 299.406 65.4795 295.007C65.4812 290.678 66.7187 286.413 69.2446 284.181C76.3872 284.181 171.945 284.181 171.945 284.181V285.21V288.312C156.591 288.312 78.2898 288.312 71.8504 288.312C67.8613 291.838 67.0874 300.429 69.3178 306.348" fill="#D6D2CB"/>
<path d="M158.547 296.251H87.1432C86.6494 296.251 86.2454 295.832 86.2454 295.32V294.928C86.2454 294.417 86.6494 293.998 87.1432 293.998H158.547C159.041 293.998 159.445 294.417 159.445 294.928V295.32C159.445 295.832 159.041 296.251 158.547 296.251Z" fill="#E3DCD5"/>
<path d="M147.795 303.394H76.3908C75.8968 303.394 75.493 302.977 75.493 302.465V302.073C75.493 301.56 75.8968 301.143 76.3908 301.143H147.795C148.289 301.143 148.693 301.56 148.693 302.073V302.465C148.693 302.977 148.289 303.394 147.795 303.394Z" fill="#E3DCD5"/>
<path d="M133.282 172.914L110.347 174.765C108.793 174.765 107.532 176.073 107.532 177.685L109.318 189.334C109.318 190.947 110.579 192.252 112.133 192.252L113.216 192.322H113.216C113.216 192.322 113.858 194.835 112.598 196.14C112.598 196.14 116.352 195.199 116.958 192.56L131.497 193.486C133.051 193.486 134.312 192.179 134.312 190.568L136.098 175.833C136.098 174.221 134.837 172.914 133.282 172.914" fill="#0F7DC2"/>
<path d="M117.858 183.825C117.858 184.699 117.174 185.407 116.331 185.407C115.487 185.407 114.804 184.699 114.804 183.825C114.804 182.951 115.487 182.242 116.331 182.242C117.174 182.242 117.858 182.951 117.858 183.825Z" fill="white"/>
<path d="M122.686 183.606C122.686 184.48 122.002 185.189 121.159 185.189C120.315 185.189 119.632 184.48 119.632 183.606C119.632 182.732 120.315 182.022 121.159 182.022C122.002 182.022 122.686 182.732 122.686 183.606Z" fill="white"/>
<path d="M127.513 183.386C127.513 184.26 126.83 184.97 125.986 184.97C125.143 184.97 124.459 184.26 124.459 183.386C124.459 182.512 125.143 181.803 125.986 181.803C126.83 181.803 127.513 182.512 127.513 183.386Z" fill="white"/>
<path d="M415.117 226.24C411.191 219.883 407.258 206.091 407.258 206.091L400.881 205.436V205.107L400.297 205.272L399.714 205.107V205.436L389.439 208.203C389.439 208.203 389.096 220.203 385.168 226.558C381.289 232.841 384.075 240.687 400.297 239.531C416.522 240.687 418.995 232.521 415.117 226.24" fill="#3D3C3B"/>
<path d="M407.726 209.154C407.726 214.622 403.622 219.055 398.56 219.055C393.497 219.055 389.393 214.622 389.393 209.154C389.393 203.689 393.497 199.969 398.56 199.969C403.622 199.969 407.726 203.689 407.726 209.154Z" fill="#3D3C3B"/>
<path d="M398.255 203.183C390.332 203.042 391.016 210.304 391.016 210.304C391.016 210.304 390.71 214.145 391.809 217.4C392.365 219.041 393.075 219.923 395.299 221.518C395.265 222.057 394.983 225.396 394.826 228C394.735 229.452 394.858 230.566 394.858 230.566C394.858 230.566 397.619 230.693 402.148 230.446L402.049 229.29L401.352 227.785L401.334 225.371L401.171 221.653L401.525 221.326C403.14 220.085 404.263 218.753 404.832 217.426C405.548 215.764 405.7 213.179 405.7 210.304C405.7 210.304 406.173 203.324 398.255 203.183" fill="#F8BD8C"/>
<path d="M391.926 203.224C391.926 203.224 394.682 209.011 406.59 209.3C406.59 209.3 407.877 203.822 401.774 201.645C395.671 199.47 391.926 203.224 391.926 203.224Z" fill="#3D3C3B"/>
<path d="M390.235 210.263C390.235 210.263 393.91 209.145 394.384 202.85C394.384 202.85 390.662 203.438 390.235 210.263Z" fill="#3D3C3B"/>
<path d="M396.058 211.259C396.05 211.284 395.148 211.159 395.059 211.153C394.529 211.114 393.967 211.081 393.468 211.302C393.252 211.398 393.073 211.555 392.901 211.717C392.742 211.87 392.566 212.102 392.36 212.188C392.368 212.115 392.41 212.047 392.443 211.984C392.625 211.637 392.813 211.272 393.075 210.981C393.439 210.577 394.105 210.383 394.625 210.336C395.142 210.289 396.346 210.453 396.058 211.259" fill="#3D3C3B"/>
<path d="M400.698 211.3C400.708 211.326 401.599 211.142 401.689 211.13C402.219 211.057 402.773 210.987 403.287 211.175C403.509 211.255 403.695 211.4 403.878 211.551C404.045 211.694 404.235 211.914 404.445 211.984C404.431 211.914 404.389 211.847 404.349 211.786C404.145 211.453 403.939 211.1 403.658 210.828C403.273 210.448 402.595 210.299 402.073 210.285C401.554 210.271 400.364 210.516 400.698 211.3" fill="#3D3C3B"/>
<path d="M392.307 214.438C392.307 215.134 391.763 215.696 391.094 215.696C390.424 215.696 389.881 215.134 389.881 214.438C389.881 213.744 390.424 213.18 391.094 213.18C391.763 213.18 392.307 213.744 392.307 214.438Z" fill="#F8BD8C"/>
<path d="M406.861 214.438C406.861 215.134 406.317 215.696 405.648 215.696C404.977 215.696 404.433 215.134 404.433 214.438C404.433 213.744 404.977 213.18 405.648 213.18C406.317 213.18 406.861 213.744 406.861 214.438Z" fill="#F8BD8C"/>
<path d="M394.416 213.618C393.618 213.618 393.047 213.154 393.042 213.146C392.94 213.064 392.925 212.911 393.005 212.809C393.086 212.705 393.231 212.689 393.333 212.772C393.374 212.807 394.348 213.589 395.483 212.762C395.587 212.685 395.73 212.713 395.805 212.821C395.878 212.93 395.855 213.079 395.751 213.156C395.275 213.503 394.818 213.618 394.416 213.618Z" fill="#3D3C3B"/>
<path d="M402.061 213.619C401.26 213.619 400.694 213.154 400.683 213.146C400.585 213.064 400.57 212.911 400.649 212.809C400.731 212.705 400.876 212.69 400.974 212.772C401.016 212.805 401.992 213.591 403.127 212.762C403.232 212.686 403.375 212.713 403.449 212.821C403.523 212.931 403.499 213.08 403.394 213.156C402.918 213.503 402.46 213.619 402.061 213.619Z" fill="#3D3C3B"/>
<path d="M449.672 299.344C449.672 299.344 340.582 299.344 332.576 299.344C324.838 291.55 324.004 281.575 332.576 275.706C340.805 275.706 449.672 275.706 449.672 275.706V278.535H445.96V296.179H449.672V299.344Z" fill="#4D4D84"/>
<path d="M463.671 299.344C463.671 299.344 354.584 299.344 346.575 299.344C338.84 291.55 338.002 281.575 346.575 275.706C354.804 275.706 463.671 275.706 463.671 275.706V278.536H459.962V296.179H463.671V299.344" fill="#5C5C8E"/>
<path d="M459.964 296.178C459.964 296.178 356.294 296.178 348.77 296.178C343.417 292.269 343.255 282.115 348.77 278.535C356.504 278.535 459.964 278.535 459.964 278.535V296.178Z" fill="white"/>
<path d="M348.848 296.178C348.821 296.178 348.797 296.178 348.77 296.178C346.072 294.209 344.691 290.652 344.694 287.152C344.694 283.705 346.036 280.311 348.77 278.535C356.504 278.535 459.964 278.535 459.964 278.535V279.354V281.824C443.339 281.824 358.564 281.824 351.593 281.824C347.272 284.628 346.434 291.467 348.848 296.178Z" fill="#D6D2CB"/>
<path d="M460.017 322.938H338.968C335.838 322.938 333.302 320.308 333.302 317.065V304.878C333.302 301.635 335.838 299.004 338.968 299.004H459.891C460.854 299.004 461.634 299.814 461.634 300.811V321.263C461.634 322.188 460.911 322.938 460.017 322.938" fill="#F14957"/>
<path d="M364.17 322.938H353.159V299.004H364.17V322.938" fill="#DF313A"/>
<path d="M448.458 291.793H358.487C358.142 291.793 357.858 291.499 357.858 291.14V290.403C357.858 290.045 358.142 289.751 358.487 289.751H448.458C448.803 289.751 449.086 290.045 449.086 290.403V291.14C449.086 291.499 448.803 291.793 448.458 291.793Z" fill="#E3DCD5"/>
<path d="M385.618 228.918C381.53 229.524 371.74 253.35 374.662 258.802C377.582 264.253 393.653 270.613 393.653 270.613L392.775 261.224C392.775 261.224 381.77 256.377 382.646 253.35C383.525 250.322 389.855 239.013 389.855 239.013L385.618 228.918" fill="#DF313A"/>
<path d="M423.974 258.801C421.05 264.251 404.979 270.612 404.979 270.612L405.857 261.223C405.857 261.223 416.862 256.377 415.987 253.349C415.717 252.412 414.925 250.684 413.958 248.744C411.801 244.409 408.781 239.012 408.781 239.012L413.008 228.919C413.242 228.953 413.496 229.065 413.766 229.245C418.183 232.2 426.727 253.661 423.974 258.801" fill="#DF313A"/>
<path d="M421.92 276.464H379.335C378.08 276.464 377.065 275.412 377.065 274.113V251.096C377.065 249.798 378.08 248.744 379.335 248.744H419.651C420.905 248.744 421.92 249.798 421.92 251.096V276.464Z" fill="#3D3D6B"/>
<path d="M396.493 291.254C396.493 291.254 395.697 292.036 393.363 293.055C390.961 294.101 386.212 296.049 386.923 298.195C387.88 301.084 391.231 300.874 393.451 300.18C398.266 298.681 403.277 295.162 403.277 295.162L396.493 291.254" fill="#3D3D6B"/>
<path d="M402.248 283.717C410.393 277.556 414.647 273.003 423.787 267.246C425.963 265.876 427.451 265.466 431.226 267.001C434.437 268.308 434.094 274.036 432.34 276.423C427.08 283.59 406.814 293.484 402.719 294.985C400.953 295.63 394.707 290.178 397.243 287.57C398.493 286.284 400.046 285.383 402.248 283.717" fill="#9794D3"/>
<path d="M398.495 295.585C398.495 295.585 400.478 298.305 402.789 300.157C405.55 302.369 407.453 303.1 409.693 302.02C412.943 300.456 409.955 297.149 407.431 294.532C403.694 290.658 401.019 289.051 401.019 289.051L398.495 295.585Z" fill="#3D3D6B"/>
<path d="M398.909 287.493L402.382 290.468C402.382 290.468 403.587 291.483 404.198 292.663C405.332 294.856 401.418 299.306 398.877 296.69C396.338 294.074 394.068 291.252 394.068 291.252L398.909 287.493" fill="#F8BD8C"/>
<path d="M388.551 292.193C379.087 287.254 373.283 285.479 367.199 276.593C365.653 274.33 365.031 270.585 365.632 268.739C366.373 266.462 369.582 265.1 373.352 266.033C376.52 266.817 397.779 284.081 401.098 287.334C402.528 288.736 398.17 295.751 394.6 294.542C392.84 293.948 391.112 293.529 388.551 292.193" fill="#9794D3"/>
<path d="M414.771 248.744H384.777L385.618 228.92H413.007C413.24 228.953 413.495 229.065 413.764 229.245L414.771 248.744" fill="#F14957"/>
<path d="M401.094 224.513C401.622 224.513 401.879 224.485 402.071 224.993C402.288 225.556 402.543 226.612 404.091 226.908C406.764 227.419 411.572 227.607 413.554 229.246C413.755 229.412 413.828 229.692 413.749 229.945L412.577 233.712C412.496 233.974 412.265 234.155 411.995 234.162L387.31 234.831C387.004 234.838 386.738 234.619 386.676 234.309L385.78 229.777C385.71 229.424 385.926 229.081 386.267 229.006C387.678 228.701 391.203 227.519 393.689 226.917C393.949 226.855 394.092 226.686 394.122 226.412L394.379 225.091C394.417 224.762 394.685 224.513 395.005 224.513H401.094" fill="#F14957"/>
<path d="M388.719 217.27C388.846 217.368 388.828 217.438 388.81 217.507L388.759 217.71C388.724 217.848 388.683 217.981 388.642 218.114C388.56 218.379 388.466 218.639 388.369 218.896C388.174 219.41 387.957 219.911 387.745 220.409C387.329 221.408 386.905 222.414 386.43 223.394C386.192 223.884 385.95 224.368 385.687 224.848C385.554 225.089 385.416 225.326 385.268 225.555C385.117 225.788 384.969 226.004 384.826 226.233C384.259 227.131 383.717 228.083 383.561 229.139V229.141C383.551 229.194 383.503 229.231 383.452 229.222C383.4 229.214 383.367 229.169 383.372 229.118C383.416 228.559 383.584 228.018 383.799 227.511C384.013 227.003 384.271 226.519 384.547 226.049C384.685 225.816 384.833 225.583 384.974 225.359C385.112 225.132 385.24 224.899 385.362 224.661C385.607 224.187 385.837 223.697 386.062 223.207C386.506 222.224 386.931 221.232 387.337 220.225C387.546 219.723 387.756 219.227 387.942 218.724C388.037 218.473 388.123 218.22 388.2 217.967C388.238 217.84 388.274 217.713 388.307 217.585L388.356 217.393C388.363 217.328 388.376 217.266 388.532 217.23H388.537C388.604 217.215 388.667 217.232 388.719 217.27" fill="#3D3C3B"/>
<path d="M398.531 219.015C397.83 219.015 397.291 218.782 397.281 218.778C397.199 218.743 397.16 218.645 397.197 218.561C397.231 218.477 397.326 218.435 397.407 218.472C397.478 218.504 399.177 219.227 400.33 217.861C400.391 217.791 400.491 217.785 400.559 217.845C400.625 217.906 400.63 218.01 400.572 218.081C399.944 218.822 399.172 219.015 398.531 219.015" fill="#3D3C3B"/>
<path d="M398.174 214.68C398.169 214.68 398.161 214.678 398.156 214.678C398.106 214.67 398.072 214.619 398.078 214.564C398.159 214.075 398.195 213.696 398.177 212.985C398.174 212.93 398.216 212.887 398.271 212.885C398.323 212.885 398.365 212.926 398.365 212.981C398.383 213.702 398.344 214.106 398.266 214.598C398.258 214.645 398.219 214.68 398.174 214.68Z" fill="#3D3C3B"/>
<path d="M406.297 173.438C406.297 169.023 402.698 165.48 398.374 165.789C394.768 166.047 391.829 169.043 391.529 172.776C391.361 174.839 391.981 176.748 393.115 178.218C394.241 179.678 394.901 181.465 394.901 183.337V185.024C394.901 186.051 395.704 186.882 396.692 186.882H401.104C402.094 186.882 402.895 186.051 402.895 185.024V183.335C402.895 181.467 403.553 179.682 404.679 178.222C405.693 176.911 406.297 175.249 406.297 173.438" fill="#0F7DC2"/>
<path d="M401.846 190.982H395.953C395.591 190.982 395.298 190.678 395.298 190.304V188.497C395.298 188.123 395.591 187.821 395.953 187.821H401.846C402.207 187.821 402.5 188.123 402.5 188.497V190.304C402.5 190.678 402.207 190.982 401.846 190.982Z" fill="#56548C"/>
<path d="M399.213 170.091H399.21H399.213ZM399.268 183.821C399.155 183.821 399.05 183.77 398.979 183.682C398.247 182.788 397.501 180.854 398.008 179.553C398.173 179.126 398.464 178.786 398.724 178.489C398.955 178.222 399.173 177.969 399.289 177.685C399.662 176.752 399.095 175.627 398.593 174.634C398.464 174.379 398.352 174.148 398.249 173.925C398.015 173.399 397.711 172.606 397.795 171.771C397.866 171.026 398.317 170.158 399.16 169.903C399.255 169.874 399.357 169.886 399.447 169.936C399.536 169.985 399.599 170.07 399.628 170.17C399.657 170.27 399.646 170.376 399.596 170.468C399.549 170.56 399.468 170.626 399.37 170.656C398.948 170.783 398.601 171.287 398.546 171.849C398.483 172.494 398.738 173.152 398.937 173.593C399.032 173.807 399.145 174.032 399.265 174.271C399.843 175.416 400.494 176.715 399.985 177.985C399.822 178.395 399.538 178.722 399.289 179.012C399.061 179.276 398.824 179.547 398.709 179.847C398.338 180.795 398.963 182.451 399.554 183.176C399.62 183.255 399.654 183.357 399.643 183.461C399.636 183.566 399.588 183.66 399.512 183.729C399.444 183.788 399.357 183.821 399.268 183.821" fill="#EFECF7"/>
<path d="M300.443 136.311C300.443 136.311 303.531 131.319 304.644 128.625C305.759 125.931 310.234 116.594 311.663 117.573C313.092 118.552 309.084 126.385 309.084 126.385C309.084 126.385 312.62 116.58 314.53 117.123C316.441 117.666 311.263 126.799 311.263 126.799C311.263 126.799 315.523 118.192 316.639 119.022C317.754 119.853 316.876 121.77 313.212 128.14C313.212 128.14 316.338 122.672 317.519 123.953C318.701 125.235 314.89 130.254 313.506 131.438C312.121 132.622 305.584 137.631 304.02 139.744C304.02 139.744 300.515 138.566 300.443 136.311" fill="#F89A78"/>
<path d="M306.738 129.878C306.738 129.878 311.427 127.308 312.734 128.302C314.042 129.295 312.721 130.336 307.861 131.849C307.861 131.849 306.144 133.951 305.05 134.116C305.05 134.116 303.698 131.233 306.738 129.878Z" fill="#F89A78"/>
<path d="M306.968 138.941L299.85 133.976C299.85 133.976 286.674 154.031 285.917 153.423C285.159 152.814 278.874 131.716 274.104 129.564C274.104 129.564 271.694 131.227 270.318 136.093C269.345 139.537 269.204 145.087 269.413 150.559C269.413 150.559 281.828 168.294 286.22 167.711C290.611 167.126 306.968 138.941 306.968 138.941" fill="#433A4B"/>
<path d="M209.437 132.004C209.437 132.004 207.62 128.523 207.62 127.507C207.62 126.492 208.15 125.396 208.188 124.009C208.226 122.622 210.157 119.409 209.741 118.496C209.323 117.583 208.15 117.802 207.014 119.993C205.878 122.183 206.257 123.535 205.348 122.913C204.44 122.293 202.206 119.591 201.487 118.46C200.767 117.328 198.495 115.1 197.89 115.466C197.284 115.83 197.114 116.415 201.138 121.888C201.138 121.888 196.58 115.3 195.24 116.488C194.302 117.318 198.753 122.141 199.397 122.908C199.397 122.908 195.275 117.922 194.047 119.098C192.893 120.204 198.562 124.356 198.562 124.356C198.562 124.356 194.331 121.124 193.763 122.074C193.195 123.023 195.656 125.122 198.079 126.436C200.502 127.751 201.125 128.097 201.741 128.974C202.358 129.85 203.872 133.355 203.872 133.355C203.872 133.355 207.734 134.267 209.437 132.004Z" fill="#F89A78"/>
<path d="M260.42 109.452L251.804 110.719C251.804 110.719 251.311 126.235 244.496 127.477C244.496 127.477 242.073 152.888 251.085 150.77C260.096 148.652 264.941 126.6 264.941 126.6C264.941 126.6 256.997 124.481 260.42 109.452Z" fill="#F57E5D"/>
<path d="M261.095 97.8886C261.095 97.8886 251.798 94.1972 248.106 96.439C244.415 98.6797 244.717 106.41 244.167 109.953C243.307 115.49 245.782 120.895 247.285 121.423C248.79 121.95 260.412 118.918 262.257 110.809C264.102 102.701 263.282 99.2732 261.095 97.8886Z" fill="#F89A78"/>
<path d="M259.419 111.98C259.419 111.98 256.087 113.759 253.934 113.908C251.78 114.056 250.453 111.593 247.422 112.226C244.39 112.86 244.004 112.965 244.004 112.965C244.004 112.965 242.398 123.449 246.499 123.152C250.601 122.857 257.574 118.703 260.035 115.885C260.035 115.885 262.599 115.885 264.24 113.463C265.879 111.04 268.084 103.525 266.648 98.9764C265.214 94.4277 258.856 92.6481 256.189 94.7746C256.189 94.7746 254.155 93.1434 250.293 93.3409C246.431 93.5384 245.63 95.5155 243.989 96.7025C242.349 97.8886 240.743 97.8886 240.196 96.8669C240.196 96.8669 239.033 98.7458 241.119 101.976C243.203 105.206 245.61 104.712 248.858 103.986C252.105 103.261 256.138 100.163 256.138 100.163C256.138 100.163 255.968 106.623 257.643 108.997C257.643 108.997 258.257 109.261 258.496 108.997C258.736 108.732 258.565 105.371 260.445 106.129C262.324 106.888 261.094 110.71 259.419 111.98" fill="#212637"/>
<path d="M246.704 115.094C246.704 115.094 249.166 115.918 251.832 115.324C251.832 115.324 250.319 117.245 248.652 116.973C246.781 116.667 246.704 115.094 246.704 115.094" fill="white"/>
<path d="M262.354 124.265L254.382 128.423L248.184 124.835C248.184 124.835 245.027 133.976 245.936 144.344C246.844 154.712 248.586 162.16 255.855 152.522C263.125 142.884 265.824 127.623 262.354 124.265Z" fill="white"/>
<path d="M262.354 124.265L254.382 128.423L248.184 124.835C248.184 124.835 245.027 133.976 245.936 144.344C246.844 154.712 248.586 162.16 255.855 152.522C263.125 142.884 265.824 127.623 262.354 124.265Z" fill="#6B8EA1"/>
<path d="M252.883 133.173C252.883 133.173 248.602 155.526 248.964 155.954C249.199 155.668 251.806 162.016 253.312 155.954C254.483 151.238 254.626 133.687 254.813 133.474C254.813 133.474 257.049 131.153 258.355 130.01C259.212 129.26 260.042 128.492 260.842 127.697C261.051 127.331 261.253 126.963 261.43 126.569C261.312 126.835 261.196 127.102 261.08 127.368C261.571 126.445 262.139 125.578 262.765 124.763C262.639 124.576 262.502 124.408 262.354 124.264L254.382 128.423L248.184 124.835C248.184 124.835 248 125.373 247.737 126.313C248.389 127.189 248.977 128.074 249.486 128.922C250.138 130.009 252.883 133.173 252.883 133.173" fill="#212637"/>
<path d="M248.184 124.835C248.184 124.835 239.574 126.442 236.243 127.507C236.243 127.507 237.303 146.682 233.972 151.5L232.457 193.267C232.457 193.267 251.311 193.048 251.918 170.412C252.524 147.776 252.486 146.754 252.486 146.754L248.184 124.835Z" fill="#433A4B"/>
<path d="M250.849 149.366C250.842 149.752 250.512 150.058 250.111 150.052C249.712 150.044 249.394 149.726 249.402 149.341C249.408 148.954 249.739 148.648 250.139 148.655C250.539 148.662 250.856 148.981 250.849 149.366Z" fill="#212637"/>
<path d="M250.387 156.223C250.379 156.608 250.049 156.916 249.65 156.908C249.25 156.901 248.931 156.583 248.939 156.197C248.947 155.811 249.277 155.505 249.676 155.512C250.077 155.518 250.395 155.838 250.387 156.223Z" fill="#212637"/>
<path d="M249.925 163.08C249.918 163.465 249.588 163.771 249.188 163.765C248.787 163.758 248.47 163.439 248.477 163.054C248.485 162.668 248.815 162.361 249.215 162.369C249.614 162.375 249.932 162.694 249.925 163.08Z" fill="#212637"/>
<path d="M249.463 169.936C249.456 170.322 249.125 170.628 248.725 170.622C248.326 170.614 248.008 170.296 248.015 169.911C248.023 169.524 248.352 169.218 248.753 169.225C249.153 169.233 249.471 169.551 249.463 169.936Z" fill="#212637"/>
<path d="M274.104 129.564L262.354 124.265L252.486 146.754L250.387 173.026C250.387 173.026 250.631 196.119 271.076 193.267L269.413 150.895C269.413 150.895 269.258 135.375 274.104 129.564" fill="#433A4B"/>
<path d="M209.799 129.564L201.74 132.662C201.74 132.662 212.77 171.097 219.13 167.724C225.491 164.351 233.94 152.376 233.94 152.376C233.94 152.376 236.289 148.62 237.211 142.811C238.026 137.677 237.522 130.639 236.243 127.507C236.243 127.507 230.639 130.797 225.945 139.833C221.25 148.871 219.815 151.459 219.396 150.895C218.978 150.331 209.799 129.564 209.799 129.564" fill="#433A4B"/>
<path d="M254.382 127.842L248.838 123.766L247.499 124.965L249.646 132.286L254.382 128.865L258.648 132.711L262.765 124.449L260.697 122.367L254.382 127.842" fill="white"/>
<path d="M254.566 160.427L264.692 190.709L266.274 190.149L256.148 159.866L254.566 160.427Z" fill="#212637"/>
<defs>
<linearGradient id="paint0_linear" x1="155.629" y1="269.701" x2="112.004" y2="269.701" gradientUnits="userSpaceOnUse">
<stop stop-color="#1B1464"/>
<stop offset="1" stop-color="#1B1464"/>
</linearGradient>
<linearGradient id="paint1_linear" x1="117.799" y1="281.506" x2="99.2764" y2="281.506" gradientUnits="userSpaceOnUse">
<stop stop-color="#1B1464"/>
<stop offset="1" stop-color="#1B1464"/>
</linearGradient>
</defs>
</svg>
