<svg width="511" height="426" viewBox="0 0 511 426" fill="none" xmlns="http://www.w3.org/2000/svg">
<path d="M264.801 425.641C221.929 425.641 179.089 420.567 137.753 409.351C121.876 405.044 106.004 399.69 91.2827 392.384L99.1571 391.405L166.555 383.829C198.548 392.379 231.674 396.252 264.827 396.252C279.719 396.252 294.613 395.471 309.418 393.982C315.894 393.331 322.423 392.506 328.939 391.469L376.771 398.527C377.988 398.706 379.197 398.792 380.391 398.792C392.346 398.792 402.815 390.058 404.617 377.904L406.724 363.695C415.817 357.605 424.108 350.398 431.285 341.882C446.848 323.412 455.763 299.726 457.166 275.625C457.547 269.108 457.376 262.562 456.64 256.079C454.134 234 445.212 212.832 431.715 195.14L440.981 132.638C445.802 136.973 450.961 141.031 455.811 145.294C485.238 171.163 505.233 207.825 509.647 246.706C510.588 254.981 510.803 263.338 510.321 271.656C508.53 302.423 497.147 332.658 477.281 356.235C440.04 400.433 379.299 416.948 321.716 422.742C302.818 424.644 283.809 425.641 264.801 425.641V425.641ZM75.0754 383.167C68.3122 378.757 61.937 373.785 56.0894 368.143C26.3926 339.49 13.8555 295.1 21.5118 254.599C28.9243 215.389 53.2914 181.318 86.2256 160.818L118.562 193.078C105.895 202.238 95.147 214.069 87.2213 227.663L76.124 228.91L76.9835 229.619L73.6003 229.998L83.2785 235.048C79.1208 243.601 76.0439 252.737 74.2432 262.261C73.589 265.723 73.1241 269.217 72.8419 272.729L64.379 281.081L64.3534 281.084L64.3566 281.103L64.3149 281.145C63.8948 281.34 63.627 281.786 63.6799 282.27L75.0754 383.167V383.167ZM147.213 178.23L125.373 156.442C123.951 155.023 123.951 152.719 125.373 151.299L134.415 142.279C140.724 141.176 147.16 140.532 153.689 140.377C171.203 139.962 184.964 125.255 183.79 107.765C183.753 107.208 183.718 106.768 183.686 106.467C176.586 38.7577 238.604 1.62044e-05 299.6 1.62044e-05C314.462 1.62044e-05 329.266 2.30191 342.992 7.04644C366.488 15.1678 387.321 30.9835 401.619 51.2637C403.775 54.3238 405.586 57.4592 407.147 60.6472L307.954 46.0105C306.737 45.8314 305.529 45.7434 304.335 45.7434C293.478 45.7434 283.845 52.9482 280.818 63.373C236.993 67.7337 196.164 97.351 201.288 146.217C201.312 146.454 201.339 146.798 201.368 147.234C202.289 160.935 191.509 172.457 177.789 172.781C167.208 173.032 156.93 174.932 147.213 178.23" fill="#ECF2FA"/>
<path d="M264.818 396.252C231.666 396.252 198.539 392.38 166.546 383.829L245.388 374.967C248.863 378.116 253.28 380.305 258.273 381.043L328.931 391.469C322.415 392.506 315.885 393.331 309.409 393.982C294.605 395.472 279.711 396.252 264.818 396.252V396.252ZM406.716 363.695L431.707 195.14C445.204 212.832 454.126 234 456.632 256.079C457.368 262.562 457.539 269.108 457.158 275.625C455.755 299.727 446.84 323.412 431.277 341.882C424.1 350.399 415.809 357.605 406.716 363.695V363.695ZM245.518 299.877L241.274 262.306C241.216 261.789 240.815 261.397 240.316 261.335C240.259 261.273 240.193 261.218 240.119 261.174L225.424 252.068C228.706 250.154 231.797 247.794 234.611 244.985L245.418 234.205C249.499 230.134 249.499 223.534 245.418 219.463L208.535 182.666C206.494 180.631 203.821 179.614 201.146 179.614C198.474 179.614 195.799 180.631 193.758 182.666L175.317 201.065C174.595 201.785 173.649 202.145 172.705 202.145C171.759 202.145 170.815 201.785 170.093 201.065L147.204 178.23C156.921 174.932 167.199 173.031 177.78 172.78C191.5 172.457 202.28 160.935 201.36 147.234C201.331 146.797 201.304 146.453 201.28 146.217C196.155 97.3506 236.984 67.7332 280.809 63.3726C280.503 64.4283 280.264 65.5161 280.099 66.6326L245.518 299.877V299.877ZM72.833 272.729C73.1152 269.217 73.5802 265.723 74.2344 262.261C76.035 252.737 79.112 243.601 83.2696 235.048L84.0521 235.458L87.0329 237.916L89.1462 256.635L72.833 272.729ZM87.2125 227.663C95.1382 214.069 105.886 202.238 118.553 193.078L135.961 210.446L122.536 223.692L87.2125 227.663" fill="#D0DDF3"/>
<path d="M480.64 78.5816C471.911 78.5816 464.833 71.5224 464.833 62.8124C464.833 54.1023 471.911 47.0415 480.64 47.0415C489.37 47.0415 496.448 54.1023 496.448 62.8124C496.448 71.5224 489.37 78.5816 480.64 78.5816Z" fill="#F2F6FC"/>
<path d="M133.463 62.8125C123.339 62.8125 115.132 54.624 115.132 44.5239C115.132 34.4254 123.339 26.2384 133.463 26.2384C143.587 26.2384 151.793 34.4254 151.793 44.5239C151.793 54.624 143.587 62.8125 133.463 62.8125Z" fill="#F2F6FC"/>
<path d="M23.6743 419.421C10.6002 419.421 0 408.847 0 395.804C0 382.759 10.6002 372.185 23.6743 372.185C36.7484 372.185 47.3485 382.759 47.3485 395.804C47.3485 408.847 36.7484 419.421 23.6743 419.421Z" fill="#F2F6FC"/>
<path d="M294.372 125.739C294.372 171.969 256.808 209.447 210.466 209.447C164.127 209.447 126.559 171.969 126.559 125.739C126.559 79.5078 164.127 42.0303 210.466 42.0303C256.808 42.0303 294.372 79.5078 294.372 125.739" fill="#B092D0"/>
<path d="M268.746 186.024C268.54 186.024 268.335 185.946 268.18 185.789C267.867 185.477 267.867 184.97 268.18 184.658C283.876 168.999 292.521 148.178 292.521 126.032C292.521 103.885 283.876 83.0661 268.18 67.4056C252.482 51.7467 231.614 43.1214 209.414 43.1214C187.216 43.1214 166.348 51.7467 150.65 67.4056C150.338 67.7191 149.829 67.7191 149.517 67.4056C149.204 67.0936 149.204 66.5881 149.517 66.2746C165.516 50.3134 186.788 41.5217 209.414 41.5217C232.042 41.5217 253.314 50.3134 269.313 66.2746C285.312 82.2358 294.125 103.458 294.125 126.032C294.125 148.605 285.312 169.828 269.313 185.789C269.156 185.946 268.951 186.024 268.746 186.024" fill="#253460"/>
<path d="M274.318 125.736C274.318 160.917 245.732 189.437 210.467 189.437C175.205 189.437 146.618 160.917 146.618 125.736C146.618 90.5554 175.205 62.0353 210.467 62.0353C245.732 62.0353 274.318 90.5554 274.318 125.736" fill="white"/>
<path d="M210.477 190.236C174.828 190.236 145.825 161.3 145.825 125.735C145.825 90.1703 174.828 61.2345 210.477 61.2345C210.921 61.2345 211.278 61.5928 211.278 62.0343C211.278 62.4774 210.921 62.8342 210.477 62.8342C175.713 62.8342 147.428 91.0517 147.428 125.735C147.428 160.418 175.713 188.636 210.477 188.636C210.921 188.636 211.278 188.993 211.278 189.436C211.278 189.877 210.921 190.236 210.477 190.236" fill="#253460"/>
<path d="M227.015 137.91H209.645C206.083 137.91 203.184 135.018 203.184 131.464V107.439C203.184 104.345 205.696 101.84 208.796 101.84C211.895 101.84 214.407 104.345 214.407 107.439V126.713H227.015C230.114 126.713 232.627 129.219 232.627 132.312C232.627 135.404 230.114 137.91 227.015 137.91" fill="#253460"/>
<path d="M80.2026 154.813L170.591 244.986C188.272 262.626 216.938 262.626 234.619 244.986L245.426 234.206C249.507 230.135 249.507 223.535 245.426 219.464L208.542 182.667C204.462 178.596 197.846 178.596 193.765 182.667L175.324 201.066C173.881 202.506 171.543 202.506 170.1 201.066L125.371 156.443C123.949 155.024 123.949 152.721 125.371 151.3L143.557 133.157C147.638 129.086 147.638 122.488 143.557 118.417L105.675 80.6239C101.645 76.6041 95.1289 76.5465 91.0289 80.496L80.767 90.3833C62.5569 107.926 62.3036 136.956 80.2026 154.813Z" fill="#253460"/>
<path d="M83.0344 92.1988L133.824 142.869L135.566 141.131L143.559 133.156C147.64 129.085 147.64 122.486 143.559 118.415L105.678 80.6223C101.647 76.6025 95.1307 76.5449 91.0307 80.4944L80.7688 90.3816L83.0344 92.1988" fill="#F0F5FA"/>
<path d="M81.9735 90.3289L83.5962 91.6358L133.818 141.738L142.985 132.593C144.808 130.774 145.812 128.357 145.812 125.787C145.812 123.218 144.808 120.8 142.985 118.982L105.104 81.1885C101.407 77.4997 95.3412 77.4485 91.5812 81.0717L81.9735 90.3289ZM133.818 144.002L82.493 92.7971L79.5508 90.4392L90.4684 79.92C94.8537 75.6985 101.928 75.7577 106.238 80.0575L144.12 117.851C148.505 122.227 148.505 129.347 144.12 133.724L133.818 144.002" fill="#253460"/>
<path d="M186.357 193.539L237.145 244.208L238.887 242.471L246.881 234.496C250.96 230.425 250.96 223.825 246.881 219.756L208.999 181.963C204.969 177.941 198.453 177.885 194.353 181.835L184.09 191.722L186.357 193.539Z" fill="#F0F5FA"/>
<path d="M185.296 191.663L186.917 192.97L237.138 243.074L246.308 233.927C248.129 232.11 249.132 229.693 249.132 227.123C249.132 224.552 248.129 222.135 246.308 220.318L208.426 182.525C204.729 178.839 198.663 178.785 194.903 182.408L185.296 191.663ZM237.138 245.336L185.813 194.132L182.873 191.775L193.79 181.256C198.176 177.033 205.25 177.094 209.56 181.394L247.442 219.187C249.566 221.308 250.735 224.125 250.735 227.123C250.735 230.12 249.566 232.939 247.442 235.058L237.138 245.336" fill="#253460"/>
<path d="M86.918 86.2233L117.864 117.098Z" fill="#F0F5FA"/>
<path d="M117.873 117.895C117.668 117.895 117.462 117.816 117.305 117.66L86.3593 86.7865C86.0466 86.4745 86.0466 85.9674 86.3593 85.6555C86.6719 85.3436 87.1802 85.3436 87.4929 85.6555L118.44 116.529C118.753 116.84 118.753 117.348 118.44 117.66C118.283 117.816 118.078 117.895 117.873 117.895Z" fill="#253460"/>
<path d="M210.025 209.033L240.971 239.908Z" fill="#F0F5FA"/>
<path d="M240.959 240.706C240.756 240.706 240.55 240.627 240.393 240.47L209.446 209.597C209.133 209.285 209.133 208.778 209.446 208.466C209.758 208.155 210.267 208.155 210.579 208.466L241.527 239.34C241.84 239.651 241.84 240.159 241.527 240.47C241.37 240.627 241.165 240.706 240.959 240.706" fill="#253460"/>
<path d="M376.769 398.527L258.279 381.043C244.881 379.066 235.626 366.627 237.608 353.262L280.105 66.6347C282.087 53.2681 294.554 44.0351 307.952 46.0122L426.441 63.4962C439.838 65.4734 449.093 77.9121 447.111 91.2786L404.615 377.904C402.634 391.272 390.167 400.504 376.769 398.527" fill="#253460"/>
<path d="M396.333 365.152L249.222 343.442L289.353 72.7704L436.463 94.4776L396.333 365.152" fill="#F0F5FA"/>
<path d="M433.456 114.789L286.345 93.0816L289.357 72.771L436.467 94.4797L433.456 114.789" fill="#B092D0"/>
<path d="M320.265 363.12C318.562 363.12 316.911 363.662 315.517 364.692C313.803 365.963 312.686 367.823 312.375 369.933C312.061 372.041 312.59 374.146 313.863 375.856C315.137 377.568 317.002 378.683 319.116 378.995C323.483 379.641 327.553 376.619 328.197 372.268C328.508 370.16 327.979 368.057 326.706 366.347C325.435 364.633 323.568 363.52 321.455 363.208C321.059 363.15 320.66 363.12 320.265 363.12ZM320.291 380.681C319.824 380.681 319.354 380.646 318.88 380.575C316.343 380.203 314.105 378.865 312.575 376.811C311.047 374.754 310.412 372.23 310.787 369.698C311.163 367.167 312.505 364.934 314.563 363.41C316.622 361.885 319.157 361.245 321.691 361.626C324.227 362 326.466 363.338 327.995 365.392C329.523 367.445 330.158 369.971 329.783 372.502C329.078 377.254 324.968 380.681 320.291 380.681Z" fill="#F0F5FA"/>
<path d="M341.546 65.6273C341.23 65.6273 340.924 65.7281 340.666 65.9201C340.347 66.1552 340.14 66.4992 340.082 66.8911C340.024 67.283 340.122 67.6717 340.358 67.99C340.595 68.3067 340.94 68.5147 341.333 68.5723C341.729 68.6315 342.115 68.5307 342.434 68.2956C342.752 68.0604 342.96 67.7165 343.018 67.3246C343.076 66.9327 342.976 66.5423 342.74 66.2256C342.505 65.9073 342.158 65.7009 341.767 65.6434L341.546 65.6273ZM341.552 70.1879C341.403 70.1879 341.251 70.1767 341.099 70.1543C340.282 70.0344 339.562 69.6041 339.07 68.9434C338.58 68.2827 338.374 67.4702 338.496 66.6559C338.616 65.8433 339.048 65.1251 339.71 64.634C340.371 64.1429 341.18 63.9365 342.001 64.0613C342.816 64.1813 343.537 64.6116 344.028 65.2722C344.52 65.9329 344.724 66.7439 344.604 67.5581C344.378 69.0874 343.056 70.1879 341.552 70.1879Z" fill="#F0F5FA"/>
<path d="M351.815 67.1359C351.092 67.1359 350.457 67.6654 350.348 68.4012C350.29 68.7916 350.388 69.1819 350.623 69.5002C350.861 69.8169 351.207 70.0233 351.598 70.0825L389.13 75.6188C389.939 75.742 390.696 75.1806 390.815 74.3711C390.873 73.9808 390.775 73.5905 390.539 73.2738C390.302 72.9554 389.957 72.7491 389.564 72.6899L352.033 67.1535L351.815 67.1359ZM389.354 77.2361C389.202 77.2361 389.049 77.2249 388.896 77.2025L351.364 71.6645C350.548 71.5445 349.828 71.1143 349.337 70.4536C348.845 69.7929 348.64 68.9803 348.762 68.1661C348.882 67.3535 349.313 66.6352 349.974 66.1441C350.638 65.653 351.456 65.4531 352.267 65.5699L389.798 71.1078C390.614 71.2278 391.334 71.6581 391.827 72.3188C392.317 72.981 392.522 73.7921 392.401 74.6063C392.28 75.4189 391.849 76.1371 391.188 76.6282C390.65 77.0265 390.012 77.2361 389.354 77.2361Z" fill="#F0F5FA"/>
<path d="M396.96 282.334L294.338 267.19C292.668 266.944 291.114 268.097 290.865 269.764L286.927 296.323C286.68 297.991 287.835 299.543 289.506 299.787L377.243 312.735L386.281 325.172L387.891 314.306L392.128 314.931C393.798 315.177 395.354 314.027 395.601 312.36L399.539 285.799C399.785 284.132 398.631 282.58 396.96 282.334" fill="#CCDAF2"/>
<path d="M377.23 313.534L377.113 313.524L289.376 300.577C288.356 300.43 287.457 299.892 286.841 299.065C286.227 298.238 285.972 297.224 286.123 296.205L290.061 269.645C290.372 267.545 292.333 266.068 294.444 266.399L318.159 269.901C318.597 269.965 318.9 270.371 318.834 270.808C318.77 271.243 318.359 271.547 317.925 271.481L294.209 267.98C292.976 267.809 291.829 268.652 291.646 269.88L287.708 296.439C287.62 297.034 287.769 297.629 288.128 298.11C288.488 298.594 289.014 298.907 289.61 298.995L377.347 311.944C377.785 312.008 378.088 312.414 378.022 312.851C377.964 313.248 377.621 313.534 377.23 313.534Z" fill="#253460"/>
<path d="M413.259 172.279L310.637 157.137C308.966 156.89 307.411 158.041 307.164 159.707L303.226 186.269C302.979 187.936 304.132 189.488 305.803 189.734L393.54 202.68L402.579 215.118L404.19 204.252L408.426 204.876C410.097 205.124 411.652 203.972 411.898 202.305L415.836 175.744C416.084 174.077 414.93 172.527 413.259 172.279" fill="#CCDAF2"/>
<path d="M403.093 217.175L393.099 203.422L305.695 190.525C303.59 190.213 302.131 188.252 302.442 186.152C302.507 185.714 302.915 185.424 303.352 185.477C303.79 185.542 304.093 185.949 304.029 186.385C303.939 186.981 304.09 187.574 304.449 188.057C304.807 188.54 305.334 188.854 305.931 188.942L394 201.937L402.083 213.059L403.524 203.343L408.552 204.085C409.147 204.172 409.744 204.025 410.228 203.666C410.71 203.308 411.026 202.783 411.115 202.188L413.735 184.519C413.799 184.082 414.204 183.784 414.644 183.844C415.081 183.909 415.384 184.316 415.32 184.752L412.7 202.422C412.55 203.439 412.011 204.337 411.183 204.951C410.355 205.563 409.335 205.818 408.318 205.667L404.876 205.159L403.093 217.175" fill="#253460"/>
<path d="M283.38 206.5L386.002 221.643C387.673 221.89 388.826 223.441 388.58 225.108L384.642 251.669C384.394 253.336 382.84 254.487 381.169 254.241L293.432 241.295L281.171 250.587L282.782 239.723L278.547 239.099C276.877 238.851 275.722 237.301 275.969 235.634L279.907 209.072C280.154 207.405 281.709 206.253 283.38 206.5" fill="#B092D0"/>
<path d="M381.615 255.073C381.426 255.073 381.234 255.059 381.041 255.03L326.274 246.949C325.836 246.885 325.533 246.478 325.599 246.042C325.663 245.605 326.069 245.3 326.51 245.368L381.277 253.448C381.874 253.533 382.467 253.387 382.953 253.029C383.435 252.671 383.751 252.146 383.839 251.551L387.777 224.989C387.958 223.762 387.105 222.615 385.874 222.433C385.438 222.369 385.135 221.962 385.199 221.524C385.265 221.089 385.67 220.79 386.11 220.851C388.215 221.163 389.674 223.122 389.363 225.224L385.425 251.784C385.274 252.802 384.736 253.701 383.907 254.314C383.235 254.811 382.438 255.073 381.615 255.073" fill="#253460"/>
<path d="M396.333 365.152L249.222 343.442L252.915 318.538L400.026 340.247L396.333 365.152Z" fill="white"/>
<path d="M274.625 334.245C273.902 339.122 269.353 342.493 264.464 341.769C259.576 341.048 256.199 336.51 256.924 331.633C257.647 326.757 262.196 323.386 267.083 324.108C271.972 324.829 275.348 329.367 274.625 334.245Z" fill="#CCDAF2"/>
<path d="M383.136 358.437C382.749 358.437 382.358 358.41 381.964 358.35L286.626 344.282C284.519 343.971 282.657 342.859 281.387 341.151C280.117 339.444 279.588 337.346 279.901 335.242C280.486 331.3 283.897 328.445 287.775 328.445C288.167 328.445 288.563 328.474 288.96 328.535L384.3 342.604C388.651 343.243 391.667 347.297 391.025 351.64C390.439 355.589 387.024 358.437 383.136 358.437ZM287.796 330.048C284.686 330.048 281.957 332.318 281.487 335.477C281.238 337.158 281.658 338.833 282.675 340.199C283.69 341.562 285.176 342.452 286.861 342.698L382.199 356.768C382.509 356.813 382.818 356.835 383.124 356.835C386.237 356.835 388.971 354.564 389.439 351.406C389.687 349.725 389.266 348.049 388.251 346.686C387.236 345.321 385.749 344.432 384.064 344.186L288.726 330.115C288.414 330.07 288.102 330.048 287.796 330.048" fill="#E9DDF1"/>
<path d="M298.516 82.7041C298.189 82.7041 297.872 82.8081 297.605 83.0064C297.275 83.2496 297.06 83.6079 297.001 84.0142C296.94 84.4173 297.043 84.822 297.288 85.1499C297.532 85.4795 297.889 85.6922 298.297 85.753C299.127 85.8778 299.916 85.2971 300.039 84.4605C300.1 84.0558 299.999 83.6527 299.754 83.3231C299.509 82.9952 299.151 82.7825 298.745 82.7217L298.516 82.7041ZM298.523 87.3687C298.37 87.3687 298.216 87.3574 298.061 87.335C296.348 87.0823 295.162 85.4874 295.415 83.779C295.537 82.9504 295.976 82.221 296.65 81.7219C297.323 81.2228 298.151 81.0148 298.98 81.1396C300.692 81.3908 301.879 82.9856 301.627 84.6956C301.396 86.2489 300.051 87.3687 298.523 87.3687Z" fill="white"/>
<path d="M307.184 83.9848C306.435 83.9848 305.778 84.5319 305.666 85.2933C305.605 85.698 305.706 86.1011 305.951 86.4306C306.196 86.7586 306.554 86.9729 306.96 87.0321C307.365 87.0929 307.771 86.9921 308.1 86.7474C308.43 86.5042 308.643 86.1475 308.704 85.7412C308.764 85.3365 308.662 84.9318 308.417 84.6038C308.173 84.2743 307.816 84.0616 307.409 84.0008L307.184 83.9848ZM307.192 88.6494C307.037 88.6494 306.881 88.6381 306.726 88.6141C305.013 88.363 303.827 86.7681 304.078 85.0581C304.332 83.3513 305.933 82.1724 307.644 82.4187C308.473 82.5419 309.206 82.9786 309.706 83.6505C310.205 84.3223 310.412 85.1477 310.29 85.9763C310.166 86.8033 309.729 87.5328 309.055 88.0319C308.509 88.4366 307.861 88.6494 307.192 88.6494Z" fill="white"/>
<path d="M315.708 85.2391C315.382 85.2391 315.065 85.343 314.797 85.5414C314.467 85.7845 314.254 86.1428 314.193 86.5475C314.132 86.9523 314.234 87.3554 314.478 87.6849C314.723 88.0128 315.081 88.2272 315.487 88.288C316.322 88.4048 317.106 87.8321 317.231 86.9955C317.355 86.1604 316.774 85.3798 315.936 85.255L315.708 85.2391ZM315.713 89.9036C315.562 89.9036 315.406 89.8924 315.252 89.87C313.538 89.6157 312.354 88.0208 312.607 86.3124C312.86 84.6056 314.46 83.4251 316.171 83.673C317.884 83.9273 319.07 85.5222 318.817 87.2306C318.588 88.7839 317.242 89.9036 315.713 89.9036Z" fill="white"/>
<path d="M435.445 115.882L435.328 115.874L299.153 95.7795C298.715 95.7156 298.412 95.3093 298.478 94.8725C298.542 94.4358 298.946 94.1351 299.387 94.1975L435.562 114.292C436 114.356 436.303 114.763 436.239 115.201C436.179 115.598 435.838 115.882 435.445 115.882" fill="#253460"/>
<path d="M378.694 288.456L378.575 288.446L305.918 277.725C305.48 277.661 305.177 277.255 305.243 276.818C305.307 276.38 305.708 276.07 306.154 276.145L378.811 286.866C379.249 286.93 379.552 287.336 379.486 287.774C379.428 288.171 379.085 288.456 378.694 288.456" fill="white"/>
<path d="M335.664 290.941L335.545 290.931L304.622 286.369C304.184 286.303 303.881 285.899 303.945 285.46C304.009 285.025 304.41 284.718 304.856 284.787L335.781 289.351C336.219 289.415 336.522 289.821 336.456 290.258C336.397 290.654 336.055 290.941 335.664 290.941Z" fill="white"/>
<path d="M325.256 297.677L325.139 297.667L303.435 294.465C302.998 294.401 302.695 293.995 302.759 293.558C302.825 293.121 303.237 292.816 303.67 292.884L325.373 296.087C325.811 296.151 326.114 296.557 326.05 296.994C325.99 297.391 325.647 297.677 325.256 297.677Z" fill="white"/>
<path d="M377.408 297.099L377.29 297.089L345.33 292.373C344.893 292.309 344.59 291.903 344.655 291.466C344.72 291.031 345.122 290.723 345.565 290.793L377.526 295.507C377.962 295.571 378.265 295.977 378.201 296.416C378.141 296.812 377.8 297.099 377.408 297.099Z" fill="white"/>
<path d="M369.823 228.301L369.706 228.291L297.047 217.57C296.609 217.506 296.306 217.1 296.372 216.662C296.436 216.225 296.838 215.916 297.282 215.988L369.94 226.711C370.377 226.775 370.68 227.181 370.616 227.618C370.557 228.014 370.214 228.301 369.823 228.301" fill="white"/>
<path d="M326.796 230.786L326.679 230.778L295.754 226.214C295.316 226.15 295.013 225.744 295.077 225.307C295.143 224.87 295.55 224.571 295.988 224.634L326.913 229.196C327.351 229.26 327.654 229.666 327.588 230.104C327.53 230.501 327.187 230.786 326.796 230.786" fill="white"/>
<path d="M358.932 243.804L358.809 243.794L296.102 234.089C295.665 234.022 295.365 233.612 295.434 233.177C295.501 232.74 295.913 232.443 296.349 232.508L359.054 242.213C359.492 242.281 359.791 242.69 359.724 243.125C359.662 243.52 359.32 243.804 358.932 243.804Z" fill="white"/>
<path d="M368.54 236.948L368.422 236.939L336.463 232.223C336.025 232.159 335.722 231.753 335.786 231.316C335.85 230.879 336.254 230.574 336.697 230.643L368.656 235.358C369.094 235.422 369.397 235.829 369.333 236.265C369.273 236.662 368.932 236.948 368.54 236.948Z" fill="white"/>
<path d="M296.543 106.651L399.165 121.795C400.836 122.041 401.99 123.593 401.743 125.26L397.805 151.82C397.558 153.489 396.003 154.639 394.332 154.392L306.595 141.445L294.335 150.74L295.945 139.874L291.71 139.249C290.04 139.004 288.885 137.452 289.132 135.785L293.07 109.223C293.317 107.556 294.872 106.406 296.543 106.651Z" fill="#B092D0"/>
<path d="M397.818 152.619L397.701 152.611C397.263 152.545 396.96 152.139 397.024 151.702L400.962 125.142C401.05 124.547 400.901 123.953 400.542 123.472C400.183 122.987 399.657 122.674 399.06 122.586L335.344 113.183C334.906 113.119 334.605 112.713 334.669 112.276C334.734 111.839 335.147 111.547 335.58 111.601L399.295 121.004C400.314 121.154 401.214 121.692 401.83 122.517C402.445 123.342 402.7 124.358 402.549 125.376L398.61 151.936C398.552 152.334 398.209 152.619 397.818 152.619" fill="#253460"/>
<path d="M382.991 128.453L382.872 128.445L310.213 117.723C309.775 117.659 309.474 117.252 309.538 116.814C309.602 116.377 310.003 116.08 310.449 116.14L383.106 126.863C383.544 126.927 383.847 127.333 383.783 127.771C383.723 128.168 383.382 128.453 382.991 128.453" fill="white"/>
<path d="M339.981 130.939L339.864 130.931L308.938 126.367C308.501 126.303 308.198 125.897 308.263 125.458C308.327 125.022 308.735 124.721 309.174 124.785L340.098 129.347C340.535 129.413 340.838 129.819 340.774 130.256C340.715 130.652 340.373 130.939 339.981 130.939" fill="white"/>
<path d="M372.118 143.955L371.993 143.945L309.287 134.24C308.851 134.173 308.549 133.764 308.618 133.327C308.686 132.892 309.101 132.599 309.534 132.66L372.24 142.365C372.677 142.434 372.977 142.842 372.908 143.278C372.847 143.673 372.506 143.955 372.118 143.955Z" fill="white"/>
<path d="M381.703 137.099L381.585 137.09L349.625 132.374C349.188 132.309 348.885 131.904 348.95 131.466C349.015 131.029 349.415 130.728 349.859 130.792L381.82 135.508C382.258 135.572 382.56 135.978 382.495 136.416C382.436 136.813 382.095 137.099 381.703 137.099Z" fill="white"/>
<path d="M395.067 179.418L394.948 179.408L322.291 168.687C321.853 168.622 321.55 168.215 321.615 167.779C321.679 167.342 322.08 167.04 322.525 167.104L395.184 177.826C395.622 177.891 395.925 178.298 395.859 178.734C395.8 179.131 395.458 179.418 395.067 179.418" fill="white"/>
<path d="M352.058 181.901L351.94 181.893L321.015 177.329C320.577 177.264 320.274 176.859 320.34 176.421C320.404 175.984 320.816 175.68 321.25 175.747L352.174 180.311C352.612 180.375 352.915 180.781 352.85 181.22C352.791 181.616 352.45 181.901 352.058 181.901Z" fill="white"/>
<path d="M341.63 188.641L341.511 188.631L319.807 185.431C319.37 185.365 319.066 184.959 319.131 184.522C319.196 184.085 319.604 183.781 320.041 183.847L341.745 187.049C342.183 187.115 342.486 187.521 342.422 187.958C342.362 188.355 342.019 188.641 341.63 188.641Z" fill="white"/>
<path d="M393.78 188.059L393.661 188.051L361.702 183.334C361.264 183.27 360.961 182.864 361.027 182.425C361.091 181.99 361.492 181.685 361.938 181.752L393.897 186.468C394.335 186.533 394.638 186.939 394.572 187.376C394.514 187.773 394.171 188.059 393.78 188.059Z" fill="white"/>
<path d="M247.32 373.945L82.7207 392.446C79.5587 392.802 76.7079 390.533 76.3519 387.377L64.4705 282.18C64.4513 282.014 64.5716 281.863 64.7383 281.844L240.145 262.128C240.311 262.109 240.462 262.231 240.481 262.396L252.366 367.633C252.719 370.765 250.461 373.591 247.32 373.945" fill="#F795B4"/>
<path d="M65.3328 282.584L77.158 387.287C77.4627 389.998 79.9127 391.966 82.6401 391.651L247.24 373.15L247.329 373.945L247.24 373.15C248.546 373.002 249.717 372.356 250.536 371.332C251.356 370.307 251.726 369.024 251.579 367.722L239.75 262.979L65.3328 282.584V282.584ZM82.0822 393.281C78.7887 393.281 75.941 390.806 75.5642 387.466L63.6829 282.27C63.6155 281.666 64.0532 281.118 64.6577 281.05L240.064 261.334C240.678 261.266 241.219 261.702 241.286 262.307L253.172 367.545C253.366 369.271 252.876 370.969 251.79 372.329C250.703 373.687 249.151 374.544 247.419 374.74L82.8197 393.241C82.5712 393.27 82.3259 393.281 82.0822 393.281" fill="#253460"/>
<path d="M90.7481 392.45C90.6856 392.45 90.6487 392.421 90.6343 392.363L91.1249 392.309C91.1778 392.334 91.2275 392.36 91.2789 392.386L90.7722 392.448C90.7642 392.45 90.7561 392.45 90.7481 392.45" fill="#C0C4D1"/>
<path d="M91.2804 392.384C91.2291 392.358 91.1794 392.333 91.1265 392.307L99.1548 391.405L91.2804 392.384" fill="#B0B9D4"/>
<path d="M239.423 373.274L228.177 363.368L225.068 360.341C232.405 366.556 238.081 371.529 239.423 373.274V373.274ZM182.888 319.262L182.782 319.158L185.758 316.428L182.888 319.262ZM94.0983 300.433L65.3408 282.713L65.3264 282.582L91.7476 279.613L94.0983 300.433V300.433ZM211.208 291.302L208.406 266.501L239.721 262.98C239.728 262.98 239.736 262.978 239.744 262.978L239.758 263.111L211.208 291.302" fill="#B8799B"/>
<path d="M90.632 392.361C90.6143 392.296 90.6288 392.19 90.672 392.049L124.95 388.197L99.1509 391.405L91.1226 392.307L90.632 392.361ZM65.3381 282.713L65.1569 282.603L65.3236 282.584L65.3381 282.713V282.713ZM64.4706 282.179C64.4706 282.174 64.4706 282.168 64.469 282.163L64.4722 282.181L64.4706 282.179ZM239.755 263.111L239.74 262.977C239.809 262.967 239.876 262.951 239.941 262.927L239.755 263.111Z" fill="#253460"/>
<path d="M64.7436 281.847L137.281 210.281C141.605 206.002 148.306 205.239 153.486 208.435L239.704 261.855C239.85 261.946 239.8 262.172 239.627 262.191L64.4421 281.882L64.7436 281.847" fill="#F795B4"/>
<path d="M146.552 207.252C143.379 207.252 140.238 208.476 137.847 210.844L66.9536 280.788L237.768 261.589L153.067 209.108C151.047 207.862 148.791 207.252 146.552 207.252V207.252ZM64.534 282.671L64.4009 281.494L64.1829 281.273L64.3576 281.1L64.3544 281.081L64.3801 281.078L136.719 209.706C141.324 205.15 148.395 204.344 153.91 207.748L240.13 261.17C240.484 261.388 240.66 261.81 240.571 262.216C240.479 262.624 240.139 262.93 239.726 262.978L64.534 282.671" fill="#253460"/>
<path d="M66.949 280.793L89.3807 258.662L91.5678 278.026L66.949 280.793V280.793ZM208.226 264.915L205.601 241.668L237.762 261.594L208.226 264.915V264.915ZM125.116 223.405L137.842 210.849C140.233 208.481 143.374 207.258 146.547 207.258C148.786 207.258 151.042 207.867 153.062 209.113L168.293 218.551L125.116 223.405" fill="#B8799B"/>
<path d="M64.4421 281.882L64.7436 281.847L89.2678 257.651L89.3833 258.664L66.9515 280.795L91.5704 278.027L91.6601 278.822L64.4421 281.882V281.882ZM208.318 265.71L208.229 264.917L237.765 261.596L205.604 241.669L205.49 240.657L239.704 261.855C239.85 261.946 239.8 262.172 239.627 262.191L208.318 265.71V265.71ZM123.831 223.55L137.281 210.281C139.817 207.772 143.175 206.471 146.561 206.471C148.947 206.471 151.346 207.114 153.486 208.435L169.581 218.409L168.295 218.553L153.065 209.115C151.044 207.869 148.788 207.26 146.55 207.26C143.377 207.26 140.236 208.483 137.845 210.851L125.119 223.406L123.831 223.55" fill="#253460"/>
<path d="M145.295 315.553L90.77 391.234L239.606 374.506L169.568 312.824C162.261 306.389 150.983 307.657 145.295 315.553" fill="#F795B4"/>
<path d="M158.676 309.511C158.096 309.511 157.512 309.543 156.93 309.608C152.538 310.101 148.541 312.438 145.961 316.02L92.4903 390.238L237.736 373.912L169.052 313.424C166.179 310.893 162.473 309.511 158.676 309.511V309.511ZM89.0798 392.231L144.659 315.086L145.31 315.553L144.659 315.086C147.502 311.139 151.91 308.562 156.751 308.02C161.591 307.476 166.461 309.009 170.113 312.224L241.506 375.099L89.0798 392.231" fill="#253460"/>
<path d="M73.5901 229.998L188.235 217.112C195.75 216.266 202.438 220.857 203.174 227.366L210.541 292.611L178.661 321.844L136.532 326.581L94.9188 300.615L87.7803 237.402L73.5901 229.998" fill="white"/>
<path d="M95.6877 300.145L136.735 325.756L178.325 321.082L209.713 292.3L202.391 227.457C202.062 224.544 200.434 221.946 197.808 220.143C195.145 218.316 191.784 217.524 188.34 217.91L76.2975 230.504L88.5445 236.893L95.6877 300.145ZM136.358 327.411L94.1805 301.092L87.0469 237.918L76.1292 228.912L188.16 216.32C191.988 215.891 195.736 216.779 198.717 218.825C201.732 220.895 203.603 223.897 203.986 227.279L211.399 292.927L179.026 322.613L136.358 327.411" fill="#253460"/>
<path d="M102.215 373.986L134.056 325.976L135.951 327.158L102.215 373.986" fill="#B8799B"/>
<path d="M225.067 360.341C222.737 358.367 220.241 356.268 217.662 354.111L180.628 321.494L182.887 319.262L225.067 360.341" fill="#B8799B"/>
<path d="M228.189 363.368L217.675 354.111C220.253 356.269 222.75 358.368 225.08 360.342L228.189 363.368V363.368ZM180.641 321.495L180.441 321.317L182.795 319.159L182.901 319.263L180.641 321.495" fill="#89658B"/>
<path d="M136.738 325.757L134.951 324.642L145.31 309.023C148.549 304.528 153.598 302.181 158.696 302.181C162.552 302.181 166.435 303.524 169.583 306.296L181.644 318.042L179.231 320.254L170.114 312.226C166.945 309.436 162.861 307.913 158.675 307.913C158.035 307.913 157.392 307.95 156.751 308.022C151.91 308.564 147.502 311.141 144.659 315.087L136.992 325.73L136.738 325.757" fill="#C0C4D1"/>
<path d="M135.942 327.16L134.047 325.978L134.932 324.642L136.72 325.757L136.973 325.73L135.942 327.16ZM180.421 321.319L179.212 320.254L181.625 318.042L182.774 319.161L180.421 321.319" fill="#253460"/>
<path d="M145.295 315.553L90.77 391.234L239.606 374.506L169.568 312.824C162.261 306.389 150.983 307.657 145.295 315.553" fill="#F795B4"/>
<path d="M158.676 309.511C158.096 309.511 157.512 309.543 156.93 309.608C152.538 310.101 148.541 312.438 145.961 316.02L92.4903 390.238L237.736 373.912L169.052 313.424C166.179 310.893 162.473 309.511 158.676 309.511V309.511ZM89.0798 392.231L144.659 315.086L145.31 315.553L144.659 315.086C147.502 311.139 151.91 308.562 156.751 308.02C161.591 307.476 166.461 309.009 170.113 312.224L241.506 375.099L89.0798 392.231" fill="#253460"/>
<path d="M110.546 387.884L150.588 332.304C152.967 329.002 156.676 327.279 160.42 327.279C163.252 327.279 166.102 328.264 168.413 330.299L219.85 375.599L110.546 387.884" fill="#F5B8CD"/>
<path d="M64.8103 281.987L136.543 326.581Z" fill="#F795B4"/>
<path d="M136.126 327.261L64.3948 282.667L65.243 281.308L136.974 325.901L136.126 327.261Z" fill="#253460"/>
<path d="M240.471 262.245L180.482 321.644Z" fill="#F795B4"/>
<path d="M181.037 322.21L179.908 321.075L239.897 261.676L241.026 262.81L181.037 322.21Z" fill="#253460"/>
<path d="M90.9648 266.534L70.9557 268.783L67.7409 240.304C67.146 235.043 70.9397 230.297 76.2133 229.705L77.1225 229.603C82.3961 229.009 87.1535 232.794 87.7484 238.055L90.9648 266.534Z" fill="#F0F5FA"/>
<path d="M78.2065 230.343C77.873 230.343 77.5379 230.362 77.2028 230.399L76.292 230.501C73.9543 230.763 71.8586 231.917 70.3915 233.753C68.926 235.586 68.2622 237.883 68.5268 240.216L71.6518 267.901L90.0668 265.831L86.9402 238.146C86.6772 235.813 85.5196 233.723 83.6789 232.259C82.1043 231.007 80.1915 230.343 78.2065 230.343V230.343ZM70.2376 269.668L66.933 240.393C66.6219 237.637 67.4044 234.924 69.1393 232.755C70.8725 230.586 73.3498 229.221 76.1124 228.911L77.0232 228.809C79.789 228.506 82.5052 229.279 84.6794 231.01C86.8536 232.739 88.2229 235.21 88.534 237.968L91.8386 267.24L70.2376 269.668" fill="#253460"/>
<path d="M104.542 251.708C104.139 251.708 103.793 251.405 103.746 250.996C103.697 250.558 104.013 250.162 104.453 250.111L187.519 240.776C187.964 240.721 188.356 241.041 188.405 241.481C188.455 241.919 188.139 242.315 187.698 242.366L104.633 251.703L104.542 251.708" fill="#253460"/>
<path d="M107.735 279.879C107.332 279.879 106.984 279.577 106.938 279.169C106.888 278.729 107.206 278.334 107.645 278.284L190.71 268.949C191.146 268.896 191.547 269.214 191.597 269.654C191.646 270.094 191.331 270.489 190.89 270.539L107.824 279.874L107.735 279.879" fill="#253460"/>
<path d="M106.123 265.633C105.721 265.633 105.373 265.331 105.326 264.921C105.278 264.483 105.594 264.088 106.033 264.038L141.929 260.002C142.366 259.957 142.766 260.269 142.815 260.709C142.865 261.148 142.549 261.543 142.108 261.592L106.214 265.628L106.123 265.633" fill="#253460"/>
<path d="M151.409 260.538C151.006 260.538 150.659 260.238 150.612 259.828C150.564 259.388 150.88 258.993 151.319 258.944L189.091 254.7C189.533 254.657 189.928 254.965 189.979 255.405C190.027 255.843 189.711 256.24 189.272 256.29L151.5 260.534L151.409 260.538" fill="#253460"/>
<path d="M109.529 295.853C109.126 295.853 108.778 295.552 108.732 295.142C108.682 294.703 108.999 294.307 109.439 294.258L145.335 290.224C145.771 290.179 146.172 290.491 146.221 290.929C146.271 291.367 145.955 291.764 145.514 291.814L109.618 295.848L109.529 295.853Z" fill="#253460"/>
</svg>
