<svg width="425" height="333" viewBox="0 0 425 333" fill="none" xmlns="http://www.w3.org/2000/svg">
<path d="M425 332.88H0.827148C0.827148 332.88 0.833936 332.87 0.83535 332.868C25.7667 299.516 75.9741 306.677 109.942 308.656C123.488 309.448 137.057 309.892 150.632 310.047C152.054 310.065 153.478 310.079 154.9 310.087C156.984 310.102 159.069 310.11 161.153 310.112C162.535 310.114 163.918 310.114 165.3 310.11C197.953 310.006 230.631 308.354 263.181 305.956C309.446 302.54 359.203 296.188 402.338 318.075C403.481 318.656 404.62 319.256 405.757 319.879C412.346 323.483 418.773 327.779 425 332.88Z" fill="#7979B2"/>
<path d="M290.228 67.3015H134.046C130.645 67.3015 127.887 70.5171 127.887 74.4839V199.742C127.887 203.709 130.645 206.925 134.046 206.925H192.313V226.661H231.961V206.925H290.228C293.631 206.925 296.389 203.709 296.389 199.742V74.4839C296.389 70.5171 293.631 67.3015 290.228 67.3015Z" fill="#040606"/>
<path d="M296.389 74.4816V199.742C296.389 203.708 293.932 206.924 290.901 206.924H286.46C289.496 206.924 291.951 203.708 291.951 199.742V74.4816C291.951 70.5148 289.496 67.3015 286.46 67.3015H290.901C293.932 67.3015 296.389 70.5148 296.389 74.4816Z" fill="#71CBCD"/>
<path d="M283.807 84.6876V189.958C283.807 193.687 281.215 196.709 278.016 196.709H146.261C143.061 196.709 140.469 193.687 140.469 189.958V84.6876C140.469 80.9579 143.061 77.9371 146.261 77.9371H278.016C281.215 77.9371 283.807 80.9579 283.807 84.6876Z" fill="#EFECF7"/>
<path d="M277.779 86.2856V189.218C277.779 190.65 276.341 191.82 274.586 191.82H148.371C146.616 191.82 145.179 190.65 145.179 189.218V86.2856C145.179 84.8541 146.616 83.6807 148.371 83.6807H274.586C276.341 83.6807 277.779 84.8541 277.779 86.2856" fill="#A8A1E2"/>
<path d="M234.021 226.599H230.914V206.863H234.021V226.599Z" fill="#71CBCD"/>
<path d="M211.849 171.9C211.849 171.902 211.849 171.902 211.849 171.902C211.846 171.9 211.84 171.9 211.834 171.898C211.84 171.9 211.844 171.9 211.849 171.9Z" fill="#242C37"/>
<path d="M241.063 235.383H185.724C184.519 235.383 183.539 234.242 183.539 232.835V228.281C183.539 226.874 184.519 225.733 185.724 225.733H241.063C242.27 225.733 243.248 226.874 243.248 228.281V232.835C243.248 234.242 242.27 235.383 241.063 235.383Z" fill="#71CBCD"/>
<path d="M238.722 235.383H184.673C183.466 235.383 182.487 234.242 182.487 232.835V228.281C182.487 226.874 183.466 225.733 184.673 225.733H238.722C239.93 225.733 240.908 226.874 240.908 228.281V232.835C240.908 234.242 239.93 235.383 238.722 235.383Z" fill="#212637"/>
<path d="M219.636 245.011C219.636 245.63 219.204 246.134 218.673 246.134C218.14 246.134 217.71 245.63 217.71 245.011C217.71 244.39 218.14 243.888 218.673 243.888C219.204 243.888 219.636 244.39 219.636 245.011Z" fill="white"/>
<path d="M263.212 302.012C263.212 302.012 171.767 302.012 165.056 302.012C158.572 294.666 157.871 285.263 165.056 279.729C171.956 279.729 263.212 279.729 263.212 279.729V282.396H260.102V299.028H263.212V302.012" fill="#4D4D84"/>
<path d="M260.102 299.028C260.102 299.028 173.202 299.028 166.893 299.028C162.404 295.344 162.273 285.773 166.893 282.396C173.377 282.396 260.102 282.396 260.102 282.396V299.028Z" fill="white"/>
<path d="M166.96 299.028C166.939 299.028 166.915 299.028 166.893 299.028C164.632 297.172 163.475 293.819 163.477 290.519C163.479 287.27 164.601 284.07 166.893 282.396C173.377 282.396 260.102 282.396 260.102 282.396V285.496C246.167 285.496 175.102 285.496 169.26 285.496C165.638 288.142 164.935 294.587 166.96 299.028" fill="#D6D2CB"/>
<path d="M256.249 321.118H259.36V324.1C259.36 324.1 167.915 324.1 161.203 324.1C156.709 319.007 154.993 312.93 156.756 307.837C157.535 305.581 158.997 303.516 161.203 301.818C168.104 301.818 259.36 301.818 259.36 301.818V304.484H256.249V321.118" fill="#383860"/>
<path d="M271.096 324.1C271.096 324.1 179.654 324.1 172.939 324.1C166.456 316.754 165.755 307.351 172.939 301.817C179.84 301.817 271.096 301.817 271.096 301.817V304.484L267.986 304.486V321.118H271.096V324.1Z" fill="#56548C"/>
<path d="M267.985 321.118C267.985 321.118 181.085 321.118 174.778 321.118C170.288 317.432 170.157 307.86 174.778 304.486C181.26 304.486 267.985 304.486 267.985 304.486V321.118Z" fill="white"/>
<path d="M174.843 321.118C174.821 321.118 174.798 321.118 174.778 321.118C172.516 319.26 171.358 315.909 171.36 312.609C171.362 309.36 172.484 306.159 174.778 304.486C181.26 304.486 267.986 304.486 267.986 304.486V307.016V307.584C254.05 307.584 182.987 307.584 177.144 307.584C173.523 310.23 172.82 316.677 174.843 321.118Z" fill="#D6D2CB"/>
<path d="M259.36 257.615C259.36 257.615 167.917 257.615 161.203 257.615C154.72 250.27 154.019 240.866 161.203 235.334C168.102 235.334 259.36 235.334 259.36 235.334V238.001H256.249V254.633H259.36V257.615" fill="#4D4D84"/>
<path d="M271.096 257.616C271.096 257.616 179.654 257.616 172.939 257.616C166.456 250.271 165.755 240.866 172.939 235.334C179.84 235.334 271.096 235.334 271.096 235.334V238.001H267.986V254.633H271.096V257.616Z" fill="#5C5C8E"/>
<path d="M267.985 254.633C267.985 254.633 181.085 254.633 174.778 254.633C170.288 250.949 170.157 241.376 174.778 238.001C181.26 238.001 267.985 238.001 267.985 238.001V254.633" fill="white"/>
<path d="M174.843 254.633C174.821 254.633 174.798 254.633 174.778 254.633C172.516 252.777 171.358 249.424 171.36 246.124C171.362 242.875 172.484 239.675 174.778 238.001C181.26 238.001 267.986 238.001 267.986 238.001V238.773V241.101C254.05 241.101 182.987 241.101 177.144 241.101C173.523 243.745 172.82 250.192 174.843 254.633" fill="#D6D2CB"/>
<path d="M268.034 279.86H166.563C163.938 279.86 161.812 277.381 161.812 274.322V262.834C161.812 259.775 163.938 257.296 166.563 257.296H267.927C268.735 257.296 269.388 258.06 269.388 259.001V278.28C269.388 279.153 268.782 279.86 268.034 279.86Z" fill="#383860"/>
<path d="M187.685 279.86H178.456V257.296H187.685V279.86Z" fill="#56548C"/>
<path d="M254.923 318.151H190.314C190.005 318.151 189.753 317.857 189.753 317.498V317.151C189.753 316.791 190.005 316.497 190.314 316.497H254.923C255.231 316.497 255.483 316.791 255.483 317.151V317.498C255.483 317.857 255.231 318.151 254.923 318.151Z" fill="#E3DCD5"/>
<path d="M245.715 313.692H181.106C180.798 313.692 180.545 313.398 180.545 313.038V312.566C180.545 312.205 180.798 311.911 181.106 311.911H245.715C246.023 311.911 246.276 312.205 246.276 312.566V313.038C246.276 313.398 246.023 313.692 245.715 313.692" fill="#E3DCD5"/>
<path d="M251.978 249.736H187.369C187.061 249.736 186.81 249.442 186.81 249.083V248.609C186.81 248.25 187.061 247.956 187.369 247.956H251.978C252.286 247.956 252.537 248.25 252.537 248.609V249.083C252.537 249.442 252.286 249.736 251.978 249.736" fill="#E3DCD5"/>
<path d="M253.416 290.821H188.808C188.501 290.821 188.248 290.527 188.248 290.168V289.694C188.248 289.335 188.501 289.041 188.808 289.041H253.416C253.726 289.041 253.978 289.335 253.978 289.694V290.168C253.978 290.527 253.726 290.821 253.416 290.821Z" fill="#E3DCD5"/>
<path d="M123.954 6.36974e-06L168.585 4.05114C171.61 4.05114 174.064 6.91168 174.064 10.4389L170.589 35.934C170.589 39.4612 168.135 42.3195 165.11 42.3195L163.004 42.4711C163.004 42.4711 161.753 47.9692 164.207 50.8275C164.207 50.8275 156.901 48.7696 155.721 42.995L127.429 45.0217C124.404 45.0217 121.951 42.1612 121.951 38.6362L118.475 6.38772C118.475 2.86054 120.928 6.36974e-06 123.954 6.36974e-06" fill="#0F7DC2"/>
<path d="M129.343 16.9844C129.343 17.7076 129.847 18.2943 130.467 18.2943H162.073C162.694 18.2943 163.195 17.7076 163.195 16.9844C163.195 16.2612 162.694 15.6745 162.073 15.6745H130.467C129.847 15.6745 129.343 16.2612 129.343 16.9844Z" fill="#EFECF7"/>
<path d="M129.343 22.5108C129.343 23.2351 129.846 23.823 130.466 23.823H162.073C162.693 23.823 163.195 23.2351 163.195 22.5108C163.195 21.7886 162.693 21.2007 162.073 21.2007H130.466C129.846 21.2007 129.343 21.7886 129.343 22.5108Z" fill="#EFECF7"/>
<path d="M129.343 28.0364C129.343 28.7614 129.847 29.348 130.467 29.348H162.072C162.693 29.348 163.196 28.7614 163.196 28.0364C163.196 27.3134 162.693 26.7268 162.072 26.7268H130.467C129.847 26.7268 129.343 27.3134 129.343 28.0364Z" fill="#EFECF7"/>
<path d="M101.248 245.562L110.172 265.245L98.1115 264.12L101.248 245.562" fill="#6F5DC6"/>
<path d="M82.8732 211.925C82.7779 211.933 82.6804 211.927 82.5845 211.931C82.323 211.945 82.0624 211.978 81.8037 212.025C81.4201 212.096 81.0407 212.196 80.6685 212.323C80.2039 212.486 79.7508 212.691 79.3166 212.942C78.81 213.234 78.3292 213.589 77.8854 213.997C77.375 214.467 76.9148 215.008 76.5127 215.602C76.0413 216.299 75.6511 217.069 75.3359 217.877C74.9547 218.853 74.6825 219.884 74.4929 220.932C74.2577 222.233 74.1481 223.562 74.1211 224.889C74.1113 225.373 74.13 225.855 74.135 226.339C74.138 226.617 74.1491 226.886 74.0779 227.152C73.9649 227.575 73.7798 227.973 73.5457 228.322C73.2125 228.816 72.7751 229.204 72.2869 229.468C70.661 230.35 65.3678 232.069 64.9141 240.178C64.4604 248.289 64.158 250.228 61.587 251.815C59.016 253.402 59.7722 257.633 62.3431 259.571C64.9141 261.511 104.84 258.515 104.84 258.515C104.84 258.515 108.924 250.492 103.328 244.321C97.7321 238.152 100.908 236.565 99.925 231.628C98.9419 226.692 95.2368 226.339 95.1611 223.958C95.0855 221.579 94.8585 211 82.8732 211.925" fill="#3D3C3B"/>
<path d="M93.5227 233.466C92.2789 238.546 88.7633 237.77 84.5582 236.267C80.3533 234.766 77.9506 229.429 79.1945 224.348C80.4365 219.268 84.8535 216.364 89.0584 217.867C93.2635 219.368 94.7649 228.385 93.5227 233.466Z" fill="#EEA886"/>
<path d="M85.5613 215.641C85.5613 215.641 88.7055 221.882 83.1552 225.202C77.605 228.52 79.1555 233.882 79.1555 233.882C79.1555 233.882 76.1065 232.385 76.7483 226.4C77.3903 220.413 75.7854 218.727 79.637 217.044C83.4886 215.361 85.5613 215.641 85.5613 215.641" fill="#3D3C3B"/>
<path d="M89.243 235.379C89.243 235.379 88.1947 239.447 89.6015 240.57C91.0082 241.693 83.2746 241.46 83.2746 241.46C83.2746 241.46 82.6501 236.61 83.9434 234.399C85.2401 232.181 89.243 235.379 89.243 235.379" fill="#EEA886"/>
<path d="M80.9194 231.356C80.9194 232.124 80.3858 232.745 79.7277 232.745C79.0696 232.745 78.536 232.124 78.536 231.356C78.536 230.589 79.0696 229.966 79.7277 229.966C80.3858 229.966 80.9194 230.589 80.9194 231.356Z" fill="#EEA886"/>
<path d="M85.4946 227.907C85.4946 228.34 85.1937 228.691 84.8224 228.691C84.4512 228.691 84.1501 228.34 84.1501 227.907C84.1501 227.474 84.4512 227.123 84.8224 227.123C85.1937 227.123 85.4946 227.474 85.4946 227.907Z" fill="#3D3C3B"/>
<path d="M91.7803 223.96C91.7803 224.373 91.4921 224.71 91.1366 224.71C90.781 224.71 90.4929 224.373 90.4929 223.96C90.4929 223.544 90.781 223.209 91.1366 223.209C91.4921 223.209 91.7803 223.544 91.7803 223.96Z" fill="#3D3C3B"/>
<path d="M85.2192 225.796C85.2211 225.827 84.3474 226.119 84.2631 226.155C83.7619 226.366 83.238 226.596 82.8676 227.072C82.7083 227.278 82.6071 227.53 82.5163 227.789C82.4314 228.03 82.3616 228.363 82.2092 228.551C82.1878 228.471 82.1974 228.377 82.2028 228.293C82.2324 227.832 82.2576 227.348 82.3817 226.911C82.5536 226.302 83.0847 225.776 83.5422 225.479C83.9958 225.183 85.1612 224.791 85.2192 225.796Z" fill="#3D3C3B"/>
<path d="M89.1335 223.633C89.1563 223.65 89.8062 222.909 89.8745 222.841C90.2793 222.437 90.7096 222.02 91.2477 221.881C91.4792 221.82 91.7187 221.843 91.9552 221.879C92.177 221.91 92.4604 222.006 92.6759 221.943C92.6266 221.882 92.5517 221.845 92.4861 221.81C92.1284 221.612 91.7557 221.398 91.3675 221.306C90.8288 221.181 90.1749 221.459 89.7262 221.775C89.2814 222.088 88.4126 223.076 89.1335 223.633" fill="#3D3C3B"/>
<path d="M75.1227 220.193C74.7593 221.524 74.4197 222.862 74.1543 224.222C74.0206 224.9 73.9057 225.586 73.8028 226.272L73.7281 226.79L73.6922 227.048C73.6769 227.138 73.653 227.236 73.6328 227.331C73.5234 227.707 73.2963 228.007 73.0512 228.236C72.8039 228.469 72.5309 228.644 72.2547 228.798C71.978 228.951 71.6966 229.086 71.413 229.208C71.1299 229.333 70.8454 229.449 70.5614 229.563L70.1361 229.735C69.9969 229.798 69.8614 229.857 69.7271 229.927C69.1921 230.213 68.6951 230.601 68.23 231.032C67.7637 231.464 67.326 231.944 66.9284 232.459L66.9265 232.461C66.9028 232.492 66.8622 232.494 66.8358 232.467C66.8099 232.439 66.8075 232.392 66.8297 232.363C67.2227 231.822 67.6501 231.324 68.1144 230.868C68.5765 230.411 69.0826 230.007 69.6352 229.696C69.773 229.619 69.9184 229.553 70.0591 229.486L70.4822 229.306C70.7643 229.184 71.0454 229.063 71.3228 228.935C71.6008 228.81 71.8735 228.671 72.1371 228.518C72.4001 228.365 72.6545 228.193 72.8717 227.981C73.0885 227.769 73.2687 227.515 73.3487 227.221C73.3625 227.144 73.3793 227.074 73.393 226.993L73.4286 226.733L73.5026 226.212C73.6046 225.52 73.7189 224.828 73.8522 224.142C73.9853 223.456 74.1339 222.772 74.2997 222.096C74.4661 221.42 74.6529 220.752 74.8438 220.085C74.8696 219.995 74.9528 219.948 75.0298 219.978C75.1059 220.007 75.1469 220.103 75.1227 220.193" fill="#3D3C3B"/>
<path d="M82.8762 238.906C84.5463 239.373 87.8726 240.255 89.8177 240.419C90.3494 240.464 90.7581 240.982 90.7581 241.603V242.381C90.7581 242.381 100.271 243.408 101.248 245.562C102.224 247.715 103.428 283.021 103.428 283.021H70.8169L73.1001 245.562C73.1001 245.562 76.9012 243.872 81.6731 243.328L81.8086 239.843C81.8333 239.208 82.3464 238.758 82.8762 238.906" fill="#755CCD"/>
<path d="M85.3476 275.374C84.2978 277.42 83.2441 279.466 82.1943 281.516C81.93 282.034 74.6767 279.821 71.0758 278.729C70.1361 278.443 69.4461 278.234 69.189 278.169C67.0234 277.614 64.854 277.052 62.6883 276.497C61.0255 276.068 59.058 275.851 57.6594 274.626C56.8335 273.899 56.2278 272.745 56.2939 271.537C56.349 270.511 56.8629 269.607 57.362 268.755C62.2 260.416 68.0365 253.722 73.0982 245.562L71.9935 263.706C71.1382 264.874 68.737 268.29 68.5539 268.288C69.5782 268.729 70.606 269.166 71.6337 269.599C76.1964 271.545 80.7701 273.468 85.3476 275.374" fill="#6F5DC6"/>
<path d="M89.4292 281.14H82.4439L82.4402 281.036C83.2992 279.364 84.158 277.691 85.0133 276.021L85.0648 276.031C86.9295 276.501 88.7099 277.405 89.0071 278.953L89.4292 281.14" fill="#EEA886"/>
<path fill-rule="evenodd" clip-rule="evenodd" d="M119.753 283.021H89.3466C88.4777 283.021 87.9525 282.194 88.1784 281.181L93.3009 258.221C93.5268 257.208 94.4221 256.381 95.2907 256.381H125.697C126.565 256.381 127.091 257.208 126.865 258.221L121.742 281.181C121.516 282.194 120.622 283.021 119.753 283.021Z" fill="url(#paint0_linear)"/>
<path fill-rule="evenodd" clip-rule="evenodd" d="M91.9784 283.021H78.1086C77.393 283.021 76.8088 282.341 76.8088 281.506C76.8088 280.672 77.393 279.992 78.1086 279.992H91.9784C92.6944 279.992 93.279 280.672 93.279 281.506C93.279 282.341 92.6944 283.021 91.9784 283.021Z" fill="url(#paint1_linear)"/>
<path fill-rule="evenodd" clip-rule="evenodd" d="M120.565 283.021H91.0566C90.1877 283.021 89.6617 282.194 89.888 281.181L95.0101 258.221C95.236 257.208 96.1316 256.381 97.0002 256.381H126.509C127.378 256.381 127.903 257.208 127.677 258.221L122.555 281.181C122.329 282.194 121.433 283.021 120.565 283.021Z" fill="#3D3D6B"/>
<path d="M89.1164 229.8C89.0849 229.8 89.0538 229.784 89.032 229.755C88.9928 229.7 88.9987 229.617 89.0453 229.572C89.1043 229.516 89.1671 229.467 89.228 229.418C89.3018 229.361 89.3714 229.306 89.4292 229.241C89.576 229.075 89.5723 228.924 89.4173 228.738C89.3289 228.632 89.2588 228.551 89.1964 228.481C88.9474 228.199 88.8225 228.056 88.2256 227.064C88.1906 227.007 88.2026 226.927 88.2525 226.886C88.3021 226.844 88.371 226.858 88.406 226.917C88.991 227.889 89.111 228.026 89.3504 228.297C89.4139 228.369 89.4852 228.451 89.5753 228.559C89.8135 228.843 89.8164 229.159 89.5834 229.425C89.5107 229.508 89.4292 229.57 89.3504 229.633C89.292 229.678 89.2369 229.721 89.1873 229.768C89.1666 229.79 89.1414 229.8 89.1164 229.8" fill="#3D3C3B"/>
<path d="M89.2928 233.656C88.5715 233.656 88.02 233.406 88.0094 233.402C87.9453 233.37 87.9142 233.286 87.9399 233.212C87.9655 233.137 88.0381 233.102 88.1023 233.131C88.1213 233.139 90.0121 233.995 91.2736 232.394C91.3203 232.334 91.3995 232.33 91.4501 232.385C91.501 232.439 91.5044 232.532 91.4577 232.59C90.7908 233.437 89.9676 233.656 89.2928 233.656" fill="#3D3C3B"/>
<path d="M99.9889 235.236C100.041 236.002 100.18 236.761 100.414 237.48C100.647 238.199 100.973 238.877 101.375 239.492C102.181 240.723 103.272 241.689 104.462 242.414C104.546 242.465 104.579 242.585 104.535 242.683C104.492 242.781 104.39 242.818 104.307 242.771C103.07 242.054 101.917 241.078 101.041 239.794C100.605 239.153 100.244 238.44 99.9817 237.676C99.7186 236.913 99.5555 236.104 99.4865 235.287C99.4728 235.124 99.5742 234.981 99.7127 234.965C99.8514 234.95 99.9748 235.067 99.9884 235.228C99.9886 235.23 99.9887 235.234 99.9889 235.236" fill="#3D3C3B"/>
<path d="M84.8225 217.777C84.8225 217.777 93.3744 220.084 94.1505 228.083C94.1505 228.083 94.9971 214.875 84.8225 217.777Z" fill="#3D3C3B"/>
<path d="M132.974 310.322C132.974 310.322 43.381 310.322 36.8034 310.322C30.451 300.533 29.7647 288.001 36.8034 280.626C43.5635 280.626 132.974 280.626 132.974 280.626V284.181H129.927V306.348H132.974V310.322Z" fill="#4D4D84"/>
<path d="M144.474 310.322C144.474 310.322 54.8807 310.322 48.3032 310.322C41.9506 300.533 41.2637 288.001 48.3032 280.626C55.0632 280.626 144.474 280.626 144.474 280.626V284.181H141.426V306.348H144.474V310.322Z" fill="#5C5C8E"/>
<path d="M141.427 306.348C141.427 306.348 56.2846 306.348 50.1046 306.348C45.706 301.437 45.5766 288.679 50.1046 284.181C56.4559 284.181 141.427 284.181 141.427 284.181V306.348Z" fill="white"/>
<path d="M50.1696 306.348C50.1471 306.348 50.125 306.348 50.1045 306.348C47.8876 303.872 46.7552 299.406 46.7566 295.007C46.7581 290.678 47.8585 286.413 50.1045 284.181C56.4558 284.181 141.426 284.181 141.426 284.181V285.21V288.312C127.774 288.312 58.1476 288.312 52.4217 288.312C48.8745 291.838 48.1863 300.429 50.1696 306.348" fill="#D6D2CB"/>
<path d="M129.513 296.251H66.02C65.5809 296.251 65.2217 295.832 65.2217 295.32V294.928C65.2217 294.417 65.5809 293.998 66.02 293.998H129.513C129.952 293.998 130.311 294.417 130.311 294.928V295.32C130.311 295.832 129.952 296.251 129.513 296.251Z" fill="#E3DCD5"/>
<path d="M119.952 303.394H56.459C56.0197 303.394 55.6606 302.977 55.6606 302.465V302.073C55.6606 301.56 56.0197 301.143 56.459 301.143H119.952C120.391 301.143 120.75 301.56 120.75 302.073V302.465C120.75 302.977 120.391 303.394 119.952 303.394Z" fill="#E3DCD5"/>
<path d="M107.047 172.914L86.6534 174.765C85.2709 174.765 84.1501 176.073 84.1501 177.685L85.738 189.334C85.738 190.947 86.8589 192.252 88.2414 192.252L89.204 192.322H89.2038C89.2038 192.322 89.775 194.835 88.6545 196.14C88.6545 196.14 91.9925 195.199 92.5311 192.56L105.459 193.486C106.842 193.486 107.963 192.179 107.963 190.568L109.551 175.833C109.551 174.221 108.43 172.914 107.047 172.914" fill="#0F7DC2"/>
<path d="M93.3318 183.825C93.3318 184.699 92.7239 185.407 91.974 185.407C91.2238 185.407 90.6161 184.699 90.6161 183.825C90.6161 182.951 91.2238 182.242 91.974 182.242C92.7239 182.242 93.3318 182.951 93.3318 183.825Z" fill="white"/>
<path d="M97.6246 183.606C97.6246 184.48 97.0167 185.189 96.2667 185.189C95.5166 185.189 94.9091 184.48 94.9091 183.606C94.9091 182.732 95.5166 182.022 96.2667 182.022C97.0167 182.022 97.6246 182.732 97.6246 183.606Z" fill="white"/>
<path d="M101.917 183.386C101.917 184.26 101.31 184.97 100.56 184.97C99.8096 184.97 99.2018 184.26 99.2018 183.386C99.2018 182.512 99.8096 181.803 100.56 181.803C101.31 181.803 101.917 182.512 101.917 183.386Z" fill="white"/>
<path d="M357.655 226.24C354.165 219.883 350.667 206.091 350.667 206.091L344.996 205.436V205.107L344.478 205.272L343.959 205.107V205.436L334.822 208.203C334.822 208.203 334.518 220.203 331.025 226.558C327.576 232.841 330.053 240.687 344.478 239.531C358.905 240.687 361.104 232.521 357.655 226.24" fill="#3D3C3B"/>
<path d="M351.084 209.154C351.084 214.622 347.434 219.055 342.933 219.055C338.431 219.055 334.782 214.622 334.782 209.154C334.782 203.689 338.431 199.969 342.933 199.969C347.434 199.969 351.084 203.689 351.084 209.154Z" fill="#3D3C3B"/>
<path d="M342.662 203.183C335.617 203.042 336.225 210.304 336.225 210.304C336.225 210.304 335.952 214.145 336.93 217.4C337.424 219.041 338.056 219.923 340.033 221.518C340.003 222.057 339.752 225.396 339.612 228C339.532 229.452 339.641 230.566 339.641 230.566C339.641 230.566 342.096 230.693 346.123 230.446L346.036 229.29L345.416 227.785L345.399 225.371L345.255 221.653L345.57 221.326C347.006 220.085 348.004 218.753 348.51 217.426C349.147 215.764 349.282 213.179 349.282 210.304C349.282 210.304 349.703 203.324 342.662 203.183" fill="#F8BD8C"/>
<path d="M337.034 203.224C337.034 203.224 339.485 209.011 350.073 209.3C350.073 209.3 351.218 203.822 345.791 201.645C340.364 199.47 337.034 203.224 337.034 203.224Z" fill="#3D3C3B"/>
<path d="M335.53 210.263C335.53 210.263 338.798 209.145 339.219 202.85C339.219 202.85 335.91 203.438 335.53 210.263Z" fill="#3D3C3B"/>
<path d="M340.708 211.259C340.701 211.284 339.899 211.159 339.82 211.153C339.348 211.114 338.849 211.081 338.405 211.302C338.213 211.398 338.053 211.555 337.901 211.717C337.76 211.87 337.603 212.102 337.42 212.188C337.427 212.115 337.464 212.047 337.494 211.984C337.656 211.637 337.822 211.272 338.056 210.981C338.379 210.577 338.971 210.383 339.434 210.336C339.894 210.289 340.965 210.453 340.708 211.259" fill="#3D3C3B"/>
<path d="M344.834 211.3C344.843 211.326 345.635 211.142 345.715 211.13C346.186 211.057 346.679 210.987 347.136 211.175C347.334 211.255 347.499 211.4 347.661 211.551C347.81 211.694 347.979 211.914 348.166 211.984C348.154 211.914 348.116 211.847 348.081 211.786C347.899 211.453 347.715 211.1 347.466 210.828C347.124 210.448 346.521 210.299 346.057 210.285C345.595 210.271 344.537 210.516 344.834 211.3" fill="#3D3C3B"/>
<path d="M337.372 214.438C337.372 215.134 336.889 215.696 336.294 215.696C335.698 215.696 335.215 215.134 335.215 214.438C335.215 213.744 335.698 213.18 336.294 213.18C336.889 213.18 337.372 213.744 337.372 214.438Z" fill="#F8BD8C"/>
<path d="M350.314 214.438C350.314 215.134 349.83 215.696 349.236 215.696C348.639 215.696 348.155 215.134 348.155 214.438C348.155 213.744 348.639 213.18 349.236 213.18C349.83 213.18 350.314 213.744 350.314 214.438Z" fill="#F8BD8C"/>
<path d="M339.248 213.618C338.539 213.618 338.031 213.154 338.026 213.146C337.936 213.064 337.922 212.911 337.994 212.809C338.065 212.705 338.195 212.689 338.285 212.772C338.322 212.807 339.188 213.589 340.197 212.762C340.289 212.685 340.416 212.713 340.483 212.821C340.548 212.93 340.527 213.079 340.435 213.156C340.012 213.503 339.606 213.618 339.248 213.618Z" fill="#3D3C3B"/>
<path d="M346.046 213.619C345.334 213.619 344.83 213.154 344.821 213.146C344.734 213.064 344.72 212.911 344.79 212.809C344.863 212.705 344.993 212.69 345.08 212.772C345.117 212.805 345.985 213.591 346.994 212.762C347.088 212.686 347.215 212.713 347.28 212.821C347.346 212.931 347.325 213.08 347.231 213.156C346.808 213.503 346.401 213.619 346.046 213.619Z" fill="#3D3C3B"/>
<path d="M388.382 299.344C388.382 299.344 291.379 299.344 284.259 299.344C277.379 291.55 276.637 281.575 284.259 275.706C291.577 275.706 388.382 275.706 388.382 275.706V278.535H385.081V296.179H388.382V299.344Z" fill="#4D4D84"/>
<path d="M400.83 299.344C400.83 299.344 303.83 299.344 296.707 299.344C289.829 291.55 289.084 281.575 296.707 275.706C304.025 275.706 400.83 275.706 400.83 275.706V278.536H397.531V296.179H400.83V299.344" fill="#5C5C8E"/>
<path d="M397.533 296.178C397.533 296.178 305.35 296.178 298.659 296.178C293.899 292.269 293.756 282.115 298.659 278.535C305.536 278.535 397.533 278.535 397.533 278.535V296.178Z" fill="white"/>
<path d="M298.728 296.178C298.704 296.178 298.683 296.178 298.659 296.178C296.261 294.209 295.032 290.652 295.035 287.152C295.035 283.705 296.229 280.311 298.659 278.535C305.536 278.535 397.533 278.535 397.533 278.535V279.354V281.824C382.751 281.824 307.368 281.824 301.17 281.824C297.327 284.628 296.582 291.467 298.728 296.178Z" fill="#D6D2CB"/>
<path d="M397.58 322.938H289.943C287.16 322.938 284.905 320.308 284.905 317.065V304.878C284.905 301.635 287.16 299.004 289.943 299.004H397.468C398.325 299.004 399.019 299.814 399.019 300.811V321.263C399.019 322.188 398.375 322.938 397.58 322.938" fill="#F14957"/>
<path d="M312.353 322.938H302.562V299.004H312.353V322.938" fill="#DF313A"/>
<path d="M387.302 291.793H307.3C306.993 291.793 306.741 291.499 306.741 291.14V290.403C306.741 290.045 306.993 289.751 307.3 289.751H387.302C387.609 289.751 387.861 290.045 387.861 290.403V291.14C387.861 291.499 387.609 291.793 387.302 291.793Z" fill="#E3DCD5"/>
<path d="M331.424 228.918C327.79 229.524 319.084 253.35 321.683 258.802C324.279 264.253 338.57 270.613 338.57 270.613L337.789 261.224C337.789 261.224 328.003 256.377 328.782 253.35C329.563 250.322 335.192 239.013 335.192 239.013L331.424 228.918" fill="#DF313A"/>
<path d="M365.531 258.801C362.931 264.251 348.641 270.612 348.641 270.612L349.422 261.223C349.422 261.223 359.207 256.377 358.429 253.349C358.189 252.412 357.485 250.684 356.625 248.744C354.707 244.409 352.021 239.012 352.021 239.012L355.78 228.919C355.988 228.953 356.214 229.065 356.454 229.245C360.382 232.2 367.979 253.661 365.531 258.801" fill="#DF313A"/>
<path d="M363.704 276.464H325.838C324.722 276.464 323.82 275.412 323.82 274.113V251.096C323.82 249.798 324.722 248.744 325.838 248.744H361.687C362.802 248.744 363.704 249.798 363.704 251.096V276.464Z" fill="#3D3D6B"/>
<path d="M341.094 291.254C341.094 291.254 340.387 292.036 338.312 293.055C336.176 294.101 331.953 296.049 332.585 298.195C333.436 301.084 336.416 300.874 338.39 300.18C342.671 298.681 347.127 295.162 347.127 295.162L341.094 291.254" fill="#3D3D6B"/>
<path d="M346.212 283.717C353.455 277.556 357.237 273.003 365.364 267.246C367.3 265.876 368.623 265.466 371.979 267.001C374.835 268.308 374.53 274.036 372.97 276.423C368.293 283.59 350.272 293.484 346.631 294.985C345.061 295.63 339.507 290.178 341.762 287.57C342.873 286.284 344.254 285.383 346.212 283.717" fill="#9794D3"/>
<path d="M342.875 295.585C342.875 295.585 344.639 298.305 346.693 300.157C349.149 302.369 350.84 303.1 352.832 302.02C355.723 300.456 353.065 297.149 350.821 294.532C347.498 290.658 345.119 289.051 345.119 289.051L342.875 295.585Z" fill="#3D3D6B"/>
<path d="M343.243 287.493L346.331 290.468C346.331 290.468 347.403 291.483 347.946 292.663C348.955 294.856 345.474 299.306 343.214 296.69C340.957 294.074 338.938 291.252 338.938 291.252L343.243 287.493" fill="#F8BD8C"/>
<path d="M334.032 292.193C325.618 287.254 320.457 285.479 315.047 276.593C313.672 274.33 313.118 270.585 313.653 268.739C314.313 266.462 317.165 265.1 320.518 266.033C323.335 266.817 342.239 284.081 345.19 287.334C346.461 288.736 342.586 295.751 339.412 294.542C337.847 293.948 336.31 293.529 334.032 292.193" fill="#9794D3"/>
<path d="M357.348 248.744H330.677L331.425 228.92H355.779C355.987 228.953 356.214 229.065 356.452 229.245L357.348 248.744" fill="#F14957"/>
<path d="M345.186 224.513C345.656 224.513 345.884 224.485 346.055 224.993C346.248 225.556 346.474 226.612 347.851 226.908C350.228 227.419 354.503 227.607 356.266 229.246C356.444 229.412 356.509 229.692 356.439 229.945L355.397 233.712C355.324 233.974 355.12 234.155 354.879 234.162L332.929 234.831C332.657 234.838 332.421 234.619 332.366 234.309L331.569 229.777C331.506 229.424 331.699 229.081 332.002 229.006C333.257 228.701 336.391 227.519 338.601 226.917C338.832 226.855 338.96 226.686 338.987 226.412L339.215 225.091C339.249 224.762 339.487 224.513 339.771 224.513H345.186" fill="#F14957"/>
<path d="M334.182 217.27C334.295 217.368 334.279 217.438 334.264 217.507L334.218 217.71C334.186 217.848 334.15 217.981 334.114 218.114C334.041 218.379 333.957 218.639 333.871 218.896C333.698 219.41 333.505 219.911 333.316 220.409C332.946 221.408 332.569 222.414 332.147 223.394C331.935 223.884 331.72 224.368 331.486 224.848C331.368 225.089 331.245 225.326 331.113 225.555C330.979 225.788 330.848 226.004 330.72 226.233C330.216 227.131 329.735 228.083 329.596 229.139V229.141C329.587 229.194 329.544 229.231 329.498 229.222C329.453 229.214 329.423 229.169 329.428 229.118C329.467 228.559 329.616 228.018 329.807 227.511C329.998 227.003 330.227 226.519 330.473 226.049C330.595 225.816 330.727 225.583 330.852 225.359C330.975 225.132 331.088 224.899 331.197 224.661C331.415 224.187 331.62 223.697 331.82 223.207C332.215 222.224 332.592 221.232 332.953 220.225C333.139 219.723 333.325 219.227 333.491 218.724C333.575 218.473 333.653 218.22 333.721 217.967C333.755 217.84 333.787 217.713 333.816 217.585L333.859 217.393C333.866 217.328 333.877 217.266 334.016 217.23H334.021C334.08 217.215 334.136 217.232 334.182 217.27" fill="#3D3C3B"/>
<path d="M342.907 219.015C342.284 219.015 341.805 218.782 341.796 218.778C341.723 218.743 341.688 218.645 341.721 218.561C341.751 218.477 341.835 218.435 341.908 218.472C341.971 218.504 343.482 219.227 344.507 217.861C344.561 217.791 344.65 217.785 344.71 217.845C344.769 217.906 344.773 218.01 344.722 218.081C344.164 218.822 343.477 219.015 342.907 219.015" fill="#3D3C3B"/>
<path d="M342.59 214.68C342.585 214.68 342.578 214.678 342.574 214.678C342.53 214.67 342.499 214.619 342.504 214.564C342.576 214.075 342.609 213.696 342.592 212.985C342.59 212.93 342.627 212.887 342.676 212.885C342.722 212.885 342.76 212.926 342.76 212.981C342.776 213.702 342.741 214.106 342.671 214.598C342.664 214.645 342.629 214.68 342.59 214.68Z" fill="#3D3C3B"/>
<path d="M349.812 173.438C349.812 169.023 346.613 165.48 342.767 165.789C339.561 166.047 336.948 169.043 336.681 172.776C336.532 174.839 337.083 176.748 338.091 178.218C339.092 179.678 339.679 181.465 339.679 183.337V185.024C339.679 186.051 340.394 186.882 341.272 186.882H345.195C346.076 186.882 346.788 186.051 346.788 185.024V183.335C346.788 181.467 347.372 179.682 348.373 178.222C349.275 176.911 349.812 175.249 349.812 173.438" fill="#0F7DC2"/>
<path d="M345.855 190.982H340.614C340.293 190.982 340.033 190.678 340.033 190.304V188.497C340.033 188.123 340.293 187.821 340.614 187.821H345.855C346.176 187.821 346.437 188.123 346.437 188.497V190.304C346.437 190.678 346.176 190.982 345.855 190.982Z" fill="#56548C"/>
<path d="M343.513 170.091H343.511H343.513ZM343.562 183.821C343.462 183.821 343.369 183.77 343.306 183.682C342.654 182.788 341.991 180.854 342.442 179.553C342.589 179.126 342.848 178.786 343.079 178.489C343.285 178.222 343.478 177.969 343.581 177.685C343.913 176.752 343.408 175.627 342.962 174.634C342.848 174.379 342.748 174.148 342.656 173.925C342.449 173.399 342.178 172.606 342.253 171.771C342.316 171.026 342.717 170.158 343.467 169.903C343.551 169.874 343.642 169.886 343.721 169.936C343.801 169.985 343.857 170.07 343.882 170.17C343.908 170.27 343.899 170.376 343.854 170.468C343.812 170.56 343.74 170.626 343.653 170.656C343.278 170.783 342.969 171.287 342.92 171.849C342.864 172.494 343.091 173.152 343.268 173.593C343.352 173.807 343.453 174.032 343.56 174.271C344.074 175.416 344.653 176.715 344.2 177.985C344.055 178.395 343.803 178.722 343.581 179.012C343.378 179.276 343.168 179.547 343.065 179.847C342.736 180.795 343.292 182.451 343.817 183.176C343.875 183.255 343.906 183.357 343.896 183.461C343.889 183.566 343.847 183.66 343.78 183.729C343.719 183.788 343.642 183.821 343.562 183.821" fill="#EFECF7"/>
<path d="M255.687 136.311C255.687 136.311 258.433 131.319 259.423 128.625C260.414 125.931 264.393 116.594 265.664 117.573C266.935 118.552 263.37 126.385 263.37 126.385C263.37 126.385 266.514 116.58 268.213 117.123C269.913 117.666 265.309 126.799 265.309 126.799C265.309 126.799 269.096 118.192 270.089 119.022C271.08 119.853 270.299 121.77 267.041 128.14C267.041 128.14 269.821 122.672 270.871 123.953C271.922 125.235 268.533 130.254 267.303 131.438C266.071 132.622 260.259 137.631 258.868 139.744C258.868 139.744 255.751 138.566 255.687 136.311" fill="#F89A78"/>
<path d="M261.284 129.878C261.284 129.878 265.454 127.308 266.616 128.302C267.779 129.295 266.605 130.336 262.283 131.849C262.283 131.849 260.756 133.951 259.784 134.116C259.784 134.116 258.581 131.233 261.284 129.878Z" fill="#F89A78"/>
<path d="M261.489 138.941L255.159 133.976C255.159 133.976 243.443 154.031 242.77 153.423C242.097 152.814 236.507 131.716 232.267 129.564C232.267 129.564 230.124 131.227 228.9 136.093C228.035 139.537 227.909 145.087 228.095 150.559C228.095 150.559 239.135 168.294 243.04 167.711C246.945 167.126 261.489 138.941 261.489 138.941" fill="#433A4B"/>
<path d="M174.764 132.004C174.764 132.004 173.148 128.523 173.148 127.507C173.148 126.492 173.62 125.396 173.653 124.009C173.687 122.622 175.404 119.409 175.034 118.496C174.663 117.583 173.62 117.802 172.61 119.993C171.6 122.183 171.936 123.535 171.128 122.913C170.321 122.293 168.334 119.591 167.695 118.46C167.055 117.328 165.035 115.1 164.496 115.466C163.958 115.83 163.806 116.415 167.384 121.888C167.384 121.888 163.332 115.3 162.14 116.488C161.306 117.318 165.264 122.141 165.836 122.908C165.836 122.908 162.171 117.922 161.079 119.098C160.053 120.204 165.094 124.356 165.094 124.356C165.094 124.356 161.331 121.124 160.826 122.074C160.322 123.023 162.51 125.122 164.665 126.436C166.819 127.751 167.373 128.097 167.921 128.974C168.469 129.85 169.816 133.355 169.816 133.355C169.816 133.355 173.249 134.267 174.764 132.004Z" fill="#F89A78"/>
<path d="M220.099 109.452L212.437 110.719C212.437 110.719 211.999 126.235 205.939 127.477C205.939 127.477 203.784 152.888 211.797 150.77C219.81 148.652 224.119 126.6 224.119 126.6C224.119 126.6 217.055 124.481 220.099 109.452Z" fill="#F57E5D"/>
<path d="M220.698 97.8886C220.698 97.8886 212.431 94.1972 209.148 96.439C205.866 98.6797 206.135 106.41 205.646 109.953C204.881 115.49 207.082 120.895 208.419 121.423C209.757 121.95 220.091 118.918 221.732 110.809C223.373 102.701 222.643 99.2732 220.698 97.8886Z" fill="#F89A78"/>
<path d="M219.209 111.98C219.209 111.98 216.246 113.759 214.331 113.908C212.415 114.056 211.236 111.593 208.541 112.226C205.845 112.86 205.501 112.965 205.501 112.965C205.501 112.965 204.073 123.449 207.72 123.152C211.367 122.857 217.568 118.703 219.756 115.885C219.756 115.885 222.036 115.885 223.495 113.463C224.953 111.04 226.913 103.525 225.637 98.9764C224.361 94.4277 218.708 92.6481 216.336 94.7746C216.336 94.7746 214.528 93.1434 211.093 93.3409C207.659 93.5384 206.947 95.5155 205.488 96.7025C204.029 97.8886 202.601 97.8886 202.115 96.8669C202.115 96.8669 201.081 98.7458 202.936 101.976C204.789 105.206 206.929 104.712 209.818 103.986C212.705 103.261 216.291 100.163 216.291 100.163C216.291 100.163 216.139 106.623 217.629 108.997C217.629 108.997 218.175 109.261 218.388 108.997C218.601 108.732 218.449 105.371 220.12 106.129C221.792 106.888 220.698 110.71 219.209 111.98" fill="#212637"/>
<path d="M207.902 115.094C207.902 115.094 210.091 115.918 212.462 115.324C212.462 115.324 211.117 117.245 209.634 116.973C207.971 116.667 207.902 115.094 207.902 115.094" fill="white"/>
<path d="M221.818 124.265L214.73 128.423L209.218 124.835C209.218 124.835 206.411 133.976 207.219 144.344C208.027 154.712 209.575 162.16 216.039 152.522C222.503 142.884 224.903 127.623 221.818 124.265Z" fill="white"/>
<path d="M221.818 124.265L214.73 128.423L209.218 124.835C209.218 124.835 206.411 133.976 207.219 144.344C208.027 154.712 209.575 162.16 216.039 152.522C222.503 142.884 224.903 127.623 221.818 124.265Z" fill="#6B8EA1"/>
<path d="M213.397 133.173C213.397 133.173 209.59 155.526 209.912 155.954C210.121 155.668 212.439 162.016 213.778 155.954C214.819 151.238 214.946 133.687 215.113 133.474C215.113 133.474 217.101 131.153 218.263 130.01C219.024 129.26 219.762 128.492 220.474 127.697C220.66 127.331 220.839 126.963 220.996 126.569C220.892 126.835 220.789 127.102 220.685 127.368C221.122 126.445 221.627 125.578 222.183 124.763C222.071 124.576 221.95 124.408 221.818 124.264L214.73 128.423L209.218 124.835C209.218 124.835 209.055 125.373 208.82 126.313C209.4 127.189 209.923 128.074 210.376 128.922C210.955 130.009 213.397 133.173 213.397 133.173" fill="#212637"/>
<path d="M209.218 124.835C209.218 124.835 201.562 126.442 198.6 127.507C198.6 127.507 199.542 146.682 196.58 151.5L195.234 193.267C195.234 193.267 211.999 193.048 212.538 170.412C213.077 147.776 213.043 146.754 213.043 146.754L209.218 124.835Z" fill="#433A4B"/>
<path d="M211.588 149.366C211.582 149.752 211.288 150.058 210.932 150.052C210.577 150.044 210.294 149.726 210.301 149.341C210.307 148.954 210.601 148.648 210.957 148.655C211.312 148.662 211.594 148.981 211.588 149.366Z" fill="#212637"/>
<path d="M211.177 156.223C211.17 156.608 210.877 156.916 210.521 156.908C210.166 156.901 209.883 156.583 209.89 156.197C209.896 155.811 210.19 155.505 210.545 155.512C210.901 155.518 211.184 155.838 211.177 156.223Z" fill="#212637"/>
<path d="M210.766 163.08C210.76 163.465 210.466 163.771 210.111 163.765C209.755 163.758 209.472 163.439 209.479 163.054C209.486 162.668 209.779 162.361 210.134 162.369C210.49 162.375 210.772 162.694 210.766 163.08Z" fill="#212637"/>
<path d="M210.355 169.936C210.349 170.322 210.055 170.628 209.7 170.622C209.344 170.614 209.062 170.296 209.068 169.911C209.074 169.524 209.368 169.218 209.724 169.225C210.08 169.233 210.362 169.551 210.355 169.936Z" fill="#212637"/>
<path d="M232.267 129.564L221.818 124.265L213.043 146.754L211.177 173.026C211.177 173.026 211.394 196.119 229.573 193.267L228.095 150.895C228.095 150.895 227.957 135.375 232.267 129.564" fill="#433A4B"/>
<path d="M175.086 129.564L167.92 132.662C167.92 132.662 177.727 171.097 183.383 167.724C189.039 164.351 196.552 152.376 196.552 152.376C196.552 152.376 198.641 148.62 199.461 142.811C200.185 137.677 199.737 130.639 198.6 127.507C198.6 127.507 193.617 130.797 189.443 139.833C185.268 148.871 183.992 151.459 183.62 150.895C183.248 150.331 175.086 129.564 175.086 129.564" fill="#433A4B"/>
<path d="M214.73 127.842L209.8 123.766L208.609 124.965L210.518 132.286L214.73 128.865L218.523 132.711L222.183 124.449L220.345 122.367L214.73 127.842" fill="white"/>
<path d="M214.893 160.427L223.897 190.709L225.304 190.149L216.3 159.866L214.893 160.427Z" fill="#212637"/>
<defs>
<linearGradient id="paint0_linear" x1="126.917" y1="269.701" x2="88.126" y2="269.701" gradientUnits="userSpaceOnUse">
<stop stop-color="#1B1464"/>
<stop offset="1" stop-color="#1B1464"/>
</linearGradient>
<linearGradient id="paint1_linear" x1="93.279" y1="281.506" x2="76.8089" y2="281.506" gradientUnits="userSpaceOnUse">
<stop stop-color="#1B1464"/>
<stop offset="1" stop-color="#1B1464"/>
</linearGradient>
</defs>
</svg>
