<svg width="103" height="91" viewBox="0 0 103 91" fill="none" xmlns="http://www.w3.org/2000/svg">
<g filter="url(#filter0_d)">
<path d="M97.5 43.3474C97.5 65.2903 76.9741 83.1949 51.5 83.1949C26.0259 83.1949 5.5 65.2903 5.5 43.3474C5.5 21.4046 26.0259 3.5 51.5 3.5C76.9741 3.5 97.5 21.4046 97.5 43.3474Z" fill="white" fill-opacity="0.96" stroke="black"/>
</g>
<path d="M74.1429 38.0336C75.7336 39.0465 76.8095 40.5496 77.1463 42.2296C77.4831 43.9096 77.0548 45.6369 75.9507 47.0513C75.4632 47.6765 74.8512 48.2222 74.1429 48.6632L46.1888 66.027C45.4085 66.5133 44.5219 66.8582 43.5826 67.0407C42.6433 67.2233 41.6708 67.2397 40.7239 67.089C39.777 66.9384 38.8754 66.6237 38.0736 66.1641C37.2718 65.7045 36.5864 65.1095 36.0589 64.415C35.2062 63.3205 34.7515 62.0316 34.7528 60.7131V25.9837C34.7209 24.2937 35.4689 22.6619 36.8323 21.4473C38.1957 20.2326 40.0628 19.5345 42.0232 19.5064C43.5153 19.5085 44.9687 19.9155 46.1773 20.6699L74.1429 38.0336Z" fill="url(#paint0_linear)"/>
<defs>
<filter id="filter0_d" x="0" y="0" width="103" height="90.6949" filterUnits="userSpaceOnUse" color-interpolation-filters="sRGB">
<feFlood flood-opacity="0" result="BackgroundImageFix"/>
<feColorMatrix in="SourceAlpha" type="matrix" values="0 0 0 0 0 0 0 0 0 0 0 0 0 0 0 0 0 0 127 0"/>
<feOffset dy="2"/>
<feGaussianBlur stdDeviation="2.5"/>
<feColorMatrix type="matrix" values="0 0 0 0 0 0 0 0 0 0 0 0 0 0 0 0 0 0 0.2 0"/>
<feBlend mode="normal" in2="BackgroundImageFix" result="effect1_dropShadow"/>
<feBlend mode="normal" in="SourceGraphic" in2="effect1_dropShadow" result="shape"/>
</filter>
<linearGradient id="paint0_linear" x1="34.7518" y1="67.191" x2="34.7518" y2="19.5064" gradientUnits="userSpaceOnUse">
<stop stop-color="#9752FF"/>
<stop offset="1" stop-color="#5E93FF"/>
</linearGradient>
</defs>
</svg>
